%TF.GenerationSoftware,KiCad,Pcbnew,9.0.3*%
%TF.CreationDate,2025-08-21T13:00:16+03:00*%
%TF.ProjectId,Solar Cooling Project,536f6c61-7220-4436-9f6f-6c696e672050,rev?*%
%TF.SameCoordinates,Original*%
%TF.FileFunction,Legend,Top*%
%TF.FilePolarity,Positive*%
%FSLAX46Y46*%
G04 Gerber Fmt 4.6, Leading zero omitted, Abs format (unit mm)*
G04 Created by KiCad (PCBNEW 9.0.3) date 2025-08-21 13:00:16*
%MOMM*%
%LPD*%
G01*
G04 APERTURE LIST*
%ADD10C,0.750000*%
%ADD11C,0.150000*%
%ADD12C,0.200000*%
%ADD13C,0.127000*%
G04 APERTURE END LIST*
D10*
X63546991Y-21774529D02*
X63921991Y-18774529D01*
X63921991Y-18774529D02*
X64636277Y-18774529D01*
X64636277Y-18774529D02*
X65046991Y-18917386D01*
X65046991Y-18917386D02*
X65296991Y-19203100D01*
X65296991Y-19203100D02*
X65404134Y-19488814D01*
X65404134Y-19488814D02*
X65475563Y-20060243D01*
X65475563Y-20060243D02*
X65421991Y-20488814D01*
X65421991Y-20488814D02*
X65207705Y-21060243D01*
X65207705Y-21060243D02*
X65029134Y-21345957D01*
X65029134Y-21345957D02*
X64707705Y-21631672D01*
X64707705Y-21631672D02*
X64261277Y-21774529D01*
X64261277Y-21774529D02*
X63546991Y-21774529D01*
X67707705Y-21631672D02*
X67404134Y-21774529D01*
X67404134Y-21774529D02*
X66832705Y-21774529D01*
X66832705Y-21774529D02*
X66564848Y-21631672D01*
X66564848Y-21631672D02*
X66457705Y-21345957D01*
X66457705Y-21345957D02*
X66600563Y-20203100D01*
X66600563Y-20203100D02*
X66779134Y-19917386D01*
X66779134Y-19917386D02*
X67082705Y-19774529D01*
X67082705Y-19774529D02*
X67654134Y-19774529D01*
X67654134Y-19774529D02*
X67921991Y-19917386D01*
X67921991Y-19917386D02*
X68029134Y-20203100D01*
X68029134Y-20203100D02*
X67993420Y-20488814D01*
X67993420Y-20488814D02*
X66529134Y-20774529D01*
X68993420Y-21631672D02*
X69261277Y-21774529D01*
X69261277Y-21774529D02*
X69832706Y-21774529D01*
X69832706Y-21774529D02*
X70136277Y-21631672D01*
X70136277Y-21631672D02*
X70314849Y-21345957D01*
X70314849Y-21345957D02*
X70332706Y-21203100D01*
X70332706Y-21203100D02*
X70225563Y-20917386D01*
X70225563Y-20917386D02*
X69957706Y-20774529D01*
X69957706Y-20774529D02*
X69529134Y-20774529D01*
X69529134Y-20774529D02*
X69261277Y-20631672D01*
X69261277Y-20631672D02*
X69154134Y-20345957D01*
X69154134Y-20345957D02*
X69171992Y-20203100D01*
X69171992Y-20203100D02*
X69350563Y-19917386D01*
X69350563Y-19917386D02*
X69654134Y-19774529D01*
X69654134Y-19774529D02*
X70082706Y-19774529D01*
X70082706Y-19774529D02*
X70350563Y-19917386D01*
X71546991Y-21774529D02*
X71796991Y-19774529D01*
X71921991Y-18774529D02*
X71761277Y-18917386D01*
X71761277Y-18917386D02*
X71886277Y-19060243D01*
X71886277Y-19060243D02*
X72046991Y-18917386D01*
X72046991Y-18917386D02*
X71921991Y-18774529D01*
X71921991Y-18774529D02*
X71886277Y-19060243D01*
X74511276Y-19774529D02*
X74207705Y-22203100D01*
X74207705Y-22203100D02*
X74029134Y-22488814D01*
X74029134Y-22488814D02*
X73868419Y-22631672D01*
X73868419Y-22631672D02*
X73564848Y-22774529D01*
X73564848Y-22774529D02*
X73136276Y-22774529D01*
X73136276Y-22774529D02*
X72868419Y-22631672D01*
X74279134Y-21631672D02*
X73975562Y-21774529D01*
X73975562Y-21774529D02*
X73404134Y-21774529D01*
X73404134Y-21774529D02*
X73136276Y-21631672D01*
X73136276Y-21631672D02*
X73011276Y-21488814D01*
X73011276Y-21488814D02*
X72904134Y-21203100D01*
X72904134Y-21203100D02*
X73011276Y-20345957D01*
X73011276Y-20345957D02*
X73189848Y-20060243D01*
X73189848Y-20060243D02*
X73350562Y-19917386D01*
X73350562Y-19917386D02*
X73654134Y-19774529D01*
X73654134Y-19774529D02*
X74225562Y-19774529D01*
X74225562Y-19774529D02*
X74493419Y-19917386D01*
X75939848Y-19774529D02*
X75689848Y-21774529D01*
X75904134Y-20060243D02*
X76064848Y-19917386D01*
X76064848Y-19917386D02*
X76368420Y-19774529D01*
X76368420Y-19774529D02*
X76796991Y-19774529D01*
X76796991Y-19774529D02*
X77064848Y-19917386D01*
X77064848Y-19917386D02*
X77171991Y-20203100D01*
X77171991Y-20203100D02*
X76975562Y-21774529D01*
X79564848Y-21631672D02*
X79261277Y-21774529D01*
X79261277Y-21774529D02*
X78689848Y-21774529D01*
X78689848Y-21774529D02*
X78421991Y-21631672D01*
X78421991Y-21631672D02*
X78314848Y-21345957D01*
X78314848Y-21345957D02*
X78457706Y-20203100D01*
X78457706Y-20203100D02*
X78636277Y-19917386D01*
X78636277Y-19917386D02*
X78939848Y-19774529D01*
X78939848Y-19774529D02*
X79511277Y-19774529D01*
X79511277Y-19774529D02*
X79779134Y-19917386D01*
X79779134Y-19917386D02*
X79886277Y-20203100D01*
X79886277Y-20203100D02*
X79850563Y-20488814D01*
X79850563Y-20488814D02*
X78386277Y-20774529D01*
X82261277Y-21774529D02*
X82636277Y-18774529D01*
X82279135Y-21631672D02*
X81975563Y-21774529D01*
X81975563Y-21774529D02*
X81404135Y-21774529D01*
X81404135Y-21774529D02*
X81136277Y-21631672D01*
X81136277Y-21631672D02*
X81011277Y-21488814D01*
X81011277Y-21488814D02*
X80904135Y-21203100D01*
X80904135Y-21203100D02*
X81011277Y-20345957D01*
X81011277Y-20345957D02*
X81189849Y-20060243D01*
X81189849Y-20060243D02*
X81350563Y-19917386D01*
X81350563Y-19917386D02*
X81654135Y-19774529D01*
X81654135Y-19774529D02*
X82225563Y-19774529D01*
X82225563Y-19774529D02*
X82493420Y-19917386D01*
X87261277Y-21774529D02*
X87457706Y-20203100D01*
X87457706Y-20203100D02*
X87350563Y-19917386D01*
X87350563Y-19917386D02*
X87082706Y-19774529D01*
X87082706Y-19774529D02*
X86511277Y-19774529D01*
X86511277Y-19774529D02*
X86207706Y-19917386D01*
X87279135Y-21631672D02*
X86975563Y-21774529D01*
X86975563Y-21774529D02*
X86261277Y-21774529D01*
X86261277Y-21774529D02*
X85993420Y-21631672D01*
X85993420Y-21631672D02*
X85886277Y-21345957D01*
X85886277Y-21345957D02*
X85921992Y-21060243D01*
X85921992Y-21060243D02*
X86100563Y-20774529D01*
X86100563Y-20774529D02*
X86404135Y-20631672D01*
X86404135Y-20631672D02*
X87118420Y-20631672D01*
X87118420Y-20631672D02*
X87421992Y-20488814D01*
X88939849Y-19774529D02*
X88689849Y-21774529D01*
X88904135Y-20060243D02*
X89064849Y-19917386D01*
X89064849Y-19917386D02*
X89368421Y-19774529D01*
X89368421Y-19774529D02*
X89796992Y-19774529D01*
X89796992Y-19774529D02*
X90064849Y-19917386D01*
X90064849Y-19917386D02*
X90171992Y-20203100D01*
X90171992Y-20203100D02*
X89975563Y-21774529D01*
X92689849Y-21774529D02*
X93064849Y-18774529D01*
X92707707Y-21631672D02*
X92404135Y-21774529D01*
X92404135Y-21774529D02*
X91832707Y-21774529D01*
X91832707Y-21774529D02*
X91564849Y-21631672D01*
X91564849Y-21631672D02*
X91439849Y-21488814D01*
X91439849Y-21488814D02*
X91332707Y-21203100D01*
X91332707Y-21203100D02*
X91439849Y-20345957D01*
X91439849Y-20345957D02*
X91618421Y-20060243D01*
X91618421Y-20060243D02*
X91779135Y-19917386D01*
X91779135Y-19917386D02*
X92082707Y-19774529D01*
X92082707Y-19774529D02*
X92654135Y-19774529D01*
X92654135Y-19774529D02*
X92921992Y-19917386D01*
X96404135Y-21774529D02*
X96779135Y-18774529D01*
X96779135Y-18774529D02*
X97493421Y-18774529D01*
X97493421Y-18774529D02*
X97904135Y-18917386D01*
X97904135Y-18917386D02*
X98154135Y-19203100D01*
X98154135Y-19203100D02*
X98261278Y-19488814D01*
X98261278Y-19488814D02*
X98332707Y-20060243D01*
X98332707Y-20060243D02*
X98279135Y-20488814D01*
X98279135Y-20488814D02*
X98064849Y-21060243D01*
X98064849Y-21060243D02*
X97886278Y-21345957D01*
X97886278Y-21345957D02*
X97564849Y-21631672D01*
X97564849Y-21631672D02*
X97118421Y-21774529D01*
X97118421Y-21774529D02*
X96404135Y-21774529D01*
X100564849Y-21631672D02*
X100261278Y-21774529D01*
X100261278Y-21774529D02*
X99689849Y-21774529D01*
X99689849Y-21774529D02*
X99421992Y-21631672D01*
X99421992Y-21631672D02*
X99314849Y-21345957D01*
X99314849Y-21345957D02*
X99457707Y-20203100D01*
X99457707Y-20203100D02*
X99636278Y-19917386D01*
X99636278Y-19917386D02*
X99939849Y-19774529D01*
X99939849Y-19774529D02*
X100511278Y-19774529D01*
X100511278Y-19774529D02*
X100779135Y-19917386D01*
X100779135Y-19917386D02*
X100886278Y-20203100D01*
X100886278Y-20203100D02*
X100850564Y-20488814D01*
X100850564Y-20488814D02*
X99386278Y-20774529D01*
X101939850Y-19774529D02*
X102404136Y-21774529D01*
X102404136Y-21774529D02*
X103368421Y-19774529D01*
X105421992Y-21631672D02*
X105118421Y-21774529D01*
X105118421Y-21774529D02*
X104546992Y-21774529D01*
X104546992Y-21774529D02*
X104279135Y-21631672D01*
X104279135Y-21631672D02*
X104171992Y-21345957D01*
X104171992Y-21345957D02*
X104314850Y-20203100D01*
X104314850Y-20203100D02*
X104493421Y-19917386D01*
X104493421Y-19917386D02*
X104796992Y-19774529D01*
X104796992Y-19774529D02*
X105368421Y-19774529D01*
X105368421Y-19774529D02*
X105636278Y-19917386D01*
X105636278Y-19917386D02*
X105743421Y-20203100D01*
X105743421Y-20203100D02*
X105707707Y-20488814D01*
X105707707Y-20488814D02*
X104243421Y-20774529D01*
X107261279Y-21774529D02*
X106993421Y-21631672D01*
X106993421Y-21631672D02*
X106886279Y-21345957D01*
X106886279Y-21345957D02*
X107207707Y-18774529D01*
X108832708Y-21774529D02*
X108564850Y-21631672D01*
X108564850Y-21631672D02*
X108439850Y-21488814D01*
X108439850Y-21488814D02*
X108332708Y-21203100D01*
X108332708Y-21203100D02*
X108439850Y-20345957D01*
X108439850Y-20345957D02*
X108618422Y-20060243D01*
X108618422Y-20060243D02*
X108779136Y-19917386D01*
X108779136Y-19917386D02*
X109082708Y-19774529D01*
X109082708Y-19774529D02*
X109511279Y-19774529D01*
X109511279Y-19774529D02*
X109779136Y-19917386D01*
X109779136Y-19917386D02*
X109904136Y-20060243D01*
X109904136Y-20060243D02*
X110011279Y-20345957D01*
X110011279Y-20345957D02*
X109904136Y-21203100D01*
X109904136Y-21203100D02*
X109725565Y-21488814D01*
X109725565Y-21488814D02*
X109564850Y-21631672D01*
X109564850Y-21631672D02*
X109261279Y-21774529D01*
X109261279Y-21774529D02*
X108832708Y-21774529D01*
X111368422Y-19774529D02*
X110993422Y-22774529D01*
X111350565Y-19917386D02*
X111654136Y-19774529D01*
X111654136Y-19774529D02*
X112225565Y-19774529D01*
X112225565Y-19774529D02*
X112493422Y-19917386D01*
X112493422Y-19917386D02*
X112618422Y-20060243D01*
X112618422Y-20060243D02*
X112725565Y-20345957D01*
X112725565Y-20345957D02*
X112618422Y-21203100D01*
X112618422Y-21203100D02*
X112439851Y-21488814D01*
X112439851Y-21488814D02*
X112279136Y-21631672D01*
X112279136Y-21631672D02*
X111975565Y-21774529D01*
X111975565Y-21774529D02*
X111404136Y-21774529D01*
X111404136Y-21774529D02*
X111136279Y-21631672D01*
X114993422Y-21631672D02*
X114689851Y-21774529D01*
X114689851Y-21774529D02*
X114118422Y-21774529D01*
X114118422Y-21774529D02*
X113850565Y-21631672D01*
X113850565Y-21631672D02*
X113743422Y-21345957D01*
X113743422Y-21345957D02*
X113886280Y-20203100D01*
X113886280Y-20203100D02*
X114064851Y-19917386D01*
X114064851Y-19917386D02*
X114368422Y-19774529D01*
X114368422Y-19774529D02*
X114939851Y-19774529D01*
X114939851Y-19774529D02*
X115207708Y-19917386D01*
X115207708Y-19917386D02*
X115314851Y-20203100D01*
X115314851Y-20203100D02*
X115279137Y-20488814D01*
X115279137Y-20488814D02*
X113814851Y-20774529D01*
X117689851Y-21774529D02*
X118064851Y-18774529D01*
X117707709Y-21631672D02*
X117404137Y-21774529D01*
X117404137Y-21774529D02*
X116832709Y-21774529D01*
X116832709Y-21774529D02*
X116564851Y-21631672D01*
X116564851Y-21631672D02*
X116439851Y-21488814D01*
X116439851Y-21488814D02*
X116332709Y-21203100D01*
X116332709Y-21203100D02*
X116439851Y-20345957D01*
X116439851Y-20345957D02*
X116618423Y-20060243D01*
X116618423Y-20060243D02*
X116779137Y-19917386D01*
X116779137Y-19917386D02*
X117082709Y-19774529D01*
X117082709Y-19774529D02*
X117654137Y-19774529D01*
X117654137Y-19774529D02*
X117921994Y-19917386D01*
X122600566Y-20203100D02*
X123011280Y-20345957D01*
X123011280Y-20345957D02*
X123136280Y-20488814D01*
X123136280Y-20488814D02*
X123243423Y-20774529D01*
X123243423Y-20774529D02*
X123189851Y-21203100D01*
X123189851Y-21203100D02*
X123011280Y-21488814D01*
X123011280Y-21488814D02*
X122850566Y-21631672D01*
X122850566Y-21631672D02*
X122546994Y-21774529D01*
X122546994Y-21774529D02*
X121404137Y-21774529D01*
X121404137Y-21774529D02*
X121779137Y-18774529D01*
X121779137Y-18774529D02*
X122779137Y-18774529D01*
X122779137Y-18774529D02*
X123046994Y-18917386D01*
X123046994Y-18917386D02*
X123171994Y-19060243D01*
X123171994Y-19060243D02*
X123279137Y-19345957D01*
X123279137Y-19345957D02*
X123243423Y-19631672D01*
X123243423Y-19631672D02*
X123064851Y-19917386D01*
X123064851Y-19917386D02*
X122904137Y-20060243D01*
X122904137Y-20060243D02*
X122600566Y-20203100D01*
X122600566Y-20203100D02*
X121600566Y-20203100D01*
X124368423Y-19774529D02*
X124832709Y-21774529D01*
X125796994Y-19774529D02*
X124832709Y-21774529D01*
X124832709Y-21774529D02*
X124457709Y-22488814D01*
X124457709Y-22488814D02*
X124296994Y-22631672D01*
X124296994Y-22631672D02*
X123993423Y-22774529D01*
X126725565Y-21488814D02*
X126850565Y-21631672D01*
X126850565Y-21631672D02*
X126689851Y-21774529D01*
X126689851Y-21774529D02*
X126564851Y-21631672D01*
X126564851Y-21631672D02*
X126725565Y-21488814D01*
X126725565Y-21488814D02*
X126689851Y-21774529D01*
X126921994Y-19917386D02*
X127046994Y-20060243D01*
X127046994Y-20060243D02*
X126886280Y-20203100D01*
X126886280Y-20203100D02*
X126761280Y-20060243D01*
X126761280Y-20060243D02*
X126921994Y-19917386D01*
X126921994Y-19917386D02*
X126886280Y-20203100D01*
X65296991Y-26318646D02*
X65136277Y-26461504D01*
X65136277Y-26461504D02*
X64689848Y-26604361D01*
X64689848Y-26604361D02*
X64404134Y-26604361D01*
X64404134Y-26604361D02*
X63993420Y-26461504D01*
X63993420Y-26461504D02*
X63743420Y-26175789D01*
X63743420Y-26175789D02*
X63636277Y-25890075D01*
X63636277Y-25890075D02*
X63564848Y-25318646D01*
X63564848Y-25318646D02*
X63618420Y-24890075D01*
X63618420Y-24890075D02*
X63832705Y-24318646D01*
X63832705Y-24318646D02*
X64011277Y-24032932D01*
X64011277Y-24032932D02*
X64332705Y-23747218D01*
X64332705Y-23747218D02*
X64779134Y-23604361D01*
X64779134Y-23604361D02*
X65064848Y-23604361D01*
X65064848Y-23604361D02*
X65475563Y-23747218D01*
X65475563Y-23747218D02*
X65600563Y-23890075D01*
X66975563Y-26604361D02*
X66707705Y-26461504D01*
X66707705Y-26461504D02*
X66600563Y-26175789D01*
X66600563Y-26175789D02*
X66921991Y-23604361D01*
X68118420Y-26604361D02*
X68368420Y-24604361D01*
X68493420Y-23604361D02*
X68332706Y-23747218D01*
X68332706Y-23747218D02*
X68457706Y-23890075D01*
X68457706Y-23890075D02*
X68618420Y-23747218D01*
X68618420Y-23747218D02*
X68493420Y-23604361D01*
X68493420Y-23604361D02*
X68457706Y-23890075D01*
X69546991Y-26604361D02*
X69796991Y-24604361D01*
X69761277Y-24890075D02*
X69921991Y-24747218D01*
X69921991Y-24747218D02*
X70225563Y-24604361D01*
X70225563Y-24604361D02*
X70654134Y-24604361D01*
X70654134Y-24604361D02*
X70921991Y-24747218D01*
X70921991Y-24747218D02*
X71029134Y-25032932D01*
X71029134Y-25032932D02*
X70832705Y-26604361D01*
X71029134Y-25032932D02*
X71207705Y-24747218D01*
X71207705Y-24747218D02*
X71511277Y-24604361D01*
X71511277Y-24604361D02*
X71939848Y-24604361D01*
X71939848Y-24604361D02*
X72207705Y-24747218D01*
X72207705Y-24747218D02*
X72314848Y-25032932D01*
X72314848Y-25032932D02*
X72118420Y-26604361D01*
X74832705Y-26604361D02*
X75029134Y-25032932D01*
X75029134Y-25032932D02*
X74921991Y-24747218D01*
X74921991Y-24747218D02*
X74654134Y-24604361D01*
X74654134Y-24604361D02*
X74082705Y-24604361D01*
X74082705Y-24604361D02*
X73779134Y-24747218D01*
X74850563Y-26461504D02*
X74546991Y-26604361D01*
X74546991Y-26604361D02*
X73832705Y-26604361D01*
X73832705Y-26604361D02*
X73564848Y-26461504D01*
X73564848Y-26461504D02*
X73457705Y-26175789D01*
X73457705Y-26175789D02*
X73493420Y-25890075D01*
X73493420Y-25890075D02*
X73671991Y-25604361D01*
X73671991Y-25604361D02*
X73975563Y-25461504D01*
X73975563Y-25461504D02*
X74689848Y-25461504D01*
X74689848Y-25461504D02*
X74993420Y-25318646D01*
X76207706Y-23604361D02*
X76832706Y-26604361D01*
X76832706Y-26604361D02*
X78207706Y-23604361D01*
X80118420Y-26604361D02*
X80314849Y-25032932D01*
X80314849Y-25032932D02*
X80207706Y-24747218D01*
X80207706Y-24747218D02*
X79939849Y-24604361D01*
X79939849Y-24604361D02*
X79368420Y-24604361D01*
X79368420Y-24604361D02*
X79064849Y-24747218D01*
X80136278Y-26461504D02*
X79832706Y-26604361D01*
X79832706Y-26604361D02*
X79118420Y-26604361D01*
X79118420Y-26604361D02*
X78850563Y-26461504D01*
X78850563Y-26461504D02*
X78743420Y-26175789D01*
X78743420Y-26175789D02*
X78779135Y-25890075D01*
X78779135Y-25890075D02*
X78957706Y-25604361D01*
X78957706Y-25604361D02*
X79261278Y-25461504D01*
X79261278Y-25461504D02*
X79975563Y-25461504D01*
X79975563Y-25461504D02*
X80279135Y-25318646D01*
X83082706Y-24604361D02*
X82832706Y-26604361D01*
X81796992Y-24604361D02*
X81600564Y-26175789D01*
X81600564Y-26175789D02*
X81707706Y-26461504D01*
X81707706Y-26461504D02*
X81975564Y-26604361D01*
X81975564Y-26604361D02*
X82404135Y-26604361D01*
X82404135Y-26604361D02*
X82707706Y-26461504D01*
X82707706Y-26461504D02*
X82868421Y-26318646D01*
X84689850Y-26604361D02*
X84421992Y-26461504D01*
X84421992Y-26461504D02*
X84314850Y-26175789D01*
X84314850Y-26175789D02*
X84636278Y-23604361D01*
X85654136Y-24604361D02*
X86796993Y-24604361D01*
X86207707Y-23604361D02*
X85886279Y-26175789D01*
X85886279Y-26175789D02*
X85993421Y-26461504D01*
X85993421Y-26461504D02*
X86261279Y-26604361D01*
X86261279Y-26604361D02*
X86546993Y-26604361D01*
X89796993Y-25747218D02*
X91225564Y-25747218D01*
X89404136Y-26604361D02*
X90779136Y-23604361D01*
X90779136Y-23604361D02*
X91404136Y-26604361D01*
X92225565Y-24604361D02*
X93368422Y-24604361D01*
X92404136Y-26604361D02*
X92725565Y-24032932D01*
X92725565Y-24032932D02*
X92904136Y-23747218D01*
X92904136Y-23747218D02*
X93207708Y-23604361D01*
X93207708Y-23604361D02*
X93493422Y-23604361D01*
X94118422Y-26604361D02*
X94368422Y-24604361D01*
X94296994Y-25175789D02*
X94475565Y-24890075D01*
X94475565Y-24890075D02*
X94636279Y-24747218D01*
X94636279Y-24747218D02*
X94939851Y-24604361D01*
X94939851Y-24604361D02*
X95225565Y-24604361D01*
X95975565Y-26604361D02*
X96225565Y-24604361D01*
X96350565Y-23604361D02*
X96189851Y-23747218D01*
X96189851Y-23747218D02*
X96314851Y-23890075D01*
X96314851Y-23890075D02*
X96475565Y-23747218D01*
X96475565Y-23747218D02*
X96350565Y-23604361D01*
X96350565Y-23604361D02*
X96314851Y-23890075D01*
X98707708Y-26461504D02*
X98404136Y-26604361D01*
X98404136Y-26604361D02*
X97832708Y-26604361D01*
X97832708Y-26604361D02*
X97564850Y-26461504D01*
X97564850Y-26461504D02*
X97439850Y-26318646D01*
X97439850Y-26318646D02*
X97332708Y-26032932D01*
X97332708Y-26032932D02*
X97439850Y-25175789D01*
X97439850Y-25175789D02*
X97618422Y-24890075D01*
X97618422Y-24890075D02*
X97779136Y-24747218D01*
X97779136Y-24747218D02*
X98082708Y-24604361D01*
X98082708Y-24604361D02*
X98654136Y-24604361D01*
X98654136Y-24604361D02*
X98921993Y-24747218D01*
X101261279Y-26604361D02*
X101457708Y-25032932D01*
X101457708Y-25032932D02*
X101350565Y-24747218D01*
X101350565Y-24747218D02*
X101082708Y-24604361D01*
X101082708Y-24604361D02*
X100511279Y-24604361D01*
X100511279Y-24604361D02*
X100207708Y-24747218D01*
X101279137Y-26461504D02*
X100975565Y-26604361D01*
X100975565Y-26604361D02*
X100261279Y-26604361D01*
X100261279Y-26604361D02*
X99993422Y-26461504D01*
X99993422Y-26461504D02*
X99886279Y-26175789D01*
X99886279Y-26175789D02*
X99921994Y-25890075D01*
X99921994Y-25890075D02*
X100100565Y-25604361D01*
X100100565Y-25604361D02*
X100404137Y-25461504D01*
X100404137Y-25461504D02*
X101118422Y-25461504D01*
X101118422Y-25461504D02*
X101421994Y-25318646D01*
X106404137Y-26604361D02*
X104975565Y-26604361D01*
X104975565Y-26604361D02*
X105350565Y-23604361D01*
X107404136Y-26604361D02*
X107654136Y-24604361D01*
X107779136Y-23604361D02*
X107618422Y-23747218D01*
X107618422Y-23747218D02*
X107743422Y-23890075D01*
X107743422Y-23890075D02*
X107904136Y-23747218D01*
X107904136Y-23747218D02*
X107779136Y-23604361D01*
X107779136Y-23604361D02*
X107743422Y-23890075D01*
X108832707Y-26604361D02*
X109082707Y-24604361D01*
X109046993Y-24890075D02*
X109207707Y-24747218D01*
X109207707Y-24747218D02*
X109511279Y-24604361D01*
X109511279Y-24604361D02*
X109939850Y-24604361D01*
X109939850Y-24604361D02*
X110207707Y-24747218D01*
X110207707Y-24747218D02*
X110314850Y-25032932D01*
X110314850Y-25032932D02*
X110118421Y-26604361D01*
X110314850Y-25032932D02*
X110493421Y-24747218D01*
X110493421Y-24747218D02*
X110796993Y-24604361D01*
X110796993Y-24604361D02*
X111225564Y-24604361D01*
X111225564Y-24604361D02*
X111493421Y-24747218D01*
X111493421Y-24747218D02*
X111600564Y-25032932D01*
X111600564Y-25032932D02*
X111404136Y-26604361D01*
X112832707Y-26604361D02*
X113082707Y-24604361D01*
X113207707Y-23604361D02*
X113046993Y-23747218D01*
X113046993Y-23747218D02*
X113171993Y-23890075D01*
X113171993Y-23890075D02*
X113332707Y-23747218D01*
X113332707Y-23747218D02*
X113207707Y-23604361D01*
X113207707Y-23604361D02*
X113171993Y-23890075D01*
X114082707Y-24604361D02*
X115225564Y-24604361D01*
X114636278Y-23604361D02*
X114314850Y-26175789D01*
X114314850Y-26175789D02*
X114421992Y-26461504D01*
X114421992Y-26461504D02*
X114689850Y-26604361D01*
X114689850Y-26604361D02*
X114975564Y-26604361D01*
X117136278Y-26461504D02*
X116832707Y-26604361D01*
X116832707Y-26604361D02*
X116261278Y-26604361D01*
X116261278Y-26604361D02*
X115993421Y-26461504D01*
X115993421Y-26461504D02*
X115886278Y-26175789D01*
X115886278Y-26175789D02*
X116029136Y-25032932D01*
X116029136Y-25032932D02*
X116207707Y-24747218D01*
X116207707Y-24747218D02*
X116511278Y-24604361D01*
X116511278Y-24604361D02*
X117082707Y-24604361D01*
X117082707Y-24604361D02*
X117350564Y-24747218D01*
X117350564Y-24747218D02*
X117457707Y-25032932D01*
X117457707Y-25032932D02*
X117421993Y-25318646D01*
X117421993Y-25318646D02*
X115957707Y-25604361D01*
X119832707Y-26604361D02*
X120207707Y-23604361D01*
X119850565Y-26461504D02*
X119546993Y-26604361D01*
X119546993Y-26604361D02*
X118975565Y-26604361D01*
X118975565Y-26604361D02*
X118707707Y-26461504D01*
X118707707Y-26461504D02*
X118582707Y-26318646D01*
X118582707Y-26318646D02*
X118475565Y-26032932D01*
X118475565Y-26032932D02*
X118582707Y-25175789D01*
X118582707Y-25175789D02*
X118761279Y-24890075D01*
X118761279Y-24890075D02*
X118921993Y-24747218D01*
X118921993Y-24747218D02*
X119225565Y-24604361D01*
X119225565Y-24604361D02*
X119796993Y-24604361D01*
X119796993Y-24604361D02*
X120064850Y-24747218D01*
X70600562Y-29862764D02*
X71600562Y-29862764D01*
X71832705Y-31434193D02*
X70404133Y-31434193D01*
X70404133Y-31434193D02*
X70779133Y-28434193D01*
X70779133Y-28434193D02*
X72207705Y-28434193D01*
X73368419Y-29434193D02*
X73118419Y-31434193D01*
X73332705Y-29719907D02*
X73493419Y-29577050D01*
X73493419Y-29577050D02*
X73796991Y-29434193D01*
X73796991Y-29434193D02*
X74225562Y-29434193D01*
X74225562Y-29434193D02*
X74493419Y-29577050D01*
X74493419Y-29577050D02*
X74600562Y-29862764D01*
X74600562Y-29862764D02*
X74404133Y-31434193D01*
X77118419Y-31434193D02*
X77314848Y-29862764D01*
X77314848Y-29862764D02*
X77207705Y-29577050D01*
X77207705Y-29577050D02*
X76939848Y-29434193D01*
X76939848Y-29434193D02*
X76368419Y-29434193D01*
X76368419Y-29434193D02*
X76064848Y-29577050D01*
X77136277Y-31291336D02*
X76832705Y-31434193D01*
X76832705Y-31434193D02*
X76118419Y-31434193D01*
X76118419Y-31434193D02*
X75850562Y-31291336D01*
X75850562Y-31291336D02*
X75743419Y-31005621D01*
X75743419Y-31005621D02*
X75779134Y-30719907D01*
X75779134Y-30719907D02*
X75957705Y-30434193D01*
X75957705Y-30434193D02*
X76261277Y-30291336D01*
X76261277Y-30291336D02*
X76975562Y-30291336D01*
X76975562Y-30291336D02*
X77279134Y-30148478D01*
X79850563Y-31291336D02*
X79546991Y-31434193D01*
X79546991Y-31434193D02*
X78975563Y-31434193D01*
X78975563Y-31434193D02*
X78707705Y-31291336D01*
X78707705Y-31291336D02*
X78582705Y-31148478D01*
X78582705Y-31148478D02*
X78475563Y-30862764D01*
X78475563Y-30862764D02*
X78582705Y-30005621D01*
X78582705Y-30005621D02*
X78761277Y-29719907D01*
X78761277Y-29719907D02*
X78921991Y-29577050D01*
X78921991Y-29577050D02*
X79225563Y-29434193D01*
X79225563Y-29434193D02*
X79796991Y-29434193D01*
X79796991Y-29434193D02*
X80064848Y-29577050D01*
X82421992Y-31291336D02*
X82118420Y-31434193D01*
X82118420Y-31434193D02*
X81546992Y-31434193D01*
X81546992Y-31434193D02*
X81279134Y-31291336D01*
X81279134Y-31291336D02*
X81154134Y-31148478D01*
X81154134Y-31148478D02*
X81046992Y-30862764D01*
X81046992Y-30862764D02*
X81154134Y-30005621D01*
X81154134Y-30005621D02*
X81332706Y-29719907D01*
X81332706Y-29719907D02*
X81493420Y-29577050D01*
X81493420Y-29577050D02*
X81796992Y-29434193D01*
X81796992Y-29434193D02*
X82368420Y-29434193D01*
X82368420Y-29434193D02*
X82636277Y-29577050D01*
X84850563Y-31291336D02*
X84546992Y-31434193D01*
X84546992Y-31434193D02*
X83975563Y-31434193D01*
X83975563Y-31434193D02*
X83707706Y-31291336D01*
X83707706Y-31291336D02*
X83600563Y-31005621D01*
X83600563Y-31005621D02*
X83743421Y-29862764D01*
X83743421Y-29862764D02*
X83921992Y-29577050D01*
X83921992Y-29577050D02*
X84225563Y-29434193D01*
X84225563Y-29434193D02*
X84796992Y-29434193D01*
X84796992Y-29434193D02*
X85064849Y-29577050D01*
X85064849Y-29577050D02*
X85171992Y-29862764D01*
X85171992Y-29862764D02*
X85136278Y-30148478D01*
X85136278Y-30148478D02*
X83671992Y-30434193D01*
X86136278Y-31291336D02*
X86404135Y-31434193D01*
X86404135Y-31434193D02*
X86975564Y-31434193D01*
X86975564Y-31434193D02*
X87279135Y-31291336D01*
X87279135Y-31291336D02*
X87457707Y-31005621D01*
X87457707Y-31005621D02*
X87475564Y-30862764D01*
X87475564Y-30862764D02*
X87368421Y-30577050D01*
X87368421Y-30577050D02*
X87100564Y-30434193D01*
X87100564Y-30434193D02*
X86671992Y-30434193D01*
X86671992Y-30434193D02*
X86404135Y-30291336D01*
X86404135Y-30291336D02*
X86296992Y-30005621D01*
X86296992Y-30005621D02*
X86314850Y-29862764D01*
X86314850Y-29862764D02*
X86493421Y-29577050D01*
X86493421Y-29577050D02*
X86796992Y-29434193D01*
X86796992Y-29434193D02*
X87225564Y-29434193D01*
X87225564Y-29434193D02*
X87493421Y-29577050D01*
X88564849Y-31291336D02*
X88832706Y-31434193D01*
X88832706Y-31434193D02*
X89404135Y-31434193D01*
X89404135Y-31434193D02*
X89707706Y-31291336D01*
X89707706Y-31291336D02*
X89886278Y-31005621D01*
X89886278Y-31005621D02*
X89904135Y-30862764D01*
X89904135Y-30862764D02*
X89796992Y-30577050D01*
X89796992Y-30577050D02*
X89529135Y-30434193D01*
X89529135Y-30434193D02*
X89100563Y-30434193D01*
X89100563Y-30434193D02*
X88832706Y-30291336D01*
X88832706Y-30291336D02*
X88725563Y-30005621D01*
X88725563Y-30005621D02*
X88743421Y-29862764D01*
X88743421Y-29862764D02*
X88921992Y-29577050D01*
X88921992Y-29577050D02*
X89225563Y-29434193D01*
X89225563Y-29434193D02*
X89654135Y-29434193D01*
X89654135Y-29434193D02*
X89921992Y-29577050D01*
X94600563Y-29862764D02*
X93600563Y-29862764D01*
X93404134Y-31434193D02*
X93779134Y-28434193D01*
X93779134Y-28434193D02*
X95207706Y-28434193D01*
X96404135Y-31434193D02*
X96136277Y-31291336D01*
X96136277Y-31291336D02*
X96011277Y-31148478D01*
X96011277Y-31148478D02*
X95904135Y-30862764D01*
X95904135Y-30862764D02*
X96011277Y-30005621D01*
X96011277Y-30005621D02*
X96189849Y-29719907D01*
X96189849Y-29719907D02*
X96350563Y-29577050D01*
X96350563Y-29577050D02*
X96654135Y-29434193D01*
X96654135Y-29434193D02*
X97082706Y-29434193D01*
X97082706Y-29434193D02*
X97350563Y-29577050D01*
X97350563Y-29577050D02*
X97475563Y-29719907D01*
X97475563Y-29719907D02*
X97582706Y-30005621D01*
X97582706Y-30005621D02*
X97475563Y-30862764D01*
X97475563Y-30862764D02*
X97296992Y-31148478D01*
X97296992Y-31148478D02*
X97136277Y-31291336D01*
X97136277Y-31291336D02*
X96832706Y-31434193D01*
X96832706Y-31434193D02*
X96404135Y-31434193D01*
X100225563Y-29434193D02*
X99975563Y-31434193D01*
X98939849Y-29434193D02*
X98743421Y-31005621D01*
X98743421Y-31005621D02*
X98850563Y-31291336D01*
X98850563Y-31291336D02*
X99118421Y-31434193D01*
X99118421Y-31434193D02*
X99546992Y-31434193D01*
X99546992Y-31434193D02*
X99850563Y-31291336D01*
X99850563Y-31291336D02*
X100011278Y-31148478D01*
X101654135Y-29434193D02*
X101404135Y-31434193D01*
X101618421Y-29719907D02*
X101779135Y-29577050D01*
X101779135Y-29577050D02*
X102082707Y-29434193D01*
X102082707Y-29434193D02*
X102511278Y-29434193D01*
X102511278Y-29434193D02*
X102779135Y-29577050D01*
X102779135Y-29577050D02*
X102886278Y-29862764D01*
X102886278Y-29862764D02*
X102689849Y-31434193D01*
X105404135Y-31434193D02*
X105779135Y-28434193D01*
X105421993Y-31291336D02*
X105118421Y-31434193D01*
X105118421Y-31434193D02*
X104546993Y-31434193D01*
X104546993Y-31434193D02*
X104279135Y-31291336D01*
X104279135Y-31291336D02*
X104154135Y-31148478D01*
X104154135Y-31148478D02*
X104046993Y-30862764D01*
X104046993Y-30862764D02*
X104154135Y-30005621D01*
X104154135Y-30005621D02*
X104332707Y-29719907D01*
X104332707Y-29719907D02*
X104493421Y-29577050D01*
X104493421Y-29577050D02*
X104796993Y-29434193D01*
X104796993Y-29434193D02*
X105368421Y-29434193D01*
X105368421Y-29434193D02*
X105636278Y-29577050D01*
X108118421Y-31434193D02*
X108314850Y-29862764D01*
X108314850Y-29862764D02*
X108207707Y-29577050D01*
X108207707Y-29577050D02*
X107939850Y-29434193D01*
X107939850Y-29434193D02*
X107368421Y-29434193D01*
X107368421Y-29434193D02*
X107064850Y-29577050D01*
X108136279Y-31291336D02*
X107832707Y-31434193D01*
X107832707Y-31434193D02*
X107118421Y-31434193D01*
X107118421Y-31434193D02*
X106850564Y-31291336D01*
X106850564Y-31291336D02*
X106743421Y-31005621D01*
X106743421Y-31005621D02*
X106779136Y-30719907D01*
X106779136Y-30719907D02*
X106957707Y-30434193D01*
X106957707Y-30434193D02*
X107261279Y-30291336D01*
X107261279Y-30291336D02*
X107975564Y-30291336D01*
X107975564Y-30291336D02*
X108279136Y-30148478D01*
X109368422Y-29434193D02*
X110511279Y-29434193D01*
X109921993Y-28434193D02*
X109600565Y-31005621D01*
X109600565Y-31005621D02*
X109707707Y-31291336D01*
X109707707Y-31291336D02*
X109975565Y-31434193D01*
X109975565Y-31434193D02*
X110261279Y-31434193D01*
X111261279Y-31434193D02*
X111511279Y-29434193D01*
X111636279Y-28434193D02*
X111475565Y-28577050D01*
X111475565Y-28577050D02*
X111600565Y-28719907D01*
X111600565Y-28719907D02*
X111761279Y-28577050D01*
X111761279Y-28577050D02*
X111636279Y-28434193D01*
X111636279Y-28434193D02*
X111600565Y-28719907D01*
X113118422Y-31434193D02*
X112850564Y-31291336D01*
X112850564Y-31291336D02*
X112725564Y-31148478D01*
X112725564Y-31148478D02*
X112618422Y-30862764D01*
X112618422Y-30862764D02*
X112725564Y-30005621D01*
X112725564Y-30005621D02*
X112904136Y-29719907D01*
X112904136Y-29719907D02*
X113064850Y-29577050D01*
X113064850Y-29577050D02*
X113368422Y-29434193D01*
X113368422Y-29434193D02*
X113796993Y-29434193D01*
X113796993Y-29434193D02*
X114064850Y-29577050D01*
X114064850Y-29577050D02*
X114189850Y-29719907D01*
X114189850Y-29719907D02*
X114296993Y-30005621D01*
X114296993Y-30005621D02*
X114189850Y-30862764D01*
X114189850Y-30862764D02*
X114011279Y-31148478D01*
X114011279Y-31148478D02*
X113850564Y-31291336D01*
X113850564Y-31291336D02*
X113546993Y-31434193D01*
X113546993Y-31434193D02*
X113118422Y-31434193D01*
X115654136Y-29434193D02*
X115404136Y-31434193D01*
X115618422Y-29719907D02*
X115779136Y-29577050D01*
X115779136Y-29577050D02*
X116082708Y-29434193D01*
X116082708Y-29434193D02*
X116511279Y-29434193D01*
X116511279Y-29434193D02*
X116779136Y-29577050D01*
X116779136Y-29577050D02*
X116886279Y-29862764D01*
X116886279Y-29862764D02*
X116689850Y-31434193D01*
X56689849Y-36264025D02*
X57064849Y-33264025D01*
X57064849Y-33264025D02*
X58207706Y-33264025D01*
X58207706Y-33264025D02*
X58475563Y-33406882D01*
X58475563Y-33406882D02*
X58600563Y-33549739D01*
X58600563Y-33549739D02*
X58707706Y-33835453D01*
X58707706Y-33835453D02*
X58654135Y-34264025D01*
X58654135Y-34264025D02*
X58475563Y-34549739D01*
X58475563Y-34549739D02*
X58314849Y-34692596D01*
X58314849Y-34692596D02*
X58011278Y-34835453D01*
X58011278Y-34835453D02*
X56868421Y-34835453D01*
X59689849Y-36264025D02*
X59939849Y-34264025D01*
X59868421Y-34835453D02*
X60046992Y-34549739D01*
X60046992Y-34549739D02*
X60207706Y-34406882D01*
X60207706Y-34406882D02*
X60511278Y-34264025D01*
X60511278Y-34264025D02*
X60796992Y-34264025D01*
X61975564Y-36264025D02*
X61707706Y-36121168D01*
X61707706Y-36121168D02*
X61582706Y-35978310D01*
X61582706Y-35978310D02*
X61475564Y-35692596D01*
X61475564Y-35692596D02*
X61582706Y-34835453D01*
X61582706Y-34835453D02*
X61761278Y-34549739D01*
X61761278Y-34549739D02*
X61921992Y-34406882D01*
X61921992Y-34406882D02*
X62225564Y-34264025D01*
X62225564Y-34264025D02*
X62654135Y-34264025D01*
X62654135Y-34264025D02*
X62921992Y-34406882D01*
X62921992Y-34406882D02*
X63046992Y-34549739D01*
X63046992Y-34549739D02*
X63154135Y-34835453D01*
X63154135Y-34835453D02*
X63046992Y-35692596D01*
X63046992Y-35692596D02*
X62868421Y-35978310D01*
X62868421Y-35978310D02*
X62707706Y-36121168D01*
X62707706Y-36121168D02*
X62404135Y-36264025D01*
X62404135Y-36264025D02*
X61975564Y-36264025D01*
X64511278Y-34264025D02*
X64189850Y-36835453D01*
X64189850Y-36835453D02*
X64011278Y-37121168D01*
X64011278Y-37121168D02*
X63707707Y-37264025D01*
X63707707Y-37264025D02*
X63564850Y-37264025D01*
X64636278Y-33264025D02*
X64475564Y-33406882D01*
X64475564Y-33406882D02*
X64600564Y-33549739D01*
X64600564Y-33549739D02*
X64761278Y-33406882D01*
X64761278Y-33406882D02*
X64636278Y-33264025D01*
X64636278Y-33264025D02*
X64600564Y-33549739D01*
X66850563Y-36121168D02*
X66546992Y-36264025D01*
X66546992Y-36264025D02*
X65975563Y-36264025D01*
X65975563Y-36264025D02*
X65707706Y-36121168D01*
X65707706Y-36121168D02*
X65600563Y-35835453D01*
X65600563Y-35835453D02*
X65743421Y-34692596D01*
X65743421Y-34692596D02*
X65921992Y-34406882D01*
X65921992Y-34406882D02*
X66225563Y-34264025D01*
X66225563Y-34264025D02*
X66796992Y-34264025D01*
X66796992Y-34264025D02*
X67064849Y-34406882D01*
X67064849Y-34406882D02*
X67171992Y-34692596D01*
X67171992Y-34692596D02*
X67136278Y-34978310D01*
X67136278Y-34978310D02*
X65671992Y-35264025D01*
X69564850Y-36121168D02*
X69261278Y-36264025D01*
X69261278Y-36264025D02*
X68689850Y-36264025D01*
X68689850Y-36264025D02*
X68421992Y-36121168D01*
X68421992Y-36121168D02*
X68296992Y-35978310D01*
X68296992Y-35978310D02*
X68189850Y-35692596D01*
X68189850Y-35692596D02*
X68296992Y-34835453D01*
X68296992Y-34835453D02*
X68475564Y-34549739D01*
X68475564Y-34549739D02*
X68636278Y-34406882D01*
X68636278Y-34406882D02*
X68939850Y-34264025D01*
X68939850Y-34264025D02*
X69511278Y-34264025D01*
X69511278Y-34264025D02*
X69779135Y-34406882D01*
X70654136Y-34264025D02*
X71796993Y-34264025D01*
X71207707Y-33264025D02*
X70886279Y-35835453D01*
X70886279Y-35835453D02*
X70993421Y-36121168D01*
X70993421Y-36121168D02*
X71261279Y-36264025D01*
X71261279Y-36264025D02*
X71546993Y-36264025D01*
X74832707Y-36264025D02*
X75207707Y-33264025D01*
X75207707Y-33264025D02*
X76546993Y-36264025D01*
X76546993Y-36264025D02*
X76921993Y-33264025D01*
X79261278Y-36264025D02*
X79457707Y-34692596D01*
X79457707Y-34692596D02*
X79350564Y-34406882D01*
X79350564Y-34406882D02*
X79082707Y-34264025D01*
X79082707Y-34264025D02*
X78511278Y-34264025D01*
X78511278Y-34264025D02*
X78207707Y-34406882D01*
X79279136Y-36121168D02*
X78975564Y-36264025D01*
X78975564Y-36264025D02*
X78261278Y-36264025D01*
X78261278Y-36264025D02*
X77993421Y-36121168D01*
X77993421Y-36121168D02*
X77886278Y-35835453D01*
X77886278Y-35835453D02*
X77921993Y-35549739D01*
X77921993Y-35549739D02*
X78100564Y-35264025D01*
X78100564Y-35264025D02*
X78404136Y-35121168D01*
X78404136Y-35121168D02*
X79118421Y-35121168D01*
X79118421Y-35121168D02*
X79421993Y-34978310D01*
X80689850Y-36264025D02*
X80939850Y-34264025D01*
X80904136Y-34549739D02*
X81064850Y-34406882D01*
X81064850Y-34406882D02*
X81368422Y-34264025D01*
X81368422Y-34264025D02*
X81796993Y-34264025D01*
X81796993Y-34264025D02*
X82064850Y-34406882D01*
X82064850Y-34406882D02*
X82171993Y-34692596D01*
X82171993Y-34692596D02*
X81975564Y-36264025D01*
X82171993Y-34692596D02*
X82350564Y-34406882D01*
X82350564Y-34406882D02*
X82654136Y-34264025D01*
X82654136Y-34264025D02*
X83082707Y-34264025D01*
X83082707Y-34264025D02*
X83350564Y-34406882D01*
X83350564Y-34406882D02*
X83457707Y-34692596D01*
X83457707Y-34692596D02*
X83261279Y-36264025D01*
X85850564Y-36121168D02*
X85546993Y-36264025D01*
X85546993Y-36264025D02*
X84975564Y-36264025D01*
X84975564Y-36264025D02*
X84707707Y-36121168D01*
X84707707Y-36121168D02*
X84600564Y-35835453D01*
X84600564Y-35835453D02*
X84743422Y-34692596D01*
X84743422Y-34692596D02*
X84921993Y-34406882D01*
X84921993Y-34406882D02*
X85225564Y-34264025D01*
X85225564Y-34264025D02*
X85796993Y-34264025D01*
X85796993Y-34264025D02*
X86064850Y-34406882D01*
X86064850Y-34406882D02*
X86171993Y-34692596D01*
X86171993Y-34692596D02*
X86136279Y-34978310D01*
X86136279Y-34978310D02*
X84671993Y-35264025D01*
X87296993Y-35978310D02*
X87421993Y-36121168D01*
X87421993Y-36121168D02*
X87261279Y-36264025D01*
X87261279Y-36264025D02*
X87136279Y-36121168D01*
X87136279Y-36121168D02*
X87296993Y-35978310D01*
X87296993Y-35978310D02*
X87261279Y-36264025D01*
X87493422Y-34406882D02*
X87618422Y-34549739D01*
X87618422Y-34549739D02*
X87457708Y-34692596D01*
X87457708Y-34692596D02*
X87332708Y-34549739D01*
X87332708Y-34549739D02*
X87493422Y-34406882D01*
X87493422Y-34406882D02*
X87457708Y-34692596D01*
X92171993Y-34692596D02*
X91171993Y-34692596D01*
X90975564Y-36264025D02*
X91350564Y-33264025D01*
X91350564Y-33264025D02*
X92779136Y-33264025D01*
X94832707Y-36264025D02*
X95029136Y-34692596D01*
X95029136Y-34692596D02*
X94921993Y-34406882D01*
X94921993Y-34406882D02*
X94654136Y-34264025D01*
X94654136Y-34264025D02*
X94082707Y-34264025D01*
X94082707Y-34264025D02*
X93779136Y-34406882D01*
X94850565Y-36121168D02*
X94546993Y-36264025D01*
X94546993Y-36264025D02*
X93832707Y-36264025D01*
X93832707Y-36264025D02*
X93564850Y-36121168D01*
X93564850Y-36121168D02*
X93457707Y-35835453D01*
X93457707Y-35835453D02*
X93493422Y-35549739D01*
X93493422Y-35549739D02*
X93671993Y-35264025D01*
X93671993Y-35264025D02*
X93975565Y-35121168D01*
X93975565Y-35121168D02*
X94689850Y-35121168D01*
X94689850Y-35121168D02*
X94993422Y-34978310D01*
X96261279Y-36264025D02*
X96511279Y-34264025D01*
X96439851Y-34835453D02*
X96618422Y-34549739D01*
X96618422Y-34549739D02*
X96779136Y-34406882D01*
X96779136Y-34406882D02*
X97082708Y-34264025D01*
X97082708Y-34264025D02*
X97368422Y-34264025D01*
X98118422Y-36264025D02*
X98368422Y-34264025D01*
X98332708Y-34549739D02*
X98493422Y-34406882D01*
X98493422Y-34406882D02*
X98796994Y-34264025D01*
X98796994Y-34264025D02*
X99225565Y-34264025D01*
X99225565Y-34264025D02*
X99493422Y-34406882D01*
X99493422Y-34406882D02*
X99600565Y-34692596D01*
X99600565Y-34692596D02*
X99404136Y-36264025D01*
X99600565Y-34692596D02*
X99779136Y-34406882D01*
X99779136Y-34406882D02*
X100082708Y-34264025D01*
X100082708Y-34264025D02*
X100511279Y-34264025D01*
X100511279Y-34264025D02*
X100779136Y-34406882D01*
X100779136Y-34406882D02*
X100886279Y-34692596D01*
X100886279Y-34692596D02*
X100689851Y-36264025D01*
X103314851Y-34692596D02*
X102314851Y-34692596D01*
X102118422Y-36264025D02*
X102493422Y-33264025D01*
X102493422Y-33264025D02*
X103921994Y-33264025D01*
X104689851Y-36264025D02*
X104939851Y-34264025D01*
X104868423Y-34835453D02*
X105046994Y-34549739D01*
X105046994Y-34549739D02*
X105207708Y-34406882D01*
X105207708Y-34406882D02*
X105511280Y-34264025D01*
X105511280Y-34264025D02*
X105796994Y-34264025D01*
X107707708Y-36121168D02*
X107404137Y-36264025D01*
X107404137Y-36264025D02*
X106832708Y-36264025D01*
X106832708Y-36264025D02*
X106564851Y-36121168D01*
X106564851Y-36121168D02*
X106457708Y-35835453D01*
X106457708Y-35835453D02*
X106600566Y-34692596D01*
X106600566Y-34692596D02*
X106779137Y-34406882D01*
X106779137Y-34406882D02*
X107082708Y-34264025D01*
X107082708Y-34264025D02*
X107654137Y-34264025D01*
X107654137Y-34264025D02*
X107921994Y-34406882D01*
X107921994Y-34406882D02*
X108029137Y-34692596D01*
X108029137Y-34692596D02*
X107993423Y-34978310D01*
X107993423Y-34978310D02*
X106529137Y-35264025D01*
X110279137Y-36121168D02*
X109975566Y-36264025D01*
X109975566Y-36264025D02*
X109404137Y-36264025D01*
X109404137Y-36264025D02*
X109136280Y-36121168D01*
X109136280Y-36121168D02*
X109029137Y-35835453D01*
X109029137Y-35835453D02*
X109171995Y-34692596D01*
X109171995Y-34692596D02*
X109350566Y-34406882D01*
X109350566Y-34406882D02*
X109654137Y-34264025D01*
X109654137Y-34264025D02*
X110225566Y-34264025D01*
X110225566Y-34264025D02*
X110493423Y-34406882D01*
X110493423Y-34406882D02*
X110600566Y-34692596D01*
X110600566Y-34692596D02*
X110564852Y-34978310D01*
X110564852Y-34978310D02*
X109100566Y-35264025D01*
X111654138Y-34264025D02*
X113225566Y-34264025D01*
X113225566Y-34264025D02*
X111404138Y-36264025D01*
X111404138Y-36264025D02*
X112975566Y-36264025D01*
X115279137Y-36121168D02*
X114975566Y-36264025D01*
X114975566Y-36264025D02*
X114404137Y-36264025D01*
X114404137Y-36264025D02*
X114136280Y-36121168D01*
X114136280Y-36121168D02*
X114029137Y-35835453D01*
X114029137Y-35835453D02*
X114171995Y-34692596D01*
X114171995Y-34692596D02*
X114350566Y-34406882D01*
X114350566Y-34406882D02*
X114654137Y-34264025D01*
X114654137Y-34264025D02*
X115225566Y-34264025D01*
X115225566Y-34264025D02*
X115493423Y-34406882D01*
X115493423Y-34406882D02*
X115600566Y-34692596D01*
X115600566Y-34692596D02*
X115564852Y-34978310D01*
X115564852Y-34978310D02*
X114100566Y-35264025D01*
X118850566Y-36121168D02*
X119261280Y-36264025D01*
X119261280Y-36264025D02*
X119975566Y-36264025D01*
X119975566Y-36264025D02*
X120279138Y-36121168D01*
X120279138Y-36121168D02*
X120439852Y-35978310D01*
X120439852Y-35978310D02*
X120618423Y-35692596D01*
X120618423Y-35692596D02*
X120654138Y-35406882D01*
X120654138Y-35406882D02*
X120546995Y-35121168D01*
X120546995Y-35121168D02*
X120421995Y-34978310D01*
X120421995Y-34978310D02*
X120154138Y-34835453D01*
X120154138Y-34835453D02*
X119600566Y-34692596D01*
X119600566Y-34692596D02*
X119332709Y-34549739D01*
X119332709Y-34549739D02*
X119207709Y-34406882D01*
X119207709Y-34406882D02*
X119100566Y-34121168D01*
X119100566Y-34121168D02*
X119136280Y-33835453D01*
X119136280Y-33835453D02*
X119314852Y-33549739D01*
X119314852Y-33549739D02*
X119475566Y-33406882D01*
X119475566Y-33406882D02*
X119779138Y-33264025D01*
X119779138Y-33264025D02*
X120493423Y-33264025D01*
X120493423Y-33264025D02*
X120904138Y-33406882D01*
X121796995Y-34264025D02*
X122261281Y-36264025D01*
X123225566Y-34264025D02*
X122261281Y-36264025D01*
X122261281Y-36264025D02*
X121886281Y-36978310D01*
X121886281Y-36978310D02*
X121725566Y-37121168D01*
X121725566Y-37121168D02*
X121421995Y-37264025D01*
X123993423Y-36121168D02*
X124261280Y-36264025D01*
X124261280Y-36264025D02*
X124832709Y-36264025D01*
X124832709Y-36264025D02*
X125136280Y-36121168D01*
X125136280Y-36121168D02*
X125314852Y-35835453D01*
X125314852Y-35835453D02*
X125332709Y-35692596D01*
X125332709Y-35692596D02*
X125225566Y-35406882D01*
X125225566Y-35406882D02*
X124957709Y-35264025D01*
X124957709Y-35264025D02*
X124529137Y-35264025D01*
X124529137Y-35264025D02*
X124261280Y-35121168D01*
X124261280Y-35121168D02*
X124154137Y-34835453D01*
X124154137Y-34835453D02*
X124171995Y-34692596D01*
X124171995Y-34692596D02*
X124350566Y-34406882D01*
X124350566Y-34406882D02*
X124654137Y-34264025D01*
X124654137Y-34264025D02*
X125082709Y-34264025D01*
X125082709Y-34264025D02*
X125350566Y-34406882D01*
X126368423Y-34264025D02*
X127511280Y-34264025D01*
X126921994Y-33264025D02*
X126600566Y-35835453D01*
X126600566Y-35835453D02*
X126707708Y-36121168D01*
X126707708Y-36121168D02*
X126975566Y-36264025D01*
X126975566Y-36264025D02*
X127261280Y-36264025D01*
X129421994Y-36121168D02*
X129118423Y-36264025D01*
X129118423Y-36264025D02*
X128546994Y-36264025D01*
X128546994Y-36264025D02*
X128279137Y-36121168D01*
X128279137Y-36121168D02*
X128171994Y-35835453D01*
X128171994Y-35835453D02*
X128314852Y-34692596D01*
X128314852Y-34692596D02*
X128493423Y-34406882D01*
X128493423Y-34406882D02*
X128796994Y-34264025D01*
X128796994Y-34264025D02*
X129368423Y-34264025D01*
X129368423Y-34264025D02*
X129636280Y-34406882D01*
X129636280Y-34406882D02*
X129743423Y-34692596D01*
X129743423Y-34692596D02*
X129707709Y-34978310D01*
X129707709Y-34978310D02*
X128243423Y-35264025D01*
X130832709Y-36264025D02*
X131082709Y-34264025D01*
X131046995Y-34549739D02*
X131207709Y-34406882D01*
X131207709Y-34406882D02*
X131511281Y-34264025D01*
X131511281Y-34264025D02*
X131939852Y-34264025D01*
X131939852Y-34264025D02*
X132207709Y-34406882D01*
X132207709Y-34406882D02*
X132314852Y-34692596D01*
X132314852Y-34692596D02*
X132118423Y-36264025D01*
X132314852Y-34692596D02*
X132493423Y-34406882D01*
X132493423Y-34406882D02*
X132796995Y-34264025D01*
X132796995Y-34264025D02*
X133225566Y-34264025D01*
X133225566Y-34264025D02*
X133493423Y-34406882D01*
X133493423Y-34406882D02*
X133600566Y-34692596D01*
X133600566Y-34692596D02*
X133404138Y-36264025D01*
X72636276Y-38093857D02*
X73261276Y-41093857D01*
X73261276Y-41093857D02*
X74636276Y-38093857D01*
X76421990Y-40951000D02*
X76118419Y-41093857D01*
X76118419Y-41093857D02*
X75546990Y-41093857D01*
X75546990Y-41093857D02*
X75279133Y-40951000D01*
X75279133Y-40951000D02*
X75171990Y-40665285D01*
X75171990Y-40665285D02*
X75314848Y-39522428D01*
X75314848Y-39522428D02*
X75493419Y-39236714D01*
X75493419Y-39236714D02*
X75796990Y-39093857D01*
X75796990Y-39093857D02*
X76368419Y-39093857D01*
X76368419Y-39093857D02*
X76636276Y-39236714D01*
X76636276Y-39236714D02*
X76743419Y-39522428D01*
X76743419Y-39522428D02*
X76707705Y-39808142D01*
X76707705Y-39808142D02*
X75243419Y-40093857D01*
X77832705Y-41093857D02*
X78082705Y-39093857D01*
X78011277Y-39665285D02*
X78189848Y-39379571D01*
X78189848Y-39379571D02*
X78350562Y-39236714D01*
X78350562Y-39236714D02*
X78654134Y-39093857D01*
X78654134Y-39093857D02*
X78939848Y-39093857D01*
X79564848Y-40951000D02*
X79832705Y-41093857D01*
X79832705Y-41093857D02*
X80404134Y-41093857D01*
X80404134Y-41093857D02*
X80707705Y-40951000D01*
X80707705Y-40951000D02*
X80886277Y-40665285D01*
X80886277Y-40665285D02*
X80904134Y-40522428D01*
X80904134Y-40522428D02*
X80796991Y-40236714D01*
X80796991Y-40236714D02*
X80529134Y-40093857D01*
X80529134Y-40093857D02*
X80100562Y-40093857D01*
X80100562Y-40093857D02*
X79832705Y-39951000D01*
X79832705Y-39951000D02*
X79725562Y-39665285D01*
X79725562Y-39665285D02*
X79743420Y-39522428D01*
X79743420Y-39522428D02*
X79921991Y-39236714D01*
X79921991Y-39236714D02*
X80225562Y-39093857D01*
X80225562Y-39093857D02*
X80654134Y-39093857D01*
X80654134Y-39093857D02*
X80921991Y-39236714D01*
X82118419Y-41093857D02*
X82368419Y-39093857D01*
X82493419Y-38093857D02*
X82332705Y-38236714D01*
X82332705Y-38236714D02*
X82457705Y-38379571D01*
X82457705Y-38379571D02*
X82618419Y-38236714D01*
X82618419Y-38236714D02*
X82493419Y-38093857D01*
X82493419Y-38093857D02*
X82457705Y-38379571D01*
X83975562Y-41093857D02*
X83707704Y-40951000D01*
X83707704Y-40951000D02*
X83582704Y-40808142D01*
X83582704Y-40808142D02*
X83475562Y-40522428D01*
X83475562Y-40522428D02*
X83582704Y-39665285D01*
X83582704Y-39665285D02*
X83761276Y-39379571D01*
X83761276Y-39379571D02*
X83921990Y-39236714D01*
X83921990Y-39236714D02*
X84225562Y-39093857D01*
X84225562Y-39093857D02*
X84654133Y-39093857D01*
X84654133Y-39093857D02*
X84921990Y-39236714D01*
X84921990Y-39236714D02*
X85046990Y-39379571D01*
X85046990Y-39379571D02*
X85154133Y-39665285D01*
X85154133Y-39665285D02*
X85046990Y-40522428D01*
X85046990Y-40522428D02*
X84868419Y-40808142D01*
X84868419Y-40808142D02*
X84707704Y-40951000D01*
X84707704Y-40951000D02*
X84404133Y-41093857D01*
X84404133Y-41093857D02*
X83975562Y-41093857D01*
X86511276Y-39093857D02*
X86261276Y-41093857D01*
X86475562Y-39379571D02*
X86636276Y-39236714D01*
X86636276Y-39236714D02*
X86939848Y-39093857D01*
X86939848Y-39093857D02*
X87368419Y-39093857D01*
X87368419Y-39093857D02*
X87636276Y-39236714D01*
X87636276Y-39236714D02*
X87743419Y-39522428D01*
X87743419Y-39522428D02*
X87546990Y-41093857D01*
X92832705Y-41093857D02*
X91118419Y-41093857D01*
X91975562Y-41093857D02*
X92350562Y-38093857D01*
X92350562Y-38093857D02*
X92011276Y-38522428D01*
X92011276Y-38522428D02*
X91689848Y-38808142D01*
X91689848Y-38808142D02*
X91386276Y-38951000D01*
X94154133Y-40808142D02*
X94279133Y-40951000D01*
X94279133Y-40951000D02*
X94118419Y-41093857D01*
X94118419Y-41093857D02*
X93993419Y-40951000D01*
X93993419Y-40951000D02*
X94154133Y-40808142D01*
X94154133Y-40808142D02*
X94118419Y-41093857D01*
X96493419Y-38093857D02*
X96779133Y-38093857D01*
X96779133Y-38093857D02*
X97046990Y-38236714D01*
X97046990Y-38236714D02*
X97171990Y-38379571D01*
X97171990Y-38379571D02*
X97279133Y-38665285D01*
X97279133Y-38665285D02*
X97350562Y-39236714D01*
X97350562Y-39236714D02*
X97261276Y-39951000D01*
X97261276Y-39951000D02*
X97046990Y-40522428D01*
X97046990Y-40522428D02*
X96868419Y-40808142D01*
X96868419Y-40808142D02*
X96707704Y-40951000D01*
X96707704Y-40951000D02*
X96404133Y-41093857D01*
X96404133Y-41093857D02*
X96118419Y-41093857D01*
X96118419Y-41093857D02*
X95850562Y-40951000D01*
X95850562Y-40951000D02*
X95725562Y-40808142D01*
X95725562Y-40808142D02*
X95618419Y-40522428D01*
X95618419Y-40522428D02*
X95546990Y-39951000D01*
X95546990Y-39951000D02*
X95636276Y-39236714D01*
X95636276Y-39236714D02*
X95850562Y-38665285D01*
X95850562Y-38665285D02*
X96029133Y-38379571D01*
X96029133Y-38379571D02*
X96189847Y-38236714D01*
X96189847Y-38236714D02*
X96493419Y-38093857D01*
X98439847Y-40808142D02*
X98564847Y-40951000D01*
X98564847Y-40951000D02*
X98404133Y-41093857D01*
X98404133Y-41093857D02*
X98279133Y-40951000D01*
X98279133Y-40951000D02*
X98439847Y-40808142D01*
X98439847Y-40808142D02*
X98404133Y-41093857D01*
X100779133Y-38093857D02*
X101064847Y-38093857D01*
X101064847Y-38093857D02*
X101332704Y-38236714D01*
X101332704Y-38236714D02*
X101457704Y-38379571D01*
X101457704Y-38379571D02*
X101564847Y-38665285D01*
X101564847Y-38665285D02*
X101636276Y-39236714D01*
X101636276Y-39236714D02*
X101546990Y-39951000D01*
X101546990Y-39951000D02*
X101332704Y-40522428D01*
X101332704Y-40522428D02*
X101154133Y-40808142D01*
X101154133Y-40808142D02*
X100993418Y-40951000D01*
X100993418Y-40951000D02*
X100689847Y-41093857D01*
X100689847Y-41093857D02*
X100404133Y-41093857D01*
X100404133Y-41093857D02*
X100136276Y-40951000D01*
X100136276Y-40951000D02*
X100011276Y-40808142D01*
X100011276Y-40808142D02*
X99904133Y-40522428D01*
X99904133Y-40522428D02*
X99832704Y-39951000D01*
X99832704Y-39951000D02*
X99921990Y-39236714D01*
X99921990Y-39236714D02*
X100136276Y-38665285D01*
X100136276Y-38665285D02*
X100314847Y-38379571D01*
X100314847Y-38379571D02*
X100475561Y-38236714D01*
X100475561Y-38236714D02*
X100779133Y-38093857D01*
X102725561Y-40808142D02*
X102850561Y-40951000D01*
X102850561Y-40951000D02*
X102689847Y-41093857D01*
X102689847Y-41093857D02*
X102564847Y-40951000D01*
X102564847Y-40951000D02*
X102725561Y-40808142D01*
X102725561Y-40808142D02*
X102689847Y-41093857D01*
X105064847Y-38093857D02*
X105350561Y-38093857D01*
X105350561Y-38093857D02*
X105618418Y-38236714D01*
X105618418Y-38236714D02*
X105743418Y-38379571D01*
X105743418Y-38379571D02*
X105850561Y-38665285D01*
X105850561Y-38665285D02*
X105921990Y-39236714D01*
X105921990Y-39236714D02*
X105832704Y-39951000D01*
X105832704Y-39951000D02*
X105618418Y-40522428D01*
X105618418Y-40522428D02*
X105439847Y-40808142D01*
X105439847Y-40808142D02*
X105279132Y-40951000D01*
X105279132Y-40951000D02*
X104975561Y-41093857D01*
X104975561Y-41093857D02*
X104689847Y-41093857D01*
X104689847Y-41093857D02*
X104421990Y-40951000D01*
X104421990Y-40951000D02*
X104296990Y-40808142D01*
X104296990Y-40808142D02*
X104189847Y-40522428D01*
X104189847Y-40522428D02*
X104118418Y-39951000D01*
X104118418Y-39951000D02*
X104207704Y-39236714D01*
X104207704Y-39236714D02*
X104421990Y-38665285D01*
X104421990Y-38665285D02*
X104600561Y-38379571D01*
X104600561Y-38379571D02*
X104761275Y-38236714D01*
X104761275Y-38236714D02*
X105064847Y-38093857D01*
X69046991Y-162274529D02*
X69421991Y-159274529D01*
X69421991Y-159274529D02*
X70136277Y-159274529D01*
X70136277Y-159274529D02*
X70546991Y-159417386D01*
X70546991Y-159417386D02*
X70796991Y-159703100D01*
X70796991Y-159703100D02*
X70904134Y-159988814D01*
X70904134Y-159988814D02*
X70975563Y-160560243D01*
X70975563Y-160560243D02*
X70921991Y-160988814D01*
X70921991Y-160988814D02*
X70707705Y-161560243D01*
X70707705Y-161560243D02*
X70529134Y-161845957D01*
X70529134Y-161845957D02*
X70207705Y-162131672D01*
X70207705Y-162131672D02*
X69761277Y-162274529D01*
X69761277Y-162274529D02*
X69046991Y-162274529D01*
X73207705Y-162131672D02*
X72904134Y-162274529D01*
X72904134Y-162274529D02*
X72332705Y-162274529D01*
X72332705Y-162274529D02*
X72064848Y-162131672D01*
X72064848Y-162131672D02*
X71957705Y-161845957D01*
X71957705Y-161845957D02*
X72100563Y-160703100D01*
X72100563Y-160703100D02*
X72279134Y-160417386D01*
X72279134Y-160417386D02*
X72582705Y-160274529D01*
X72582705Y-160274529D02*
X73154134Y-160274529D01*
X73154134Y-160274529D02*
X73421991Y-160417386D01*
X73421991Y-160417386D02*
X73529134Y-160703100D01*
X73529134Y-160703100D02*
X73493420Y-160988814D01*
X73493420Y-160988814D02*
X72029134Y-161274529D01*
X74493420Y-162131672D02*
X74761277Y-162274529D01*
X74761277Y-162274529D02*
X75332706Y-162274529D01*
X75332706Y-162274529D02*
X75636277Y-162131672D01*
X75636277Y-162131672D02*
X75814849Y-161845957D01*
X75814849Y-161845957D02*
X75832706Y-161703100D01*
X75832706Y-161703100D02*
X75725563Y-161417386D01*
X75725563Y-161417386D02*
X75457706Y-161274529D01*
X75457706Y-161274529D02*
X75029134Y-161274529D01*
X75029134Y-161274529D02*
X74761277Y-161131672D01*
X74761277Y-161131672D02*
X74654134Y-160845957D01*
X74654134Y-160845957D02*
X74671992Y-160703100D01*
X74671992Y-160703100D02*
X74850563Y-160417386D01*
X74850563Y-160417386D02*
X75154134Y-160274529D01*
X75154134Y-160274529D02*
X75582706Y-160274529D01*
X75582706Y-160274529D02*
X75850563Y-160417386D01*
X77046991Y-162274529D02*
X77296991Y-160274529D01*
X77421991Y-159274529D02*
X77261277Y-159417386D01*
X77261277Y-159417386D02*
X77386277Y-159560243D01*
X77386277Y-159560243D02*
X77546991Y-159417386D01*
X77546991Y-159417386D02*
X77421991Y-159274529D01*
X77421991Y-159274529D02*
X77386277Y-159560243D01*
X80011276Y-160274529D02*
X79707705Y-162703100D01*
X79707705Y-162703100D02*
X79529134Y-162988814D01*
X79529134Y-162988814D02*
X79368419Y-163131672D01*
X79368419Y-163131672D02*
X79064848Y-163274529D01*
X79064848Y-163274529D02*
X78636276Y-163274529D01*
X78636276Y-163274529D02*
X78368419Y-163131672D01*
X79779134Y-162131672D02*
X79475562Y-162274529D01*
X79475562Y-162274529D02*
X78904134Y-162274529D01*
X78904134Y-162274529D02*
X78636276Y-162131672D01*
X78636276Y-162131672D02*
X78511276Y-161988814D01*
X78511276Y-161988814D02*
X78404134Y-161703100D01*
X78404134Y-161703100D02*
X78511276Y-160845957D01*
X78511276Y-160845957D02*
X78689848Y-160560243D01*
X78689848Y-160560243D02*
X78850562Y-160417386D01*
X78850562Y-160417386D02*
X79154134Y-160274529D01*
X79154134Y-160274529D02*
X79725562Y-160274529D01*
X79725562Y-160274529D02*
X79993419Y-160417386D01*
X81439848Y-160274529D02*
X81189848Y-162274529D01*
X81404134Y-160560243D02*
X81564848Y-160417386D01*
X81564848Y-160417386D02*
X81868420Y-160274529D01*
X81868420Y-160274529D02*
X82296991Y-160274529D01*
X82296991Y-160274529D02*
X82564848Y-160417386D01*
X82564848Y-160417386D02*
X82671991Y-160703100D01*
X82671991Y-160703100D02*
X82475562Y-162274529D01*
X85064848Y-162131672D02*
X84761277Y-162274529D01*
X84761277Y-162274529D02*
X84189848Y-162274529D01*
X84189848Y-162274529D02*
X83921991Y-162131672D01*
X83921991Y-162131672D02*
X83814848Y-161845957D01*
X83814848Y-161845957D02*
X83957706Y-160703100D01*
X83957706Y-160703100D02*
X84136277Y-160417386D01*
X84136277Y-160417386D02*
X84439848Y-160274529D01*
X84439848Y-160274529D02*
X85011277Y-160274529D01*
X85011277Y-160274529D02*
X85279134Y-160417386D01*
X85279134Y-160417386D02*
X85386277Y-160703100D01*
X85386277Y-160703100D02*
X85350563Y-160988814D01*
X85350563Y-160988814D02*
X83886277Y-161274529D01*
X87761277Y-162274529D02*
X88136277Y-159274529D01*
X87779135Y-162131672D02*
X87475563Y-162274529D01*
X87475563Y-162274529D02*
X86904135Y-162274529D01*
X86904135Y-162274529D02*
X86636277Y-162131672D01*
X86636277Y-162131672D02*
X86511277Y-161988814D01*
X86511277Y-161988814D02*
X86404135Y-161703100D01*
X86404135Y-161703100D02*
X86511277Y-160845957D01*
X86511277Y-160845957D02*
X86689849Y-160560243D01*
X86689849Y-160560243D02*
X86850563Y-160417386D01*
X86850563Y-160417386D02*
X87154135Y-160274529D01*
X87154135Y-160274529D02*
X87725563Y-160274529D01*
X87725563Y-160274529D02*
X87993420Y-160417386D01*
X92761277Y-162274529D02*
X92957706Y-160703100D01*
X92957706Y-160703100D02*
X92850563Y-160417386D01*
X92850563Y-160417386D02*
X92582706Y-160274529D01*
X92582706Y-160274529D02*
X92011277Y-160274529D01*
X92011277Y-160274529D02*
X91707706Y-160417386D01*
X92779135Y-162131672D02*
X92475563Y-162274529D01*
X92475563Y-162274529D02*
X91761277Y-162274529D01*
X91761277Y-162274529D02*
X91493420Y-162131672D01*
X91493420Y-162131672D02*
X91386277Y-161845957D01*
X91386277Y-161845957D02*
X91421992Y-161560243D01*
X91421992Y-161560243D02*
X91600563Y-161274529D01*
X91600563Y-161274529D02*
X91904135Y-161131672D01*
X91904135Y-161131672D02*
X92618420Y-161131672D01*
X92618420Y-161131672D02*
X92921992Y-160988814D01*
X94439849Y-160274529D02*
X94189849Y-162274529D01*
X94404135Y-160560243D02*
X94564849Y-160417386D01*
X94564849Y-160417386D02*
X94868421Y-160274529D01*
X94868421Y-160274529D02*
X95296992Y-160274529D01*
X95296992Y-160274529D02*
X95564849Y-160417386D01*
X95564849Y-160417386D02*
X95671992Y-160703100D01*
X95671992Y-160703100D02*
X95475563Y-162274529D01*
X98189849Y-162274529D02*
X98564849Y-159274529D01*
X98207707Y-162131672D02*
X97904135Y-162274529D01*
X97904135Y-162274529D02*
X97332707Y-162274529D01*
X97332707Y-162274529D02*
X97064849Y-162131672D01*
X97064849Y-162131672D02*
X96939849Y-161988814D01*
X96939849Y-161988814D02*
X96832707Y-161703100D01*
X96832707Y-161703100D02*
X96939849Y-160845957D01*
X96939849Y-160845957D02*
X97118421Y-160560243D01*
X97118421Y-160560243D02*
X97279135Y-160417386D01*
X97279135Y-160417386D02*
X97582707Y-160274529D01*
X97582707Y-160274529D02*
X98154135Y-160274529D01*
X98154135Y-160274529D02*
X98421992Y-160417386D01*
X101904135Y-162274529D02*
X102279135Y-159274529D01*
X102279135Y-159274529D02*
X102993421Y-159274529D01*
X102993421Y-159274529D02*
X103404135Y-159417386D01*
X103404135Y-159417386D02*
X103654135Y-159703100D01*
X103654135Y-159703100D02*
X103761278Y-159988814D01*
X103761278Y-159988814D02*
X103832707Y-160560243D01*
X103832707Y-160560243D02*
X103779135Y-160988814D01*
X103779135Y-160988814D02*
X103564849Y-161560243D01*
X103564849Y-161560243D02*
X103386278Y-161845957D01*
X103386278Y-161845957D02*
X103064849Y-162131672D01*
X103064849Y-162131672D02*
X102618421Y-162274529D01*
X102618421Y-162274529D02*
X101904135Y-162274529D01*
X106064849Y-162131672D02*
X105761278Y-162274529D01*
X105761278Y-162274529D02*
X105189849Y-162274529D01*
X105189849Y-162274529D02*
X104921992Y-162131672D01*
X104921992Y-162131672D02*
X104814849Y-161845957D01*
X104814849Y-161845957D02*
X104957707Y-160703100D01*
X104957707Y-160703100D02*
X105136278Y-160417386D01*
X105136278Y-160417386D02*
X105439849Y-160274529D01*
X105439849Y-160274529D02*
X106011278Y-160274529D01*
X106011278Y-160274529D02*
X106279135Y-160417386D01*
X106279135Y-160417386D02*
X106386278Y-160703100D01*
X106386278Y-160703100D02*
X106350564Y-160988814D01*
X106350564Y-160988814D02*
X104886278Y-161274529D01*
X107439850Y-160274529D02*
X107904136Y-162274529D01*
X107904136Y-162274529D02*
X108868421Y-160274529D01*
X110921992Y-162131672D02*
X110618421Y-162274529D01*
X110618421Y-162274529D02*
X110046992Y-162274529D01*
X110046992Y-162274529D02*
X109779135Y-162131672D01*
X109779135Y-162131672D02*
X109671992Y-161845957D01*
X109671992Y-161845957D02*
X109814850Y-160703100D01*
X109814850Y-160703100D02*
X109993421Y-160417386D01*
X109993421Y-160417386D02*
X110296992Y-160274529D01*
X110296992Y-160274529D02*
X110868421Y-160274529D01*
X110868421Y-160274529D02*
X111136278Y-160417386D01*
X111136278Y-160417386D02*
X111243421Y-160703100D01*
X111243421Y-160703100D02*
X111207707Y-160988814D01*
X111207707Y-160988814D02*
X109743421Y-161274529D01*
X112761279Y-162274529D02*
X112493421Y-162131672D01*
X112493421Y-162131672D02*
X112386279Y-161845957D01*
X112386279Y-161845957D02*
X112707707Y-159274529D01*
X114332708Y-162274529D02*
X114064850Y-162131672D01*
X114064850Y-162131672D02*
X113939850Y-161988814D01*
X113939850Y-161988814D02*
X113832708Y-161703100D01*
X113832708Y-161703100D02*
X113939850Y-160845957D01*
X113939850Y-160845957D02*
X114118422Y-160560243D01*
X114118422Y-160560243D02*
X114279136Y-160417386D01*
X114279136Y-160417386D02*
X114582708Y-160274529D01*
X114582708Y-160274529D02*
X115011279Y-160274529D01*
X115011279Y-160274529D02*
X115279136Y-160417386D01*
X115279136Y-160417386D02*
X115404136Y-160560243D01*
X115404136Y-160560243D02*
X115511279Y-160845957D01*
X115511279Y-160845957D02*
X115404136Y-161703100D01*
X115404136Y-161703100D02*
X115225565Y-161988814D01*
X115225565Y-161988814D02*
X115064850Y-162131672D01*
X115064850Y-162131672D02*
X114761279Y-162274529D01*
X114761279Y-162274529D02*
X114332708Y-162274529D01*
X116868422Y-160274529D02*
X116493422Y-163274529D01*
X116850565Y-160417386D02*
X117154136Y-160274529D01*
X117154136Y-160274529D02*
X117725565Y-160274529D01*
X117725565Y-160274529D02*
X117993422Y-160417386D01*
X117993422Y-160417386D02*
X118118422Y-160560243D01*
X118118422Y-160560243D02*
X118225565Y-160845957D01*
X118225565Y-160845957D02*
X118118422Y-161703100D01*
X118118422Y-161703100D02*
X117939851Y-161988814D01*
X117939851Y-161988814D02*
X117779136Y-162131672D01*
X117779136Y-162131672D02*
X117475565Y-162274529D01*
X117475565Y-162274529D02*
X116904136Y-162274529D01*
X116904136Y-162274529D02*
X116636279Y-162131672D01*
X120493422Y-162131672D02*
X120189851Y-162274529D01*
X120189851Y-162274529D02*
X119618422Y-162274529D01*
X119618422Y-162274529D02*
X119350565Y-162131672D01*
X119350565Y-162131672D02*
X119243422Y-161845957D01*
X119243422Y-161845957D02*
X119386280Y-160703100D01*
X119386280Y-160703100D02*
X119564851Y-160417386D01*
X119564851Y-160417386D02*
X119868422Y-160274529D01*
X119868422Y-160274529D02*
X120439851Y-160274529D01*
X120439851Y-160274529D02*
X120707708Y-160417386D01*
X120707708Y-160417386D02*
X120814851Y-160703100D01*
X120814851Y-160703100D02*
X120779137Y-160988814D01*
X120779137Y-160988814D02*
X119314851Y-161274529D01*
X123189851Y-162274529D02*
X123564851Y-159274529D01*
X123207709Y-162131672D02*
X122904137Y-162274529D01*
X122904137Y-162274529D02*
X122332709Y-162274529D01*
X122332709Y-162274529D02*
X122064851Y-162131672D01*
X122064851Y-162131672D02*
X121939851Y-161988814D01*
X121939851Y-161988814D02*
X121832709Y-161703100D01*
X121832709Y-161703100D02*
X121939851Y-160845957D01*
X121939851Y-160845957D02*
X122118423Y-160560243D01*
X122118423Y-160560243D02*
X122279137Y-160417386D01*
X122279137Y-160417386D02*
X122582709Y-160274529D01*
X122582709Y-160274529D02*
X123154137Y-160274529D01*
X123154137Y-160274529D02*
X123421994Y-160417386D01*
X128100566Y-160703100D02*
X128511280Y-160845957D01*
X128511280Y-160845957D02*
X128636280Y-160988814D01*
X128636280Y-160988814D02*
X128743423Y-161274529D01*
X128743423Y-161274529D02*
X128689851Y-161703100D01*
X128689851Y-161703100D02*
X128511280Y-161988814D01*
X128511280Y-161988814D02*
X128350566Y-162131672D01*
X128350566Y-162131672D02*
X128046994Y-162274529D01*
X128046994Y-162274529D02*
X126904137Y-162274529D01*
X126904137Y-162274529D02*
X127279137Y-159274529D01*
X127279137Y-159274529D02*
X128279137Y-159274529D01*
X128279137Y-159274529D02*
X128546994Y-159417386D01*
X128546994Y-159417386D02*
X128671994Y-159560243D01*
X128671994Y-159560243D02*
X128779137Y-159845957D01*
X128779137Y-159845957D02*
X128743423Y-160131672D01*
X128743423Y-160131672D02*
X128564851Y-160417386D01*
X128564851Y-160417386D02*
X128404137Y-160560243D01*
X128404137Y-160560243D02*
X128100566Y-160703100D01*
X128100566Y-160703100D02*
X127100566Y-160703100D01*
X129868423Y-160274529D02*
X130332709Y-162274529D01*
X131296994Y-160274529D02*
X130332709Y-162274529D01*
X130332709Y-162274529D02*
X129957709Y-162988814D01*
X129957709Y-162988814D02*
X129796994Y-163131672D01*
X129796994Y-163131672D02*
X129493423Y-163274529D01*
X132225565Y-161988814D02*
X132350565Y-162131672D01*
X132350565Y-162131672D02*
X132189851Y-162274529D01*
X132189851Y-162274529D02*
X132064851Y-162131672D01*
X132064851Y-162131672D02*
X132225565Y-161988814D01*
X132225565Y-161988814D02*
X132189851Y-162274529D01*
X132421994Y-160417386D02*
X132546994Y-160560243D01*
X132546994Y-160560243D02*
X132386280Y-160703100D01*
X132386280Y-160703100D02*
X132261280Y-160560243D01*
X132261280Y-160560243D02*
X132421994Y-160417386D01*
X132421994Y-160417386D02*
X132386280Y-160703100D01*
X70796991Y-166818646D02*
X70636277Y-166961504D01*
X70636277Y-166961504D02*
X70189848Y-167104361D01*
X70189848Y-167104361D02*
X69904134Y-167104361D01*
X69904134Y-167104361D02*
X69493420Y-166961504D01*
X69493420Y-166961504D02*
X69243420Y-166675789D01*
X69243420Y-166675789D02*
X69136277Y-166390075D01*
X69136277Y-166390075D02*
X69064848Y-165818646D01*
X69064848Y-165818646D02*
X69118420Y-165390075D01*
X69118420Y-165390075D02*
X69332705Y-164818646D01*
X69332705Y-164818646D02*
X69511277Y-164532932D01*
X69511277Y-164532932D02*
X69832705Y-164247218D01*
X69832705Y-164247218D02*
X70279134Y-164104361D01*
X70279134Y-164104361D02*
X70564848Y-164104361D01*
X70564848Y-164104361D02*
X70975563Y-164247218D01*
X70975563Y-164247218D02*
X71100563Y-164390075D01*
X72475563Y-167104361D02*
X72207705Y-166961504D01*
X72207705Y-166961504D02*
X72100563Y-166675789D01*
X72100563Y-166675789D02*
X72421991Y-164104361D01*
X73618420Y-167104361D02*
X73868420Y-165104361D01*
X73993420Y-164104361D02*
X73832706Y-164247218D01*
X73832706Y-164247218D02*
X73957706Y-164390075D01*
X73957706Y-164390075D02*
X74118420Y-164247218D01*
X74118420Y-164247218D02*
X73993420Y-164104361D01*
X73993420Y-164104361D02*
X73957706Y-164390075D01*
X75046991Y-167104361D02*
X75296991Y-165104361D01*
X75261277Y-165390075D02*
X75421991Y-165247218D01*
X75421991Y-165247218D02*
X75725563Y-165104361D01*
X75725563Y-165104361D02*
X76154134Y-165104361D01*
X76154134Y-165104361D02*
X76421991Y-165247218D01*
X76421991Y-165247218D02*
X76529134Y-165532932D01*
X76529134Y-165532932D02*
X76332705Y-167104361D01*
X76529134Y-165532932D02*
X76707705Y-165247218D01*
X76707705Y-165247218D02*
X77011277Y-165104361D01*
X77011277Y-165104361D02*
X77439848Y-165104361D01*
X77439848Y-165104361D02*
X77707705Y-165247218D01*
X77707705Y-165247218D02*
X77814848Y-165532932D01*
X77814848Y-165532932D02*
X77618420Y-167104361D01*
X80332705Y-167104361D02*
X80529134Y-165532932D01*
X80529134Y-165532932D02*
X80421991Y-165247218D01*
X80421991Y-165247218D02*
X80154134Y-165104361D01*
X80154134Y-165104361D02*
X79582705Y-165104361D01*
X79582705Y-165104361D02*
X79279134Y-165247218D01*
X80350563Y-166961504D02*
X80046991Y-167104361D01*
X80046991Y-167104361D02*
X79332705Y-167104361D01*
X79332705Y-167104361D02*
X79064848Y-166961504D01*
X79064848Y-166961504D02*
X78957705Y-166675789D01*
X78957705Y-166675789D02*
X78993420Y-166390075D01*
X78993420Y-166390075D02*
X79171991Y-166104361D01*
X79171991Y-166104361D02*
X79475563Y-165961504D01*
X79475563Y-165961504D02*
X80189848Y-165961504D01*
X80189848Y-165961504D02*
X80493420Y-165818646D01*
X81707706Y-164104361D02*
X82332706Y-167104361D01*
X82332706Y-167104361D02*
X83707706Y-164104361D01*
X85618420Y-167104361D02*
X85814849Y-165532932D01*
X85814849Y-165532932D02*
X85707706Y-165247218D01*
X85707706Y-165247218D02*
X85439849Y-165104361D01*
X85439849Y-165104361D02*
X84868420Y-165104361D01*
X84868420Y-165104361D02*
X84564849Y-165247218D01*
X85636278Y-166961504D02*
X85332706Y-167104361D01*
X85332706Y-167104361D02*
X84618420Y-167104361D01*
X84618420Y-167104361D02*
X84350563Y-166961504D01*
X84350563Y-166961504D02*
X84243420Y-166675789D01*
X84243420Y-166675789D02*
X84279135Y-166390075D01*
X84279135Y-166390075D02*
X84457706Y-166104361D01*
X84457706Y-166104361D02*
X84761278Y-165961504D01*
X84761278Y-165961504D02*
X85475563Y-165961504D01*
X85475563Y-165961504D02*
X85779135Y-165818646D01*
X88582706Y-165104361D02*
X88332706Y-167104361D01*
X87296992Y-165104361D02*
X87100564Y-166675789D01*
X87100564Y-166675789D02*
X87207706Y-166961504D01*
X87207706Y-166961504D02*
X87475564Y-167104361D01*
X87475564Y-167104361D02*
X87904135Y-167104361D01*
X87904135Y-167104361D02*
X88207706Y-166961504D01*
X88207706Y-166961504D02*
X88368421Y-166818646D01*
X90189850Y-167104361D02*
X89921992Y-166961504D01*
X89921992Y-166961504D02*
X89814850Y-166675789D01*
X89814850Y-166675789D02*
X90136278Y-164104361D01*
X91154136Y-165104361D02*
X92296993Y-165104361D01*
X91707707Y-164104361D02*
X91386279Y-166675789D01*
X91386279Y-166675789D02*
X91493421Y-166961504D01*
X91493421Y-166961504D02*
X91761279Y-167104361D01*
X91761279Y-167104361D02*
X92046993Y-167104361D01*
X95296993Y-166247218D02*
X96725564Y-166247218D01*
X94904136Y-167104361D02*
X96279136Y-164104361D01*
X96279136Y-164104361D02*
X96904136Y-167104361D01*
X97725565Y-165104361D02*
X98868422Y-165104361D01*
X97904136Y-167104361D02*
X98225565Y-164532932D01*
X98225565Y-164532932D02*
X98404136Y-164247218D01*
X98404136Y-164247218D02*
X98707708Y-164104361D01*
X98707708Y-164104361D02*
X98993422Y-164104361D01*
X99618422Y-167104361D02*
X99868422Y-165104361D01*
X99796994Y-165675789D02*
X99975565Y-165390075D01*
X99975565Y-165390075D02*
X100136279Y-165247218D01*
X100136279Y-165247218D02*
X100439851Y-165104361D01*
X100439851Y-165104361D02*
X100725565Y-165104361D01*
X101475565Y-167104361D02*
X101725565Y-165104361D01*
X101850565Y-164104361D02*
X101689851Y-164247218D01*
X101689851Y-164247218D02*
X101814851Y-164390075D01*
X101814851Y-164390075D02*
X101975565Y-164247218D01*
X101975565Y-164247218D02*
X101850565Y-164104361D01*
X101850565Y-164104361D02*
X101814851Y-164390075D01*
X104207708Y-166961504D02*
X103904136Y-167104361D01*
X103904136Y-167104361D02*
X103332708Y-167104361D01*
X103332708Y-167104361D02*
X103064850Y-166961504D01*
X103064850Y-166961504D02*
X102939850Y-166818646D01*
X102939850Y-166818646D02*
X102832708Y-166532932D01*
X102832708Y-166532932D02*
X102939850Y-165675789D01*
X102939850Y-165675789D02*
X103118422Y-165390075D01*
X103118422Y-165390075D02*
X103279136Y-165247218D01*
X103279136Y-165247218D02*
X103582708Y-165104361D01*
X103582708Y-165104361D02*
X104154136Y-165104361D01*
X104154136Y-165104361D02*
X104421993Y-165247218D01*
X106761279Y-167104361D02*
X106957708Y-165532932D01*
X106957708Y-165532932D02*
X106850565Y-165247218D01*
X106850565Y-165247218D02*
X106582708Y-165104361D01*
X106582708Y-165104361D02*
X106011279Y-165104361D01*
X106011279Y-165104361D02*
X105707708Y-165247218D01*
X106779137Y-166961504D02*
X106475565Y-167104361D01*
X106475565Y-167104361D02*
X105761279Y-167104361D01*
X105761279Y-167104361D02*
X105493422Y-166961504D01*
X105493422Y-166961504D02*
X105386279Y-166675789D01*
X105386279Y-166675789D02*
X105421994Y-166390075D01*
X105421994Y-166390075D02*
X105600565Y-166104361D01*
X105600565Y-166104361D02*
X105904137Y-165961504D01*
X105904137Y-165961504D02*
X106618422Y-165961504D01*
X106618422Y-165961504D02*
X106921994Y-165818646D01*
X111904137Y-167104361D02*
X110475565Y-167104361D01*
X110475565Y-167104361D02*
X110850565Y-164104361D01*
X112904136Y-167104361D02*
X113154136Y-165104361D01*
X113279136Y-164104361D02*
X113118422Y-164247218D01*
X113118422Y-164247218D02*
X113243422Y-164390075D01*
X113243422Y-164390075D02*
X113404136Y-164247218D01*
X113404136Y-164247218D02*
X113279136Y-164104361D01*
X113279136Y-164104361D02*
X113243422Y-164390075D01*
X114332707Y-167104361D02*
X114582707Y-165104361D01*
X114546993Y-165390075D02*
X114707707Y-165247218D01*
X114707707Y-165247218D02*
X115011279Y-165104361D01*
X115011279Y-165104361D02*
X115439850Y-165104361D01*
X115439850Y-165104361D02*
X115707707Y-165247218D01*
X115707707Y-165247218D02*
X115814850Y-165532932D01*
X115814850Y-165532932D02*
X115618421Y-167104361D01*
X115814850Y-165532932D02*
X115993421Y-165247218D01*
X115993421Y-165247218D02*
X116296993Y-165104361D01*
X116296993Y-165104361D02*
X116725564Y-165104361D01*
X116725564Y-165104361D02*
X116993421Y-165247218D01*
X116993421Y-165247218D02*
X117100564Y-165532932D01*
X117100564Y-165532932D02*
X116904136Y-167104361D01*
X118332707Y-167104361D02*
X118582707Y-165104361D01*
X118707707Y-164104361D02*
X118546993Y-164247218D01*
X118546993Y-164247218D02*
X118671993Y-164390075D01*
X118671993Y-164390075D02*
X118832707Y-164247218D01*
X118832707Y-164247218D02*
X118707707Y-164104361D01*
X118707707Y-164104361D02*
X118671993Y-164390075D01*
X119582707Y-165104361D02*
X120725564Y-165104361D01*
X120136278Y-164104361D02*
X119814850Y-166675789D01*
X119814850Y-166675789D02*
X119921992Y-166961504D01*
X119921992Y-166961504D02*
X120189850Y-167104361D01*
X120189850Y-167104361D02*
X120475564Y-167104361D01*
X122636278Y-166961504D02*
X122332707Y-167104361D01*
X122332707Y-167104361D02*
X121761278Y-167104361D01*
X121761278Y-167104361D02*
X121493421Y-166961504D01*
X121493421Y-166961504D02*
X121386278Y-166675789D01*
X121386278Y-166675789D02*
X121529136Y-165532932D01*
X121529136Y-165532932D02*
X121707707Y-165247218D01*
X121707707Y-165247218D02*
X122011278Y-165104361D01*
X122011278Y-165104361D02*
X122582707Y-165104361D01*
X122582707Y-165104361D02*
X122850564Y-165247218D01*
X122850564Y-165247218D02*
X122957707Y-165532932D01*
X122957707Y-165532932D02*
X122921993Y-165818646D01*
X122921993Y-165818646D02*
X121457707Y-166104361D01*
X125332707Y-167104361D02*
X125707707Y-164104361D01*
X125350565Y-166961504D02*
X125046993Y-167104361D01*
X125046993Y-167104361D02*
X124475565Y-167104361D01*
X124475565Y-167104361D02*
X124207707Y-166961504D01*
X124207707Y-166961504D02*
X124082707Y-166818646D01*
X124082707Y-166818646D02*
X123975565Y-166532932D01*
X123975565Y-166532932D02*
X124082707Y-165675789D01*
X124082707Y-165675789D02*
X124261279Y-165390075D01*
X124261279Y-165390075D02*
X124421993Y-165247218D01*
X124421993Y-165247218D02*
X124725565Y-165104361D01*
X124725565Y-165104361D02*
X125296993Y-165104361D01*
X125296993Y-165104361D02*
X125564850Y-165247218D01*
X76100562Y-170362764D02*
X77100562Y-170362764D01*
X77332705Y-171934193D02*
X75904133Y-171934193D01*
X75904133Y-171934193D02*
X76279133Y-168934193D01*
X76279133Y-168934193D02*
X77707705Y-168934193D01*
X78868419Y-169934193D02*
X78618419Y-171934193D01*
X78832705Y-170219907D02*
X78993419Y-170077050D01*
X78993419Y-170077050D02*
X79296991Y-169934193D01*
X79296991Y-169934193D02*
X79725562Y-169934193D01*
X79725562Y-169934193D02*
X79993419Y-170077050D01*
X79993419Y-170077050D02*
X80100562Y-170362764D01*
X80100562Y-170362764D02*
X79904133Y-171934193D01*
X82618419Y-171934193D02*
X82814848Y-170362764D01*
X82814848Y-170362764D02*
X82707705Y-170077050D01*
X82707705Y-170077050D02*
X82439848Y-169934193D01*
X82439848Y-169934193D02*
X81868419Y-169934193D01*
X81868419Y-169934193D02*
X81564848Y-170077050D01*
X82636277Y-171791336D02*
X82332705Y-171934193D01*
X82332705Y-171934193D02*
X81618419Y-171934193D01*
X81618419Y-171934193D02*
X81350562Y-171791336D01*
X81350562Y-171791336D02*
X81243419Y-171505621D01*
X81243419Y-171505621D02*
X81279134Y-171219907D01*
X81279134Y-171219907D02*
X81457705Y-170934193D01*
X81457705Y-170934193D02*
X81761277Y-170791336D01*
X81761277Y-170791336D02*
X82475562Y-170791336D01*
X82475562Y-170791336D02*
X82779134Y-170648478D01*
X85350563Y-171791336D02*
X85046991Y-171934193D01*
X85046991Y-171934193D02*
X84475563Y-171934193D01*
X84475563Y-171934193D02*
X84207705Y-171791336D01*
X84207705Y-171791336D02*
X84082705Y-171648478D01*
X84082705Y-171648478D02*
X83975563Y-171362764D01*
X83975563Y-171362764D02*
X84082705Y-170505621D01*
X84082705Y-170505621D02*
X84261277Y-170219907D01*
X84261277Y-170219907D02*
X84421991Y-170077050D01*
X84421991Y-170077050D02*
X84725563Y-169934193D01*
X84725563Y-169934193D02*
X85296991Y-169934193D01*
X85296991Y-169934193D02*
X85564848Y-170077050D01*
X87921992Y-171791336D02*
X87618420Y-171934193D01*
X87618420Y-171934193D02*
X87046992Y-171934193D01*
X87046992Y-171934193D02*
X86779134Y-171791336D01*
X86779134Y-171791336D02*
X86654134Y-171648478D01*
X86654134Y-171648478D02*
X86546992Y-171362764D01*
X86546992Y-171362764D02*
X86654134Y-170505621D01*
X86654134Y-170505621D02*
X86832706Y-170219907D01*
X86832706Y-170219907D02*
X86993420Y-170077050D01*
X86993420Y-170077050D02*
X87296992Y-169934193D01*
X87296992Y-169934193D02*
X87868420Y-169934193D01*
X87868420Y-169934193D02*
X88136277Y-170077050D01*
X90350563Y-171791336D02*
X90046992Y-171934193D01*
X90046992Y-171934193D02*
X89475563Y-171934193D01*
X89475563Y-171934193D02*
X89207706Y-171791336D01*
X89207706Y-171791336D02*
X89100563Y-171505621D01*
X89100563Y-171505621D02*
X89243421Y-170362764D01*
X89243421Y-170362764D02*
X89421992Y-170077050D01*
X89421992Y-170077050D02*
X89725563Y-169934193D01*
X89725563Y-169934193D02*
X90296992Y-169934193D01*
X90296992Y-169934193D02*
X90564849Y-170077050D01*
X90564849Y-170077050D02*
X90671992Y-170362764D01*
X90671992Y-170362764D02*
X90636278Y-170648478D01*
X90636278Y-170648478D02*
X89171992Y-170934193D01*
X91636278Y-171791336D02*
X91904135Y-171934193D01*
X91904135Y-171934193D02*
X92475564Y-171934193D01*
X92475564Y-171934193D02*
X92779135Y-171791336D01*
X92779135Y-171791336D02*
X92957707Y-171505621D01*
X92957707Y-171505621D02*
X92975564Y-171362764D01*
X92975564Y-171362764D02*
X92868421Y-171077050D01*
X92868421Y-171077050D02*
X92600564Y-170934193D01*
X92600564Y-170934193D02*
X92171992Y-170934193D01*
X92171992Y-170934193D02*
X91904135Y-170791336D01*
X91904135Y-170791336D02*
X91796992Y-170505621D01*
X91796992Y-170505621D02*
X91814850Y-170362764D01*
X91814850Y-170362764D02*
X91993421Y-170077050D01*
X91993421Y-170077050D02*
X92296992Y-169934193D01*
X92296992Y-169934193D02*
X92725564Y-169934193D01*
X92725564Y-169934193D02*
X92993421Y-170077050D01*
X94064849Y-171791336D02*
X94332706Y-171934193D01*
X94332706Y-171934193D02*
X94904135Y-171934193D01*
X94904135Y-171934193D02*
X95207706Y-171791336D01*
X95207706Y-171791336D02*
X95386278Y-171505621D01*
X95386278Y-171505621D02*
X95404135Y-171362764D01*
X95404135Y-171362764D02*
X95296992Y-171077050D01*
X95296992Y-171077050D02*
X95029135Y-170934193D01*
X95029135Y-170934193D02*
X94600563Y-170934193D01*
X94600563Y-170934193D02*
X94332706Y-170791336D01*
X94332706Y-170791336D02*
X94225563Y-170505621D01*
X94225563Y-170505621D02*
X94243421Y-170362764D01*
X94243421Y-170362764D02*
X94421992Y-170077050D01*
X94421992Y-170077050D02*
X94725563Y-169934193D01*
X94725563Y-169934193D02*
X95154135Y-169934193D01*
X95154135Y-169934193D02*
X95421992Y-170077050D01*
X100100563Y-170362764D02*
X99100563Y-170362764D01*
X98904134Y-171934193D02*
X99279134Y-168934193D01*
X99279134Y-168934193D02*
X100707706Y-168934193D01*
X101904135Y-171934193D02*
X101636277Y-171791336D01*
X101636277Y-171791336D02*
X101511277Y-171648478D01*
X101511277Y-171648478D02*
X101404135Y-171362764D01*
X101404135Y-171362764D02*
X101511277Y-170505621D01*
X101511277Y-170505621D02*
X101689849Y-170219907D01*
X101689849Y-170219907D02*
X101850563Y-170077050D01*
X101850563Y-170077050D02*
X102154135Y-169934193D01*
X102154135Y-169934193D02*
X102582706Y-169934193D01*
X102582706Y-169934193D02*
X102850563Y-170077050D01*
X102850563Y-170077050D02*
X102975563Y-170219907D01*
X102975563Y-170219907D02*
X103082706Y-170505621D01*
X103082706Y-170505621D02*
X102975563Y-171362764D01*
X102975563Y-171362764D02*
X102796992Y-171648478D01*
X102796992Y-171648478D02*
X102636277Y-171791336D01*
X102636277Y-171791336D02*
X102332706Y-171934193D01*
X102332706Y-171934193D02*
X101904135Y-171934193D01*
X105725563Y-169934193D02*
X105475563Y-171934193D01*
X104439849Y-169934193D02*
X104243421Y-171505621D01*
X104243421Y-171505621D02*
X104350563Y-171791336D01*
X104350563Y-171791336D02*
X104618421Y-171934193D01*
X104618421Y-171934193D02*
X105046992Y-171934193D01*
X105046992Y-171934193D02*
X105350563Y-171791336D01*
X105350563Y-171791336D02*
X105511278Y-171648478D01*
X107154135Y-169934193D02*
X106904135Y-171934193D01*
X107118421Y-170219907D02*
X107279135Y-170077050D01*
X107279135Y-170077050D02*
X107582707Y-169934193D01*
X107582707Y-169934193D02*
X108011278Y-169934193D01*
X108011278Y-169934193D02*
X108279135Y-170077050D01*
X108279135Y-170077050D02*
X108386278Y-170362764D01*
X108386278Y-170362764D02*
X108189849Y-171934193D01*
X110904135Y-171934193D02*
X111279135Y-168934193D01*
X110921993Y-171791336D02*
X110618421Y-171934193D01*
X110618421Y-171934193D02*
X110046993Y-171934193D01*
X110046993Y-171934193D02*
X109779135Y-171791336D01*
X109779135Y-171791336D02*
X109654135Y-171648478D01*
X109654135Y-171648478D02*
X109546993Y-171362764D01*
X109546993Y-171362764D02*
X109654135Y-170505621D01*
X109654135Y-170505621D02*
X109832707Y-170219907D01*
X109832707Y-170219907D02*
X109993421Y-170077050D01*
X109993421Y-170077050D02*
X110296993Y-169934193D01*
X110296993Y-169934193D02*
X110868421Y-169934193D01*
X110868421Y-169934193D02*
X111136278Y-170077050D01*
X113618421Y-171934193D02*
X113814850Y-170362764D01*
X113814850Y-170362764D02*
X113707707Y-170077050D01*
X113707707Y-170077050D02*
X113439850Y-169934193D01*
X113439850Y-169934193D02*
X112868421Y-169934193D01*
X112868421Y-169934193D02*
X112564850Y-170077050D01*
X113636279Y-171791336D02*
X113332707Y-171934193D01*
X113332707Y-171934193D02*
X112618421Y-171934193D01*
X112618421Y-171934193D02*
X112350564Y-171791336D01*
X112350564Y-171791336D02*
X112243421Y-171505621D01*
X112243421Y-171505621D02*
X112279136Y-171219907D01*
X112279136Y-171219907D02*
X112457707Y-170934193D01*
X112457707Y-170934193D02*
X112761279Y-170791336D01*
X112761279Y-170791336D02*
X113475564Y-170791336D01*
X113475564Y-170791336D02*
X113779136Y-170648478D01*
X114868422Y-169934193D02*
X116011279Y-169934193D01*
X115421993Y-168934193D02*
X115100565Y-171505621D01*
X115100565Y-171505621D02*
X115207707Y-171791336D01*
X115207707Y-171791336D02*
X115475565Y-171934193D01*
X115475565Y-171934193D02*
X115761279Y-171934193D01*
X116761279Y-171934193D02*
X117011279Y-169934193D01*
X117136279Y-168934193D02*
X116975565Y-169077050D01*
X116975565Y-169077050D02*
X117100565Y-169219907D01*
X117100565Y-169219907D02*
X117261279Y-169077050D01*
X117261279Y-169077050D02*
X117136279Y-168934193D01*
X117136279Y-168934193D02*
X117100565Y-169219907D01*
X118618422Y-171934193D02*
X118350564Y-171791336D01*
X118350564Y-171791336D02*
X118225564Y-171648478D01*
X118225564Y-171648478D02*
X118118422Y-171362764D01*
X118118422Y-171362764D02*
X118225564Y-170505621D01*
X118225564Y-170505621D02*
X118404136Y-170219907D01*
X118404136Y-170219907D02*
X118564850Y-170077050D01*
X118564850Y-170077050D02*
X118868422Y-169934193D01*
X118868422Y-169934193D02*
X119296993Y-169934193D01*
X119296993Y-169934193D02*
X119564850Y-170077050D01*
X119564850Y-170077050D02*
X119689850Y-170219907D01*
X119689850Y-170219907D02*
X119796993Y-170505621D01*
X119796993Y-170505621D02*
X119689850Y-171362764D01*
X119689850Y-171362764D02*
X119511279Y-171648478D01*
X119511279Y-171648478D02*
X119350564Y-171791336D01*
X119350564Y-171791336D02*
X119046993Y-171934193D01*
X119046993Y-171934193D02*
X118618422Y-171934193D01*
X121154136Y-169934193D02*
X120904136Y-171934193D01*
X121118422Y-170219907D02*
X121279136Y-170077050D01*
X121279136Y-170077050D02*
X121582708Y-169934193D01*
X121582708Y-169934193D02*
X122011279Y-169934193D01*
X122011279Y-169934193D02*
X122279136Y-170077050D01*
X122279136Y-170077050D02*
X122386279Y-170362764D01*
X122386279Y-170362764D02*
X122189850Y-171934193D01*
X62189849Y-176764025D02*
X62564849Y-173764025D01*
X62564849Y-173764025D02*
X63707706Y-173764025D01*
X63707706Y-173764025D02*
X63975563Y-173906882D01*
X63975563Y-173906882D02*
X64100563Y-174049739D01*
X64100563Y-174049739D02*
X64207706Y-174335453D01*
X64207706Y-174335453D02*
X64154135Y-174764025D01*
X64154135Y-174764025D02*
X63975563Y-175049739D01*
X63975563Y-175049739D02*
X63814849Y-175192596D01*
X63814849Y-175192596D02*
X63511278Y-175335453D01*
X63511278Y-175335453D02*
X62368421Y-175335453D01*
X65189849Y-176764025D02*
X65439849Y-174764025D01*
X65368421Y-175335453D02*
X65546992Y-175049739D01*
X65546992Y-175049739D02*
X65707706Y-174906882D01*
X65707706Y-174906882D02*
X66011278Y-174764025D01*
X66011278Y-174764025D02*
X66296992Y-174764025D01*
X67475564Y-176764025D02*
X67207706Y-176621168D01*
X67207706Y-176621168D02*
X67082706Y-176478310D01*
X67082706Y-176478310D02*
X66975564Y-176192596D01*
X66975564Y-176192596D02*
X67082706Y-175335453D01*
X67082706Y-175335453D02*
X67261278Y-175049739D01*
X67261278Y-175049739D02*
X67421992Y-174906882D01*
X67421992Y-174906882D02*
X67725564Y-174764025D01*
X67725564Y-174764025D02*
X68154135Y-174764025D01*
X68154135Y-174764025D02*
X68421992Y-174906882D01*
X68421992Y-174906882D02*
X68546992Y-175049739D01*
X68546992Y-175049739D02*
X68654135Y-175335453D01*
X68654135Y-175335453D02*
X68546992Y-176192596D01*
X68546992Y-176192596D02*
X68368421Y-176478310D01*
X68368421Y-176478310D02*
X68207706Y-176621168D01*
X68207706Y-176621168D02*
X67904135Y-176764025D01*
X67904135Y-176764025D02*
X67475564Y-176764025D01*
X70011278Y-174764025D02*
X69689850Y-177335453D01*
X69689850Y-177335453D02*
X69511278Y-177621168D01*
X69511278Y-177621168D02*
X69207707Y-177764025D01*
X69207707Y-177764025D02*
X69064850Y-177764025D01*
X70136278Y-173764025D02*
X69975564Y-173906882D01*
X69975564Y-173906882D02*
X70100564Y-174049739D01*
X70100564Y-174049739D02*
X70261278Y-173906882D01*
X70261278Y-173906882D02*
X70136278Y-173764025D01*
X70136278Y-173764025D02*
X70100564Y-174049739D01*
X72350563Y-176621168D02*
X72046992Y-176764025D01*
X72046992Y-176764025D02*
X71475563Y-176764025D01*
X71475563Y-176764025D02*
X71207706Y-176621168D01*
X71207706Y-176621168D02*
X71100563Y-176335453D01*
X71100563Y-176335453D02*
X71243421Y-175192596D01*
X71243421Y-175192596D02*
X71421992Y-174906882D01*
X71421992Y-174906882D02*
X71725563Y-174764025D01*
X71725563Y-174764025D02*
X72296992Y-174764025D01*
X72296992Y-174764025D02*
X72564849Y-174906882D01*
X72564849Y-174906882D02*
X72671992Y-175192596D01*
X72671992Y-175192596D02*
X72636278Y-175478310D01*
X72636278Y-175478310D02*
X71171992Y-175764025D01*
X75064850Y-176621168D02*
X74761278Y-176764025D01*
X74761278Y-176764025D02*
X74189850Y-176764025D01*
X74189850Y-176764025D02*
X73921992Y-176621168D01*
X73921992Y-176621168D02*
X73796992Y-176478310D01*
X73796992Y-176478310D02*
X73689850Y-176192596D01*
X73689850Y-176192596D02*
X73796992Y-175335453D01*
X73796992Y-175335453D02*
X73975564Y-175049739D01*
X73975564Y-175049739D02*
X74136278Y-174906882D01*
X74136278Y-174906882D02*
X74439850Y-174764025D01*
X74439850Y-174764025D02*
X75011278Y-174764025D01*
X75011278Y-174764025D02*
X75279135Y-174906882D01*
X76154136Y-174764025D02*
X77296993Y-174764025D01*
X76707707Y-173764025D02*
X76386279Y-176335453D01*
X76386279Y-176335453D02*
X76493421Y-176621168D01*
X76493421Y-176621168D02*
X76761279Y-176764025D01*
X76761279Y-176764025D02*
X77046993Y-176764025D01*
X80332707Y-176764025D02*
X80707707Y-173764025D01*
X80707707Y-173764025D02*
X82046993Y-176764025D01*
X82046993Y-176764025D02*
X82421993Y-173764025D01*
X84761278Y-176764025D02*
X84957707Y-175192596D01*
X84957707Y-175192596D02*
X84850564Y-174906882D01*
X84850564Y-174906882D02*
X84582707Y-174764025D01*
X84582707Y-174764025D02*
X84011278Y-174764025D01*
X84011278Y-174764025D02*
X83707707Y-174906882D01*
X84779136Y-176621168D02*
X84475564Y-176764025D01*
X84475564Y-176764025D02*
X83761278Y-176764025D01*
X83761278Y-176764025D02*
X83493421Y-176621168D01*
X83493421Y-176621168D02*
X83386278Y-176335453D01*
X83386278Y-176335453D02*
X83421993Y-176049739D01*
X83421993Y-176049739D02*
X83600564Y-175764025D01*
X83600564Y-175764025D02*
X83904136Y-175621168D01*
X83904136Y-175621168D02*
X84618421Y-175621168D01*
X84618421Y-175621168D02*
X84921993Y-175478310D01*
X86189850Y-176764025D02*
X86439850Y-174764025D01*
X86404136Y-175049739D02*
X86564850Y-174906882D01*
X86564850Y-174906882D02*
X86868422Y-174764025D01*
X86868422Y-174764025D02*
X87296993Y-174764025D01*
X87296993Y-174764025D02*
X87564850Y-174906882D01*
X87564850Y-174906882D02*
X87671993Y-175192596D01*
X87671993Y-175192596D02*
X87475564Y-176764025D01*
X87671993Y-175192596D02*
X87850564Y-174906882D01*
X87850564Y-174906882D02*
X88154136Y-174764025D01*
X88154136Y-174764025D02*
X88582707Y-174764025D01*
X88582707Y-174764025D02*
X88850564Y-174906882D01*
X88850564Y-174906882D02*
X88957707Y-175192596D01*
X88957707Y-175192596D02*
X88761279Y-176764025D01*
X91350564Y-176621168D02*
X91046993Y-176764025D01*
X91046993Y-176764025D02*
X90475564Y-176764025D01*
X90475564Y-176764025D02*
X90207707Y-176621168D01*
X90207707Y-176621168D02*
X90100564Y-176335453D01*
X90100564Y-176335453D02*
X90243422Y-175192596D01*
X90243422Y-175192596D02*
X90421993Y-174906882D01*
X90421993Y-174906882D02*
X90725564Y-174764025D01*
X90725564Y-174764025D02*
X91296993Y-174764025D01*
X91296993Y-174764025D02*
X91564850Y-174906882D01*
X91564850Y-174906882D02*
X91671993Y-175192596D01*
X91671993Y-175192596D02*
X91636279Y-175478310D01*
X91636279Y-175478310D02*
X90171993Y-175764025D01*
X92796993Y-176478310D02*
X92921993Y-176621168D01*
X92921993Y-176621168D02*
X92761279Y-176764025D01*
X92761279Y-176764025D02*
X92636279Y-176621168D01*
X92636279Y-176621168D02*
X92796993Y-176478310D01*
X92796993Y-176478310D02*
X92761279Y-176764025D01*
X92993422Y-174906882D02*
X93118422Y-175049739D01*
X93118422Y-175049739D02*
X92957708Y-175192596D01*
X92957708Y-175192596D02*
X92832708Y-175049739D01*
X92832708Y-175049739D02*
X92993422Y-174906882D01*
X92993422Y-174906882D02*
X92957708Y-175192596D01*
X97671993Y-175192596D02*
X96671993Y-175192596D01*
X96475564Y-176764025D02*
X96850564Y-173764025D01*
X96850564Y-173764025D02*
X98279136Y-173764025D01*
X100332707Y-176764025D02*
X100529136Y-175192596D01*
X100529136Y-175192596D02*
X100421993Y-174906882D01*
X100421993Y-174906882D02*
X100154136Y-174764025D01*
X100154136Y-174764025D02*
X99582707Y-174764025D01*
X99582707Y-174764025D02*
X99279136Y-174906882D01*
X100350565Y-176621168D02*
X100046993Y-176764025D01*
X100046993Y-176764025D02*
X99332707Y-176764025D01*
X99332707Y-176764025D02*
X99064850Y-176621168D01*
X99064850Y-176621168D02*
X98957707Y-176335453D01*
X98957707Y-176335453D02*
X98993422Y-176049739D01*
X98993422Y-176049739D02*
X99171993Y-175764025D01*
X99171993Y-175764025D02*
X99475565Y-175621168D01*
X99475565Y-175621168D02*
X100189850Y-175621168D01*
X100189850Y-175621168D02*
X100493422Y-175478310D01*
X101761279Y-176764025D02*
X102011279Y-174764025D01*
X101939851Y-175335453D02*
X102118422Y-175049739D01*
X102118422Y-175049739D02*
X102279136Y-174906882D01*
X102279136Y-174906882D02*
X102582708Y-174764025D01*
X102582708Y-174764025D02*
X102868422Y-174764025D01*
X103618422Y-176764025D02*
X103868422Y-174764025D01*
X103832708Y-175049739D02*
X103993422Y-174906882D01*
X103993422Y-174906882D02*
X104296994Y-174764025D01*
X104296994Y-174764025D02*
X104725565Y-174764025D01*
X104725565Y-174764025D02*
X104993422Y-174906882D01*
X104993422Y-174906882D02*
X105100565Y-175192596D01*
X105100565Y-175192596D02*
X104904136Y-176764025D01*
X105100565Y-175192596D02*
X105279136Y-174906882D01*
X105279136Y-174906882D02*
X105582708Y-174764025D01*
X105582708Y-174764025D02*
X106011279Y-174764025D01*
X106011279Y-174764025D02*
X106279136Y-174906882D01*
X106279136Y-174906882D02*
X106386279Y-175192596D01*
X106386279Y-175192596D02*
X106189851Y-176764025D01*
X108814851Y-175192596D02*
X107814851Y-175192596D01*
X107618422Y-176764025D02*
X107993422Y-173764025D01*
X107993422Y-173764025D02*
X109421994Y-173764025D01*
X110189851Y-176764025D02*
X110439851Y-174764025D01*
X110368423Y-175335453D02*
X110546994Y-175049739D01*
X110546994Y-175049739D02*
X110707708Y-174906882D01*
X110707708Y-174906882D02*
X111011280Y-174764025D01*
X111011280Y-174764025D02*
X111296994Y-174764025D01*
X113207708Y-176621168D02*
X112904137Y-176764025D01*
X112904137Y-176764025D02*
X112332708Y-176764025D01*
X112332708Y-176764025D02*
X112064851Y-176621168D01*
X112064851Y-176621168D02*
X111957708Y-176335453D01*
X111957708Y-176335453D02*
X112100566Y-175192596D01*
X112100566Y-175192596D02*
X112279137Y-174906882D01*
X112279137Y-174906882D02*
X112582708Y-174764025D01*
X112582708Y-174764025D02*
X113154137Y-174764025D01*
X113154137Y-174764025D02*
X113421994Y-174906882D01*
X113421994Y-174906882D02*
X113529137Y-175192596D01*
X113529137Y-175192596D02*
X113493423Y-175478310D01*
X113493423Y-175478310D02*
X112029137Y-175764025D01*
X115779137Y-176621168D02*
X115475566Y-176764025D01*
X115475566Y-176764025D02*
X114904137Y-176764025D01*
X114904137Y-176764025D02*
X114636280Y-176621168D01*
X114636280Y-176621168D02*
X114529137Y-176335453D01*
X114529137Y-176335453D02*
X114671995Y-175192596D01*
X114671995Y-175192596D02*
X114850566Y-174906882D01*
X114850566Y-174906882D02*
X115154137Y-174764025D01*
X115154137Y-174764025D02*
X115725566Y-174764025D01*
X115725566Y-174764025D02*
X115993423Y-174906882D01*
X115993423Y-174906882D02*
X116100566Y-175192596D01*
X116100566Y-175192596D02*
X116064852Y-175478310D01*
X116064852Y-175478310D02*
X114600566Y-175764025D01*
X117154138Y-174764025D02*
X118725566Y-174764025D01*
X118725566Y-174764025D02*
X116904138Y-176764025D01*
X116904138Y-176764025D02*
X118475566Y-176764025D01*
X120779137Y-176621168D02*
X120475566Y-176764025D01*
X120475566Y-176764025D02*
X119904137Y-176764025D01*
X119904137Y-176764025D02*
X119636280Y-176621168D01*
X119636280Y-176621168D02*
X119529137Y-176335453D01*
X119529137Y-176335453D02*
X119671995Y-175192596D01*
X119671995Y-175192596D02*
X119850566Y-174906882D01*
X119850566Y-174906882D02*
X120154137Y-174764025D01*
X120154137Y-174764025D02*
X120725566Y-174764025D01*
X120725566Y-174764025D02*
X120993423Y-174906882D01*
X120993423Y-174906882D02*
X121100566Y-175192596D01*
X121100566Y-175192596D02*
X121064852Y-175478310D01*
X121064852Y-175478310D02*
X119600566Y-175764025D01*
X124350566Y-176621168D02*
X124761280Y-176764025D01*
X124761280Y-176764025D02*
X125475566Y-176764025D01*
X125475566Y-176764025D02*
X125779138Y-176621168D01*
X125779138Y-176621168D02*
X125939852Y-176478310D01*
X125939852Y-176478310D02*
X126118423Y-176192596D01*
X126118423Y-176192596D02*
X126154138Y-175906882D01*
X126154138Y-175906882D02*
X126046995Y-175621168D01*
X126046995Y-175621168D02*
X125921995Y-175478310D01*
X125921995Y-175478310D02*
X125654138Y-175335453D01*
X125654138Y-175335453D02*
X125100566Y-175192596D01*
X125100566Y-175192596D02*
X124832709Y-175049739D01*
X124832709Y-175049739D02*
X124707709Y-174906882D01*
X124707709Y-174906882D02*
X124600566Y-174621168D01*
X124600566Y-174621168D02*
X124636280Y-174335453D01*
X124636280Y-174335453D02*
X124814852Y-174049739D01*
X124814852Y-174049739D02*
X124975566Y-173906882D01*
X124975566Y-173906882D02*
X125279138Y-173764025D01*
X125279138Y-173764025D02*
X125993423Y-173764025D01*
X125993423Y-173764025D02*
X126404138Y-173906882D01*
X127296995Y-174764025D02*
X127761281Y-176764025D01*
X128725566Y-174764025D02*
X127761281Y-176764025D01*
X127761281Y-176764025D02*
X127386281Y-177478310D01*
X127386281Y-177478310D02*
X127225566Y-177621168D01*
X127225566Y-177621168D02*
X126921995Y-177764025D01*
X129493423Y-176621168D02*
X129761280Y-176764025D01*
X129761280Y-176764025D02*
X130332709Y-176764025D01*
X130332709Y-176764025D02*
X130636280Y-176621168D01*
X130636280Y-176621168D02*
X130814852Y-176335453D01*
X130814852Y-176335453D02*
X130832709Y-176192596D01*
X130832709Y-176192596D02*
X130725566Y-175906882D01*
X130725566Y-175906882D02*
X130457709Y-175764025D01*
X130457709Y-175764025D02*
X130029137Y-175764025D01*
X130029137Y-175764025D02*
X129761280Y-175621168D01*
X129761280Y-175621168D02*
X129654137Y-175335453D01*
X129654137Y-175335453D02*
X129671995Y-175192596D01*
X129671995Y-175192596D02*
X129850566Y-174906882D01*
X129850566Y-174906882D02*
X130154137Y-174764025D01*
X130154137Y-174764025D02*
X130582709Y-174764025D01*
X130582709Y-174764025D02*
X130850566Y-174906882D01*
X131868423Y-174764025D02*
X133011280Y-174764025D01*
X132421994Y-173764025D02*
X132100566Y-176335453D01*
X132100566Y-176335453D02*
X132207708Y-176621168D01*
X132207708Y-176621168D02*
X132475566Y-176764025D01*
X132475566Y-176764025D02*
X132761280Y-176764025D01*
X134921994Y-176621168D02*
X134618423Y-176764025D01*
X134618423Y-176764025D02*
X134046994Y-176764025D01*
X134046994Y-176764025D02*
X133779137Y-176621168D01*
X133779137Y-176621168D02*
X133671994Y-176335453D01*
X133671994Y-176335453D02*
X133814852Y-175192596D01*
X133814852Y-175192596D02*
X133993423Y-174906882D01*
X133993423Y-174906882D02*
X134296994Y-174764025D01*
X134296994Y-174764025D02*
X134868423Y-174764025D01*
X134868423Y-174764025D02*
X135136280Y-174906882D01*
X135136280Y-174906882D02*
X135243423Y-175192596D01*
X135243423Y-175192596D02*
X135207709Y-175478310D01*
X135207709Y-175478310D02*
X133743423Y-175764025D01*
X136332709Y-176764025D02*
X136582709Y-174764025D01*
X136546995Y-175049739D02*
X136707709Y-174906882D01*
X136707709Y-174906882D02*
X137011281Y-174764025D01*
X137011281Y-174764025D02*
X137439852Y-174764025D01*
X137439852Y-174764025D02*
X137707709Y-174906882D01*
X137707709Y-174906882D02*
X137814852Y-175192596D01*
X137814852Y-175192596D02*
X137618423Y-176764025D01*
X137814852Y-175192596D02*
X137993423Y-174906882D01*
X137993423Y-174906882D02*
X138296995Y-174764025D01*
X138296995Y-174764025D02*
X138725566Y-174764025D01*
X138725566Y-174764025D02*
X138993423Y-174906882D01*
X138993423Y-174906882D02*
X139100566Y-175192596D01*
X139100566Y-175192596D02*
X138904138Y-176764025D01*
X78136276Y-178593857D02*
X78761276Y-181593857D01*
X78761276Y-181593857D02*
X80136276Y-178593857D01*
X81921990Y-181451000D02*
X81618419Y-181593857D01*
X81618419Y-181593857D02*
X81046990Y-181593857D01*
X81046990Y-181593857D02*
X80779133Y-181451000D01*
X80779133Y-181451000D02*
X80671990Y-181165285D01*
X80671990Y-181165285D02*
X80814848Y-180022428D01*
X80814848Y-180022428D02*
X80993419Y-179736714D01*
X80993419Y-179736714D02*
X81296990Y-179593857D01*
X81296990Y-179593857D02*
X81868419Y-179593857D01*
X81868419Y-179593857D02*
X82136276Y-179736714D01*
X82136276Y-179736714D02*
X82243419Y-180022428D01*
X82243419Y-180022428D02*
X82207705Y-180308142D01*
X82207705Y-180308142D02*
X80743419Y-180593857D01*
X83332705Y-181593857D02*
X83582705Y-179593857D01*
X83511277Y-180165285D02*
X83689848Y-179879571D01*
X83689848Y-179879571D02*
X83850562Y-179736714D01*
X83850562Y-179736714D02*
X84154134Y-179593857D01*
X84154134Y-179593857D02*
X84439848Y-179593857D01*
X85064848Y-181451000D02*
X85332705Y-181593857D01*
X85332705Y-181593857D02*
X85904134Y-181593857D01*
X85904134Y-181593857D02*
X86207705Y-181451000D01*
X86207705Y-181451000D02*
X86386277Y-181165285D01*
X86386277Y-181165285D02*
X86404134Y-181022428D01*
X86404134Y-181022428D02*
X86296991Y-180736714D01*
X86296991Y-180736714D02*
X86029134Y-180593857D01*
X86029134Y-180593857D02*
X85600562Y-180593857D01*
X85600562Y-180593857D02*
X85332705Y-180451000D01*
X85332705Y-180451000D02*
X85225562Y-180165285D01*
X85225562Y-180165285D02*
X85243420Y-180022428D01*
X85243420Y-180022428D02*
X85421991Y-179736714D01*
X85421991Y-179736714D02*
X85725562Y-179593857D01*
X85725562Y-179593857D02*
X86154134Y-179593857D01*
X86154134Y-179593857D02*
X86421991Y-179736714D01*
X87618419Y-181593857D02*
X87868419Y-179593857D01*
X87993419Y-178593857D02*
X87832705Y-178736714D01*
X87832705Y-178736714D02*
X87957705Y-178879571D01*
X87957705Y-178879571D02*
X88118419Y-178736714D01*
X88118419Y-178736714D02*
X87993419Y-178593857D01*
X87993419Y-178593857D02*
X87957705Y-178879571D01*
X89475562Y-181593857D02*
X89207704Y-181451000D01*
X89207704Y-181451000D02*
X89082704Y-181308142D01*
X89082704Y-181308142D02*
X88975562Y-181022428D01*
X88975562Y-181022428D02*
X89082704Y-180165285D01*
X89082704Y-180165285D02*
X89261276Y-179879571D01*
X89261276Y-179879571D02*
X89421990Y-179736714D01*
X89421990Y-179736714D02*
X89725562Y-179593857D01*
X89725562Y-179593857D02*
X90154133Y-179593857D01*
X90154133Y-179593857D02*
X90421990Y-179736714D01*
X90421990Y-179736714D02*
X90546990Y-179879571D01*
X90546990Y-179879571D02*
X90654133Y-180165285D01*
X90654133Y-180165285D02*
X90546990Y-181022428D01*
X90546990Y-181022428D02*
X90368419Y-181308142D01*
X90368419Y-181308142D02*
X90207704Y-181451000D01*
X90207704Y-181451000D02*
X89904133Y-181593857D01*
X89904133Y-181593857D02*
X89475562Y-181593857D01*
X92011276Y-179593857D02*
X91761276Y-181593857D01*
X91975562Y-179879571D02*
X92136276Y-179736714D01*
X92136276Y-179736714D02*
X92439848Y-179593857D01*
X92439848Y-179593857D02*
X92868419Y-179593857D01*
X92868419Y-179593857D02*
X93136276Y-179736714D01*
X93136276Y-179736714D02*
X93243419Y-180022428D01*
X93243419Y-180022428D02*
X93046990Y-181593857D01*
X98332705Y-181593857D02*
X96618419Y-181593857D01*
X97475562Y-181593857D02*
X97850562Y-178593857D01*
X97850562Y-178593857D02*
X97511276Y-179022428D01*
X97511276Y-179022428D02*
X97189848Y-179308142D01*
X97189848Y-179308142D02*
X96886276Y-179451000D01*
X99654133Y-181308142D02*
X99779133Y-181451000D01*
X99779133Y-181451000D02*
X99618419Y-181593857D01*
X99618419Y-181593857D02*
X99493419Y-181451000D01*
X99493419Y-181451000D02*
X99654133Y-181308142D01*
X99654133Y-181308142D02*
X99618419Y-181593857D01*
X101993419Y-178593857D02*
X102279133Y-178593857D01*
X102279133Y-178593857D02*
X102546990Y-178736714D01*
X102546990Y-178736714D02*
X102671990Y-178879571D01*
X102671990Y-178879571D02*
X102779133Y-179165285D01*
X102779133Y-179165285D02*
X102850562Y-179736714D01*
X102850562Y-179736714D02*
X102761276Y-180451000D01*
X102761276Y-180451000D02*
X102546990Y-181022428D01*
X102546990Y-181022428D02*
X102368419Y-181308142D01*
X102368419Y-181308142D02*
X102207704Y-181451000D01*
X102207704Y-181451000D02*
X101904133Y-181593857D01*
X101904133Y-181593857D02*
X101618419Y-181593857D01*
X101618419Y-181593857D02*
X101350562Y-181451000D01*
X101350562Y-181451000D02*
X101225562Y-181308142D01*
X101225562Y-181308142D02*
X101118419Y-181022428D01*
X101118419Y-181022428D02*
X101046990Y-180451000D01*
X101046990Y-180451000D02*
X101136276Y-179736714D01*
X101136276Y-179736714D02*
X101350562Y-179165285D01*
X101350562Y-179165285D02*
X101529133Y-178879571D01*
X101529133Y-178879571D02*
X101689847Y-178736714D01*
X101689847Y-178736714D02*
X101993419Y-178593857D01*
X103939847Y-181308142D02*
X104064847Y-181451000D01*
X104064847Y-181451000D02*
X103904133Y-181593857D01*
X103904133Y-181593857D02*
X103779133Y-181451000D01*
X103779133Y-181451000D02*
X103939847Y-181308142D01*
X103939847Y-181308142D02*
X103904133Y-181593857D01*
X106279133Y-178593857D02*
X106564847Y-178593857D01*
X106564847Y-178593857D02*
X106832704Y-178736714D01*
X106832704Y-178736714D02*
X106957704Y-178879571D01*
X106957704Y-178879571D02*
X107064847Y-179165285D01*
X107064847Y-179165285D02*
X107136276Y-179736714D01*
X107136276Y-179736714D02*
X107046990Y-180451000D01*
X107046990Y-180451000D02*
X106832704Y-181022428D01*
X106832704Y-181022428D02*
X106654133Y-181308142D01*
X106654133Y-181308142D02*
X106493418Y-181451000D01*
X106493418Y-181451000D02*
X106189847Y-181593857D01*
X106189847Y-181593857D02*
X105904133Y-181593857D01*
X105904133Y-181593857D02*
X105636276Y-181451000D01*
X105636276Y-181451000D02*
X105511276Y-181308142D01*
X105511276Y-181308142D02*
X105404133Y-181022428D01*
X105404133Y-181022428D02*
X105332704Y-180451000D01*
X105332704Y-180451000D02*
X105421990Y-179736714D01*
X105421990Y-179736714D02*
X105636276Y-179165285D01*
X105636276Y-179165285D02*
X105814847Y-178879571D01*
X105814847Y-178879571D02*
X105975561Y-178736714D01*
X105975561Y-178736714D02*
X106279133Y-178593857D01*
X108225561Y-181308142D02*
X108350561Y-181451000D01*
X108350561Y-181451000D02*
X108189847Y-181593857D01*
X108189847Y-181593857D02*
X108064847Y-181451000D01*
X108064847Y-181451000D02*
X108225561Y-181308142D01*
X108225561Y-181308142D02*
X108189847Y-181593857D01*
X110564847Y-178593857D02*
X110850561Y-178593857D01*
X110850561Y-178593857D02*
X111118418Y-178736714D01*
X111118418Y-178736714D02*
X111243418Y-178879571D01*
X111243418Y-178879571D02*
X111350561Y-179165285D01*
X111350561Y-179165285D02*
X111421990Y-179736714D01*
X111421990Y-179736714D02*
X111332704Y-180451000D01*
X111332704Y-180451000D02*
X111118418Y-181022428D01*
X111118418Y-181022428D02*
X110939847Y-181308142D01*
X110939847Y-181308142D02*
X110779132Y-181451000D01*
X110779132Y-181451000D02*
X110475561Y-181593857D01*
X110475561Y-181593857D02*
X110189847Y-181593857D01*
X110189847Y-181593857D02*
X109921990Y-181451000D01*
X109921990Y-181451000D02*
X109796990Y-181308142D01*
X109796990Y-181308142D02*
X109689847Y-181022428D01*
X109689847Y-181022428D02*
X109618418Y-180451000D01*
X109618418Y-180451000D02*
X109707704Y-179736714D01*
X109707704Y-179736714D02*
X109921990Y-179165285D01*
X109921990Y-179165285D02*
X110100561Y-178879571D01*
X110100561Y-178879571D02*
X110261275Y-178736714D01*
X110261275Y-178736714D02*
X110564847Y-178593857D01*
D11*
X139475476Y-29595519D02*
X139475476Y-30309804D01*
X139475476Y-30309804D02*
X139427857Y-30452661D01*
X139427857Y-30452661D02*
X139332619Y-30547900D01*
X139332619Y-30547900D02*
X139189762Y-30595519D01*
X139189762Y-30595519D02*
X139094524Y-30595519D01*
X139904048Y-29690757D02*
X139951667Y-29643138D01*
X139951667Y-29643138D02*
X140046905Y-29595519D01*
X140046905Y-29595519D02*
X140285000Y-29595519D01*
X140285000Y-29595519D02*
X140380238Y-29643138D01*
X140380238Y-29643138D02*
X140427857Y-29690757D01*
X140427857Y-29690757D02*
X140475476Y-29785995D01*
X140475476Y-29785995D02*
X140475476Y-29881233D01*
X140475476Y-29881233D02*
X140427857Y-30024090D01*
X140427857Y-30024090D02*
X139856429Y-30595519D01*
X139856429Y-30595519D02*
X140475476Y-30595519D01*
X140856429Y-29690757D02*
X140904048Y-29643138D01*
X140904048Y-29643138D02*
X140999286Y-29595519D01*
X140999286Y-29595519D02*
X141237381Y-29595519D01*
X141237381Y-29595519D02*
X141332619Y-29643138D01*
X141332619Y-29643138D02*
X141380238Y-29690757D01*
X141380238Y-29690757D02*
X141427857Y-29785995D01*
X141427857Y-29785995D02*
X141427857Y-29881233D01*
X141427857Y-29881233D02*
X141380238Y-30024090D01*
X141380238Y-30024090D02*
X140808810Y-30595519D01*
X140808810Y-30595519D02*
X141427857Y-30595519D01*
X51132438Y-70943095D02*
X51084819Y-71038333D01*
X51084819Y-71038333D02*
X51084819Y-71181190D01*
X51084819Y-71181190D02*
X51132438Y-71324047D01*
X51132438Y-71324047D02*
X51227676Y-71419285D01*
X51227676Y-71419285D02*
X51322914Y-71466904D01*
X51322914Y-71466904D02*
X51513390Y-71514523D01*
X51513390Y-71514523D02*
X51656247Y-71514523D01*
X51656247Y-71514523D02*
X51846723Y-71466904D01*
X51846723Y-71466904D02*
X51941961Y-71419285D01*
X51941961Y-71419285D02*
X52037200Y-71324047D01*
X52037200Y-71324047D02*
X52084819Y-71181190D01*
X52084819Y-71181190D02*
X52084819Y-71085952D01*
X52084819Y-71085952D02*
X52037200Y-70943095D01*
X52037200Y-70943095D02*
X51989580Y-70895476D01*
X51989580Y-70895476D02*
X51656247Y-70895476D01*
X51656247Y-70895476D02*
X51656247Y-71085952D01*
X52084819Y-70466904D02*
X51084819Y-70466904D01*
X51084819Y-70466904D02*
X51084819Y-70085952D01*
X51084819Y-70085952D02*
X51132438Y-69990714D01*
X51132438Y-69990714D02*
X51180057Y-69943095D01*
X51180057Y-69943095D02*
X51275295Y-69895476D01*
X51275295Y-69895476D02*
X51418152Y-69895476D01*
X51418152Y-69895476D02*
X51513390Y-69943095D01*
X51513390Y-69943095D02*
X51561009Y-69990714D01*
X51561009Y-69990714D02*
X51608628Y-70085952D01*
X51608628Y-70085952D02*
X51608628Y-70466904D01*
X52084819Y-68895476D02*
X51608628Y-69228809D01*
X52084819Y-69466904D02*
X51084819Y-69466904D01*
X51084819Y-69466904D02*
X51084819Y-69085952D01*
X51084819Y-69085952D02*
X51132438Y-68990714D01*
X51132438Y-68990714D02*
X51180057Y-68943095D01*
X51180057Y-68943095D02*
X51275295Y-68895476D01*
X51275295Y-68895476D02*
X51418152Y-68895476D01*
X51418152Y-68895476D02*
X51513390Y-68943095D01*
X51513390Y-68943095D02*
X51561009Y-68990714D01*
X51561009Y-68990714D02*
X51608628Y-69085952D01*
X51608628Y-69085952D02*
X51608628Y-69466904D01*
X52037200Y-68514523D02*
X52084819Y-68371666D01*
X52084819Y-68371666D02*
X52084819Y-68133571D01*
X52084819Y-68133571D02*
X52037200Y-68038333D01*
X52037200Y-68038333D02*
X51989580Y-67990714D01*
X51989580Y-67990714D02*
X51894342Y-67943095D01*
X51894342Y-67943095D02*
X51799104Y-67943095D01*
X51799104Y-67943095D02*
X51703866Y-67990714D01*
X51703866Y-67990714D02*
X51656247Y-68038333D01*
X51656247Y-68038333D02*
X51608628Y-68133571D01*
X51608628Y-68133571D02*
X51561009Y-68324047D01*
X51561009Y-68324047D02*
X51513390Y-68419285D01*
X51513390Y-68419285D02*
X51465771Y-68466904D01*
X51465771Y-68466904D02*
X51370533Y-68514523D01*
X51370533Y-68514523D02*
X51275295Y-68514523D01*
X51275295Y-68514523D02*
X51180057Y-68466904D01*
X51180057Y-68466904D02*
X51132438Y-68419285D01*
X51132438Y-68419285D02*
X51084819Y-68324047D01*
X51084819Y-68324047D02*
X51084819Y-68085952D01*
X51084819Y-68085952D02*
X51132438Y-67943095D01*
X51037200Y-66800238D02*
X52322914Y-67657380D01*
X51132438Y-65943095D02*
X51084819Y-66038333D01*
X51084819Y-66038333D02*
X51084819Y-66181190D01*
X51084819Y-66181190D02*
X51132438Y-66324047D01*
X51132438Y-66324047D02*
X51227676Y-66419285D01*
X51227676Y-66419285D02*
X51322914Y-66466904D01*
X51322914Y-66466904D02*
X51513390Y-66514523D01*
X51513390Y-66514523D02*
X51656247Y-66514523D01*
X51656247Y-66514523D02*
X51846723Y-66466904D01*
X51846723Y-66466904D02*
X51941961Y-66419285D01*
X51941961Y-66419285D02*
X52037200Y-66324047D01*
X52037200Y-66324047D02*
X52084819Y-66181190D01*
X52084819Y-66181190D02*
X52084819Y-66085952D01*
X52084819Y-66085952D02*
X52037200Y-65943095D01*
X52037200Y-65943095D02*
X51989580Y-65895476D01*
X51989580Y-65895476D02*
X51656247Y-65895476D01*
X51656247Y-65895476D02*
X51656247Y-66085952D01*
X52037200Y-65514523D02*
X52084819Y-65371666D01*
X52084819Y-65371666D02*
X52084819Y-65133571D01*
X52084819Y-65133571D02*
X52037200Y-65038333D01*
X52037200Y-65038333D02*
X51989580Y-64990714D01*
X51989580Y-64990714D02*
X51894342Y-64943095D01*
X51894342Y-64943095D02*
X51799104Y-64943095D01*
X51799104Y-64943095D02*
X51703866Y-64990714D01*
X51703866Y-64990714D02*
X51656247Y-65038333D01*
X51656247Y-65038333D02*
X51608628Y-65133571D01*
X51608628Y-65133571D02*
X51561009Y-65324047D01*
X51561009Y-65324047D02*
X51513390Y-65419285D01*
X51513390Y-65419285D02*
X51465771Y-65466904D01*
X51465771Y-65466904D02*
X51370533Y-65514523D01*
X51370533Y-65514523D02*
X51275295Y-65514523D01*
X51275295Y-65514523D02*
X51180057Y-65466904D01*
X51180057Y-65466904D02*
X51132438Y-65419285D01*
X51132438Y-65419285D02*
X51084819Y-65324047D01*
X51084819Y-65324047D02*
X51084819Y-65085952D01*
X51084819Y-65085952D02*
X51132438Y-64943095D01*
X52084819Y-64514523D02*
X51084819Y-64514523D01*
X51084819Y-64514523D02*
X51799104Y-64181190D01*
X51799104Y-64181190D02*
X51084819Y-63847857D01*
X51084819Y-63847857D02*
X52084819Y-63847857D01*
X52084819Y-63371666D02*
X51084819Y-63371666D01*
X51084819Y-63371666D02*
X51799104Y-63038333D01*
X51799104Y-63038333D02*
X51084819Y-62705000D01*
X51084819Y-62705000D02*
X52084819Y-62705000D01*
X51084819Y-62038333D02*
X51084819Y-61847857D01*
X51084819Y-61847857D02*
X51132438Y-61752619D01*
X51132438Y-61752619D02*
X51227676Y-61657381D01*
X51227676Y-61657381D02*
X51418152Y-61609762D01*
X51418152Y-61609762D02*
X51751485Y-61609762D01*
X51751485Y-61609762D02*
X51941961Y-61657381D01*
X51941961Y-61657381D02*
X52037200Y-61752619D01*
X52037200Y-61752619D02*
X52084819Y-61847857D01*
X52084819Y-61847857D02*
X52084819Y-62038333D01*
X52084819Y-62038333D02*
X52037200Y-62133571D01*
X52037200Y-62133571D02*
X51941961Y-62228809D01*
X51941961Y-62228809D02*
X51751485Y-62276428D01*
X51751485Y-62276428D02*
X51418152Y-62276428D01*
X51418152Y-62276428D02*
X51227676Y-62228809D01*
X51227676Y-62228809D02*
X51132438Y-62133571D01*
X51132438Y-62133571D02*
X51084819Y-62038333D01*
X52084819Y-61181190D02*
X51084819Y-61181190D01*
X51084819Y-61181190D02*
X51084819Y-60943095D01*
X51084819Y-60943095D02*
X51132438Y-60800238D01*
X51132438Y-60800238D02*
X51227676Y-60705000D01*
X51227676Y-60705000D02*
X51322914Y-60657381D01*
X51322914Y-60657381D02*
X51513390Y-60609762D01*
X51513390Y-60609762D02*
X51656247Y-60609762D01*
X51656247Y-60609762D02*
X51846723Y-60657381D01*
X51846723Y-60657381D02*
X51941961Y-60705000D01*
X51941961Y-60705000D02*
X52037200Y-60800238D01*
X52037200Y-60800238D02*
X52084819Y-60943095D01*
X52084819Y-60943095D02*
X52084819Y-61181190D01*
X51084819Y-60181190D02*
X51894342Y-60181190D01*
X51894342Y-60181190D02*
X51989580Y-60133571D01*
X51989580Y-60133571D02*
X52037200Y-60085952D01*
X52037200Y-60085952D02*
X52084819Y-59990714D01*
X52084819Y-59990714D02*
X52084819Y-59800238D01*
X52084819Y-59800238D02*
X52037200Y-59705000D01*
X52037200Y-59705000D02*
X51989580Y-59657381D01*
X51989580Y-59657381D02*
X51894342Y-59609762D01*
X51894342Y-59609762D02*
X51084819Y-59609762D01*
X52084819Y-58657381D02*
X52084819Y-59133571D01*
X52084819Y-59133571D02*
X51084819Y-59133571D01*
X51561009Y-58324047D02*
X51561009Y-57990714D01*
X52084819Y-57847857D02*
X52084819Y-58324047D01*
X52084819Y-58324047D02*
X51084819Y-58324047D01*
X51084819Y-58324047D02*
X51084819Y-57847857D01*
X52084819Y-56895476D02*
X52084819Y-57466904D01*
X52084819Y-57181190D02*
X51084819Y-57181190D01*
X51084819Y-57181190D02*
X51227676Y-57276428D01*
X51227676Y-57276428D02*
X51322914Y-57371666D01*
X51322914Y-57371666D02*
X51370533Y-57466904D01*
X139475476Y-64225519D02*
X139475476Y-64939804D01*
X139475476Y-64939804D02*
X139427857Y-65082661D01*
X139427857Y-65082661D02*
X139332619Y-65177900D01*
X139332619Y-65177900D02*
X139189762Y-65225519D01*
X139189762Y-65225519D02*
X139094524Y-65225519D01*
X139904048Y-64320757D02*
X139951667Y-64273138D01*
X139951667Y-64273138D02*
X140046905Y-64225519D01*
X140046905Y-64225519D02*
X140285000Y-64225519D01*
X140285000Y-64225519D02*
X140380238Y-64273138D01*
X140380238Y-64273138D02*
X140427857Y-64320757D01*
X140427857Y-64320757D02*
X140475476Y-64415995D01*
X140475476Y-64415995D02*
X140475476Y-64511233D01*
X140475476Y-64511233D02*
X140427857Y-64654090D01*
X140427857Y-64654090D02*
X139856429Y-65225519D01*
X139856429Y-65225519D02*
X140475476Y-65225519D01*
X140951667Y-65225519D02*
X141142143Y-65225519D01*
X141142143Y-65225519D02*
X141237381Y-65177900D01*
X141237381Y-65177900D02*
X141285000Y-65130280D01*
X141285000Y-65130280D02*
X141380238Y-64987423D01*
X141380238Y-64987423D02*
X141427857Y-64796947D01*
X141427857Y-64796947D02*
X141427857Y-64415995D01*
X141427857Y-64415995D02*
X141380238Y-64320757D01*
X141380238Y-64320757D02*
X141332619Y-64273138D01*
X141332619Y-64273138D02*
X141237381Y-64225519D01*
X141237381Y-64225519D02*
X141046905Y-64225519D01*
X141046905Y-64225519D02*
X140951667Y-64273138D01*
X140951667Y-64273138D02*
X140904048Y-64320757D01*
X140904048Y-64320757D02*
X140856429Y-64415995D01*
X140856429Y-64415995D02*
X140856429Y-64654090D01*
X140856429Y-64654090D02*
X140904048Y-64749328D01*
X140904048Y-64749328D02*
X140951667Y-64796947D01*
X140951667Y-64796947D02*
X141046905Y-64844566D01*
X141046905Y-64844566D02*
X141237381Y-64844566D01*
X141237381Y-64844566D02*
X141332619Y-64796947D01*
X141332619Y-64796947D02*
X141380238Y-64749328D01*
X141380238Y-64749328D02*
X141427857Y-64654090D01*
X141555476Y-140585519D02*
X141555476Y-141299804D01*
X141555476Y-141299804D02*
X141507857Y-141442661D01*
X141507857Y-141442661D02*
X141412619Y-141537900D01*
X141412619Y-141537900D02*
X141269762Y-141585519D01*
X141269762Y-141585519D02*
X141174524Y-141585519D01*
X142555476Y-141585519D02*
X141984048Y-141585519D01*
X142269762Y-141585519D02*
X142269762Y-140585519D01*
X142269762Y-140585519D02*
X142174524Y-140728376D01*
X142174524Y-140728376D02*
X142079286Y-140823614D01*
X142079286Y-140823614D02*
X141984048Y-140871233D01*
X142936429Y-140680757D02*
X142984048Y-140633138D01*
X142984048Y-140633138D02*
X143079286Y-140585519D01*
X143079286Y-140585519D02*
X143317381Y-140585519D01*
X143317381Y-140585519D02*
X143412619Y-140633138D01*
X143412619Y-140633138D02*
X143460238Y-140680757D01*
X143460238Y-140680757D02*
X143507857Y-140775995D01*
X143507857Y-140775995D02*
X143507857Y-140871233D01*
X143507857Y-140871233D02*
X143460238Y-141014090D01*
X143460238Y-141014090D02*
X142888810Y-141585519D01*
X142888810Y-141585519D02*
X143507857Y-141585519D01*
X139475476Y-39489819D02*
X139475476Y-40204104D01*
X139475476Y-40204104D02*
X139427857Y-40346961D01*
X139427857Y-40346961D02*
X139332619Y-40442200D01*
X139332619Y-40442200D02*
X139189762Y-40489819D01*
X139189762Y-40489819D02*
X139094524Y-40489819D01*
X139904048Y-39585057D02*
X139951667Y-39537438D01*
X139951667Y-39537438D02*
X140046905Y-39489819D01*
X140046905Y-39489819D02*
X140285000Y-39489819D01*
X140285000Y-39489819D02*
X140380238Y-39537438D01*
X140380238Y-39537438D02*
X140427857Y-39585057D01*
X140427857Y-39585057D02*
X140475476Y-39680295D01*
X140475476Y-39680295D02*
X140475476Y-39775533D01*
X140475476Y-39775533D02*
X140427857Y-39918390D01*
X140427857Y-39918390D02*
X139856429Y-40489819D01*
X139856429Y-40489819D02*
X140475476Y-40489819D01*
X141332619Y-39823152D02*
X141332619Y-40489819D01*
X141094524Y-39442200D02*
X140856429Y-40156485D01*
X140856429Y-40156485D02*
X141475476Y-40156485D01*
X139475476Y-88961219D02*
X139475476Y-89675504D01*
X139475476Y-89675504D02*
X139427857Y-89818361D01*
X139427857Y-89818361D02*
X139332619Y-89913600D01*
X139332619Y-89913600D02*
X139189762Y-89961219D01*
X139189762Y-89961219D02*
X139094524Y-89961219D01*
X139856429Y-88961219D02*
X140475476Y-88961219D01*
X140475476Y-88961219D02*
X140142143Y-89342171D01*
X140142143Y-89342171D02*
X140285000Y-89342171D01*
X140285000Y-89342171D02*
X140380238Y-89389790D01*
X140380238Y-89389790D02*
X140427857Y-89437409D01*
X140427857Y-89437409D02*
X140475476Y-89532647D01*
X140475476Y-89532647D02*
X140475476Y-89770742D01*
X140475476Y-89770742D02*
X140427857Y-89865980D01*
X140427857Y-89865980D02*
X140380238Y-89913600D01*
X140380238Y-89913600D02*
X140285000Y-89961219D01*
X140285000Y-89961219D02*
X139999286Y-89961219D01*
X139999286Y-89961219D02*
X139904048Y-89913600D01*
X139904048Y-89913600D02*
X139856429Y-89865980D01*
X141332619Y-89294552D02*
X141332619Y-89961219D01*
X141094524Y-88913600D02*
X140856429Y-89627885D01*
X140856429Y-89627885D02*
X141475476Y-89627885D01*
X37094999Y-163204580D02*
X37047380Y-163252200D01*
X37047380Y-163252200D02*
X36904523Y-163299819D01*
X36904523Y-163299819D02*
X36809285Y-163299819D01*
X36809285Y-163299819D02*
X36666428Y-163252200D01*
X36666428Y-163252200D02*
X36571190Y-163156961D01*
X36571190Y-163156961D02*
X36523571Y-163061723D01*
X36523571Y-163061723D02*
X36475952Y-162871247D01*
X36475952Y-162871247D02*
X36475952Y-162728390D01*
X36475952Y-162728390D02*
X36523571Y-162537914D01*
X36523571Y-162537914D02*
X36571190Y-162442676D01*
X36571190Y-162442676D02*
X36666428Y-162347438D01*
X36666428Y-162347438D02*
X36809285Y-162299819D01*
X36809285Y-162299819D02*
X36904523Y-162299819D01*
X36904523Y-162299819D02*
X37047380Y-162347438D01*
X37047380Y-162347438D02*
X37094999Y-162395057D01*
X37523571Y-162299819D02*
X37523571Y-163109342D01*
X37523571Y-163109342D02*
X37571190Y-163204580D01*
X37571190Y-163204580D02*
X37618809Y-163252200D01*
X37618809Y-163252200D02*
X37714047Y-163299819D01*
X37714047Y-163299819D02*
X37904523Y-163299819D01*
X37904523Y-163299819D02*
X37999761Y-163252200D01*
X37999761Y-163252200D02*
X38047380Y-163204580D01*
X38047380Y-163204580D02*
X38094999Y-163109342D01*
X38094999Y-163109342D02*
X38094999Y-162299819D01*
X39142618Y-163299819D02*
X38809285Y-162823628D01*
X38571190Y-163299819D02*
X38571190Y-162299819D01*
X38571190Y-162299819D02*
X38952142Y-162299819D01*
X38952142Y-162299819D02*
X39047380Y-162347438D01*
X39047380Y-162347438D02*
X39094999Y-162395057D01*
X39094999Y-162395057D02*
X39142618Y-162490295D01*
X39142618Y-162490295D02*
X39142618Y-162633152D01*
X39142618Y-162633152D02*
X39094999Y-162728390D01*
X39094999Y-162728390D02*
X39047380Y-162776009D01*
X39047380Y-162776009D02*
X38952142Y-162823628D01*
X38952142Y-162823628D02*
X38571190Y-162823628D01*
X40142618Y-163299819D02*
X39809285Y-162823628D01*
X39571190Y-163299819D02*
X39571190Y-162299819D01*
X39571190Y-162299819D02*
X39952142Y-162299819D01*
X39952142Y-162299819D02*
X40047380Y-162347438D01*
X40047380Y-162347438D02*
X40094999Y-162395057D01*
X40094999Y-162395057D02*
X40142618Y-162490295D01*
X40142618Y-162490295D02*
X40142618Y-162633152D01*
X40142618Y-162633152D02*
X40094999Y-162728390D01*
X40094999Y-162728390D02*
X40047380Y-162776009D01*
X40047380Y-162776009D02*
X39952142Y-162823628D01*
X39952142Y-162823628D02*
X39571190Y-162823628D01*
X40571190Y-162776009D02*
X40904523Y-162776009D01*
X41047380Y-163299819D02*
X40571190Y-163299819D01*
X40571190Y-163299819D02*
X40571190Y-162299819D01*
X40571190Y-162299819D02*
X41047380Y-162299819D01*
X41475952Y-163299819D02*
X41475952Y-162299819D01*
X41475952Y-162299819D02*
X42047380Y-163299819D01*
X42047380Y-163299819D02*
X42047380Y-162299819D01*
X42380714Y-162299819D02*
X42952142Y-162299819D01*
X42666428Y-163299819D02*
X42666428Y-162299819D01*
X43237857Y-163252200D02*
X43380714Y-163299819D01*
X43380714Y-163299819D02*
X43618809Y-163299819D01*
X43618809Y-163299819D02*
X43714047Y-163252200D01*
X43714047Y-163252200D02*
X43761666Y-163204580D01*
X43761666Y-163204580D02*
X43809285Y-163109342D01*
X43809285Y-163109342D02*
X43809285Y-163014104D01*
X43809285Y-163014104D02*
X43761666Y-162918866D01*
X43761666Y-162918866D02*
X43714047Y-162871247D01*
X43714047Y-162871247D02*
X43618809Y-162823628D01*
X43618809Y-162823628D02*
X43428333Y-162776009D01*
X43428333Y-162776009D02*
X43333095Y-162728390D01*
X43333095Y-162728390D02*
X43285476Y-162680771D01*
X43285476Y-162680771D02*
X43237857Y-162585533D01*
X43237857Y-162585533D02*
X43237857Y-162490295D01*
X43237857Y-162490295D02*
X43285476Y-162395057D01*
X43285476Y-162395057D02*
X43333095Y-162347438D01*
X43333095Y-162347438D02*
X43428333Y-162299819D01*
X43428333Y-162299819D02*
X43666428Y-162299819D01*
X43666428Y-162299819D02*
X43809285Y-162347438D01*
X44237857Y-162776009D02*
X44571190Y-162776009D01*
X44714047Y-163299819D02*
X44237857Y-163299819D01*
X44237857Y-163299819D02*
X44237857Y-162299819D01*
X44237857Y-162299819D02*
X44714047Y-162299819D01*
X45142619Y-163299819D02*
X45142619Y-162299819D01*
X45142619Y-162299819D02*
X45714047Y-163299819D01*
X45714047Y-163299819D02*
X45714047Y-162299819D01*
X46142619Y-163252200D02*
X46285476Y-163299819D01*
X46285476Y-163299819D02*
X46523571Y-163299819D01*
X46523571Y-163299819D02*
X46618809Y-163252200D01*
X46618809Y-163252200D02*
X46666428Y-163204580D01*
X46666428Y-163204580D02*
X46714047Y-163109342D01*
X46714047Y-163109342D02*
X46714047Y-163014104D01*
X46714047Y-163014104D02*
X46666428Y-162918866D01*
X46666428Y-162918866D02*
X46618809Y-162871247D01*
X46618809Y-162871247D02*
X46523571Y-162823628D01*
X46523571Y-162823628D02*
X46333095Y-162776009D01*
X46333095Y-162776009D02*
X46237857Y-162728390D01*
X46237857Y-162728390D02*
X46190238Y-162680771D01*
X46190238Y-162680771D02*
X46142619Y-162585533D01*
X46142619Y-162585533D02*
X46142619Y-162490295D01*
X46142619Y-162490295D02*
X46190238Y-162395057D01*
X46190238Y-162395057D02*
X46237857Y-162347438D01*
X46237857Y-162347438D02*
X46333095Y-162299819D01*
X46333095Y-162299819D02*
X46571190Y-162299819D01*
X46571190Y-162299819D02*
X46714047Y-162347438D01*
X47333095Y-162299819D02*
X47523571Y-162299819D01*
X47523571Y-162299819D02*
X47618809Y-162347438D01*
X47618809Y-162347438D02*
X47714047Y-162442676D01*
X47714047Y-162442676D02*
X47761666Y-162633152D01*
X47761666Y-162633152D02*
X47761666Y-162966485D01*
X47761666Y-162966485D02*
X47714047Y-163156961D01*
X47714047Y-163156961D02*
X47618809Y-163252200D01*
X47618809Y-163252200D02*
X47523571Y-163299819D01*
X47523571Y-163299819D02*
X47333095Y-163299819D01*
X47333095Y-163299819D02*
X47237857Y-163252200D01*
X47237857Y-163252200D02*
X47142619Y-163156961D01*
X47142619Y-163156961D02*
X47095000Y-162966485D01*
X47095000Y-162966485D02*
X47095000Y-162633152D01*
X47095000Y-162633152D02*
X47142619Y-162442676D01*
X47142619Y-162442676D02*
X47237857Y-162347438D01*
X47237857Y-162347438D02*
X47333095Y-162299819D01*
X48761666Y-163299819D02*
X48428333Y-162823628D01*
X48190238Y-163299819D02*
X48190238Y-162299819D01*
X48190238Y-162299819D02*
X48571190Y-162299819D01*
X48571190Y-162299819D02*
X48666428Y-162347438D01*
X48666428Y-162347438D02*
X48714047Y-162395057D01*
X48714047Y-162395057D02*
X48761666Y-162490295D01*
X48761666Y-162490295D02*
X48761666Y-162633152D01*
X48761666Y-162633152D02*
X48714047Y-162728390D01*
X48714047Y-162728390D02*
X48666428Y-162776009D01*
X48666428Y-162776009D02*
X48571190Y-162823628D01*
X48571190Y-162823628D02*
X48190238Y-162823628D01*
X49714047Y-163299819D02*
X49142619Y-163299819D01*
X49428333Y-163299819D02*
X49428333Y-162299819D01*
X49428333Y-162299819D02*
X49333095Y-162442676D01*
X49333095Y-162442676D02*
X49237857Y-162537914D01*
X49237857Y-162537914D02*
X49142619Y-162585533D01*
X139475476Y-44436919D02*
X139475476Y-45151204D01*
X139475476Y-45151204D02*
X139427857Y-45294061D01*
X139427857Y-45294061D02*
X139332619Y-45389300D01*
X139332619Y-45389300D02*
X139189762Y-45436919D01*
X139189762Y-45436919D02*
X139094524Y-45436919D01*
X139904048Y-44532157D02*
X139951667Y-44484538D01*
X139951667Y-44484538D02*
X140046905Y-44436919D01*
X140046905Y-44436919D02*
X140285000Y-44436919D01*
X140285000Y-44436919D02*
X140380238Y-44484538D01*
X140380238Y-44484538D02*
X140427857Y-44532157D01*
X140427857Y-44532157D02*
X140475476Y-44627395D01*
X140475476Y-44627395D02*
X140475476Y-44722633D01*
X140475476Y-44722633D02*
X140427857Y-44865490D01*
X140427857Y-44865490D02*
X139856429Y-45436919D01*
X139856429Y-45436919D02*
X140475476Y-45436919D01*
X141380238Y-44436919D02*
X140904048Y-44436919D01*
X140904048Y-44436919D02*
X140856429Y-44913109D01*
X140856429Y-44913109D02*
X140904048Y-44865490D01*
X140904048Y-44865490D02*
X140999286Y-44817871D01*
X140999286Y-44817871D02*
X141237381Y-44817871D01*
X141237381Y-44817871D02*
X141332619Y-44865490D01*
X141332619Y-44865490D02*
X141380238Y-44913109D01*
X141380238Y-44913109D02*
X141427857Y-45008347D01*
X141427857Y-45008347D02*
X141427857Y-45246442D01*
X141427857Y-45246442D02*
X141380238Y-45341680D01*
X141380238Y-45341680D02*
X141332619Y-45389300D01*
X141332619Y-45389300D02*
X141237381Y-45436919D01*
X141237381Y-45436919D02*
X140999286Y-45436919D01*
X140999286Y-45436919D02*
X140904048Y-45389300D01*
X140904048Y-45389300D02*
X140856429Y-45341680D01*
X44611190Y-119069819D02*
X44039762Y-119069819D01*
X44325476Y-119069819D02*
X44325476Y-118069819D01*
X44325476Y-118069819D02*
X44230238Y-118212676D01*
X44230238Y-118212676D02*
X44135000Y-118307914D01*
X44135000Y-118307914D02*
X44039762Y-118355533D01*
X44992143Y-118165057D02*
X45039762Y-118117438D01*
X45039762Y-118117438D02*
X45135000Y-118069819D01*
X45135000Y-118069819D02*
X45373095Y-118069819D01*
X45373095Y-118069819D02*
X45468333Y-118117438D01*
X45468333Y-118117438D02*
X45515952Y-118165057D01*
X45515952Y-118165057D02*
X45563571Y-118260295D01*
X45563571Y-118260295D02*
X45563571Y-118355533D01*
X45563571Y-118355533D02*
X45515952Y-118498390D01*
X45515952Y-118498390D02*
X44944524Y-119069819D01*
X44944524Y-119069819D02*
X45563571Y-119069819D01*
X45849286Y-118069819D02*
X46182619Y-119069819D01*
X46182619Y-119069819D02*
X46515952Y-118069819D01*
X47039762Y-118069819D02*
X47230238Y-118069819D01*
X47230238Y-118069819D02*
X47325476Y-118117438D01*
X47325476Y-118117438D02*
X47420714Y-118212676D01*
X47420714Y-118212676D02*
X47468333Y-118403152D01*
X47468333Y-118403152D02*
X47468333Y-118736485D01*
X47468333Y-118736485D02*
X47420714Y-118926961D01*
X47420714Y-118926961D02*
X47325476Y-119022200D01*
X47325476Y-119022200D02*
X47230238Y-119069819D01*
X47230238Y-119069819D02*
X47039762Y-119069819D01*
X47039762Y-119069819D02*
X46944524Y-119022200D01*
X46944524Y-119022200D02*
X46849286Y-118926961D01*
X46849286Y-118926961D02*
X46801667Y-118736485D01*
X46801667Y-118736485D02*
X46801667Y-118403152D01*
X46801667Y-118403152D02*
X46849286Y-118212676D01*
X46849286Y-118212676D02*
X46944524Y-118117438D01*
X46944524Y-118117438D02*
X47039762Y-118069819D01*
X47896905Y-118069819D02*
X47896905Y-118879342D01*
X47896905Y-118879342D02*
X47944524Y-118974580D01*
X47944524Y-118974580D02*
X47992143Y-119022200D01*
X47992143Y-119022200D02*
X48087381Y-119069819D01*
X48087381Y-119069819D02*
X48277857Y-119069819D01*
X48277857Y-119069819D02*
X48373095Y-119022200D01*
X48373095Y-119022200D02*
X48420714Y-118974580D01*
X48420714Y-118974580D02*
X48468333Y-118879342D01*
X48468333Y-118879342D02*
X48468333Y-118069819D01*
X48801667Y-118069819D02*
X49373095Y-118069819D01*
X49087381Y-119069819D02*
X49087381Y-118069819D01*
X50230238Y-119069819D02*
X49658810Y-119069819D01*
X49944524Y-119069819D02*
X49944524Y-118069819D01*
X49944524Y-118069819D02*
X49849286Y-118212676D01*
X49849286Y-118212676D02*
X49754048Y-118307914D01*
X49754048Y-118307914D02*
X49658810Y-118355533D01*
X139475476Y-93908419D02*
X139475476Y-94622704D01*
X139475476Y-94622704D02*
X139427857Y-94765561D01*
X139427857Y-94765561D02*
X139332619Y-94860800D01*
X139332619Y-94860800D02*
X139189762Y-94908419D01*
X139189762Y-94908419D02*
X139094524Y-94908419D01*
X139856429Y-93908419D02*
X140475476Y-93908419D01*
X140475476Y-93908419D02*
X140142143Y-94289371D01*
X140142143Y-94289371D02*
X140285000Y-94289371D01*
X140285000Y-94289371D02*
X140380238Y-94336990D01*
X140380238Y-94336990D02*
X140427857Y-94384609D01*
X140427857Y-94384609D02*
X140475476Y-94479847D01*
X140475476Y-94479847D02*
X140475476Y-94717942D01*
X140475476Y-94717942D02*
X140427857Y-94813180D01*
X140427857Y-94813180D02*
X140380238Y-94860800D01*
X140380238Y-94860800D02*
X140285000Y-94908419D01*
X140285000Y-94908419D02*
X139999286Y-94908419D01*
X139999286Y-94908419D02*
X139904048Y-94860800D01*
X139904048Y-94860800D02*
X139856429Y-94813180D01*
X141380238Y-93908419D02*
X140904048Y-93908419D01*
X140904048Y-93908419D02*
X140856429Y-94384609D01*
X140856429Y-94384609D02*
X140904048Y-94336990D01*
X140904048Y-94336990D02*
X140999286Y-94289371D01*
X140999286Y-94289371D02*
X141237381Y-94289371D01*
X141237381Y-94289371D02*
X141332619Y-94336990D01*
X141332619Y-94336990D02*
X141380238Y-94384609D01*
X141380238Y-94384609D02*
X141427857Y-94479847D01*
X141427857Y-94479847D02*
X141427857Y-94717942D01*
X141427857Y-94717942D02*
X141380238Y-94813180D01*
X141380238Y-94813180D02*
X141332619Y-94860800D01*
X141332619Y-94860800D02*
X141237381Y-94908419D01*
X141237381Y-94908419D02*
X140999286Y-94908419D01*
X140999286Y-94908419D02*
X140904048Y-94860800D01*
X140904048Y-94860800D02*
X140856429Y-94813180D01*
X141555476Y-162014119D02*
X141555476Y-162728404D01*
X141555476Y-162728404D02*
X141507857Y-162871261D01*
X141507857Y-162871261D02*
X141412619Y-162966500D01*
X141412619Y-162966500D02*
X141269762Y-163014119D01*
X141269762Y-163014119D02*
X141174524Y-163014119D01*
X142555476Y-163014119D02*
X141984048Y-163014119D01*
X142269762Y-163014119D02*
X142269762Y-162014119D01*
X142269762Y-162014119D02*
X142174524Y-162156976D01*
X142174524Y-162156976D02*
X142079286Y-162252214D01*
X142079286Y-162252214D02*
X141984048Y-162299833D01*
X142888810Y-162014119D02*
X143555476Y-162014119D01*
X143555476Y-162014119D02*
X143126905Y-163014119D01*
X44817857Y-131569819D02*
X44246429Y-131569819D01*
X44532143Y-131569819D02*
X44532143Y-130569819D01*
X44532143Y-130569819D02*
X44436905Y-130712676D01*
X44436905Y-130712676D02*
X44341667Y-130807914D01*
X44341667Y-130807914D02*
X44246429Y-130855533D01*
X45198810Y-130665057D02*
X45246429Y-130617438D01*
X45246429Y-130617438D02*
X45341667Y-130569819D01*
X45341667Y-130569819D02*
X45579762Y-130569819D01*
X45579762Y-130569819D02*
X45675000Y-130617438D01*
X45675000Y-130617438D02*
X45722619Y-130665057D01*
X45722619Y-130665057D02*
X45770238Y-130760295D01*
X45770238Y-130760295D02*
X45770238Y-130855533D01*
X45770238Y-130855533D02*
X45722619Y-130998390D01*
X45722619Y-130998390D02*
X45151191Y-131569819D01*
X45151191Y-131569819D02*
X45770238Y-131569819D01*
X46055953Y-130569819D02*
X46389286Y-131569819D01*
X46389286Y-131569819D02*
X46722619Y-130569819D01*
X47055953Y-131569819D02*
X47055953Y-130569819D01*
X47532143Y-131569819D02*
X47532143Y-130569819D01*
X47532143Y-130569819D02*
X48103571Y-131569819D01*
X48103571Y-131569819D02*
X48103571Y-130569819D01*
X49103571Y-131569819D02*
X48532143Y-131569819D01*
X48817857Y-131569819D02*
X48817857Y-130569819D01*
X48817857Y-130569819D02*
X48722619Y-130712676D01*
X48722619Y-130712676D02*
X48627381Y-130807914D01*
X48627381Y-130807914D02*
X48532143Y-130855533D01*
X139475476Y-74119819D02*
X139475476Y-74834104D01*
X139475476Y-74834104D02*
X139427857Y-74976961D01*
X139427857Y-74976961D02*
X139332619Y-75072200D01*
X139332619Y-75072200D02*
X139189762Y-75119819D01*
X139189762Y-75119819D02*
X139094524Y-75119819D01*
X139856429Y-74119819D02*
X140475476Y-74119819D01*
X140475476Y-74119819D02*
X140142143Y-74500771D01*
X140142143Y-74500771D02*
X140285000Y-74500771D01*
X140285000Y-74500771D02*
X140380238Y-74548390D01*
X140380238Y-74548390D02*
X140427857Y-74596009D01*
X140427857Y-74596009D02*
X140475476Y-74691247D01*
X140475476Y-74691247D02*
X140475476Y-74929342D01*
X140475476Y-74929342D02*
X140427857Y-75024580D01*
X140427857Y-75024580D02*
X140380238Y-75072200D01*
X140380238Y-75072200D02*
X140285000Y-75119819D01*
X140285000Y-75119819D02*
X139999286Y-75119819D01*
X139999286Y-75119819D02*
X139904048Y-75072200D01*
X139904048Y-75072200D02*
X139856429Y-75024580D01*
X141427857Y-75119819D02*
X140856429Y-75119819D01*
X141142143Y-75119819D02*
X141142143Y-74119819D01*
X141142143Y-74119819D02*
X141046905Y-74262676D01*
X141046905Y-74262676D02*
X140951667Y-74357914D01*
X140951667Y-74357914D02*
X140856429Y-74405533D01*
X141555476Y-153442719D02*
X141555476Y-154157004D01*
X141555476Y-154157004D02*
X141507857Y-154299861D01*
X141507857Y-154299861D02*
X141412619Y-154395100D01*
X141412619Y-154395100D02*
X141269762Y-154442719D01*
X141269762Y-154442719D02*
X141174524Y-154442719D01*
X142555476Y-154442719D02*
X141984048Y-154442719D01*
X142269762Y-154442719D02*
X142269762Y-153442719D01*
X142269762Y-153442719D02*
X142174524Y-153585576D01*
X142174524Y-153585576D02*
X142079286Y-153680814D01*
X142079286Y-153680814D02*
X141984048Y-153728433D01*
X143460238Y-153442719D02*
X142984048Y-153442719D01*
X142984048Y-153442719D02*
X142936429Y-153918909D01*
X142936429Y-153918909D02*
X142984048Y-153871290D01*
X142984048Y-153871290D02*
X143079286Y-153823671D01*
X143079286Y-153823671D02*
X143317381Y-153823671D01*
X143317381Y-153823671D02*
X143412619Y-153871290D01*
X143412619Y-153871290D02*
X143460238Y-153918909D01*
X143460238Y-153918909D02*
X143507857Y-154014147D01*
X143507857Y-154014147D02*
X143507857Y-154252242D01*
X143507857Y-154252242D02*
X143460238Y-154347480D01*
X143460238Y-154347480D02*
X143412619Y-154395100D01*
X143412619Y-154395100D02*
X143317381Y-154442719D01*
X143317381Y-154442719D02*
X143079286Y-154442719D01*
X143079286Y-154442719D02*
X142984048Y-154395100D01*
X142984048Y-154395100D02*
X142936429Y-154347480D01*
X139475476Y-79066919D02*
X139475476Y-79781204D01*
X139475476Y-79781204D02*
X139427857Y-79924061D01*
X139427857Y-79924061D02*
X139332619Y-80019300D01*
X139332619Y-80019300D02*
X139189762Y-80066919D01*
X139189762Y-80066919D02*
X139094524Y-80066919D01*
X139856429Y-79066919D02*
X140475476Y-79066919D01*
X140475476Y-79066919D02*
X140142143Y-79447871D01*
X140142143Y-79447871D02*
X140285000Y-79447871D01*
X140285000Y-79447871D02*
X140380238Y-79495490D01*
X140380238Y-79495490D02*
X140427857Y-79543109D01*
X140427857Y-79543109D02*
X140475476Y-79638347D01*
X140475476Y-79638347D02*
X140475476Y-79876442D01*
X140475476Y-79876442D02*
X140427857Y-79971680D01*
X140427857Y-79971680D02*
X140380238Y-80019300D01*
X140380238Y-80019300D02*
X140285000Y-80066919D01*
X140285000Y-80066919D02*
X139999286Y-80066919D01*
X139999286Y-80066919D02*
X139904048Y-80019300D01*
X139904048Y-80019300D02*
X139856429Y-79971680D01*
X140856429Y-79162157D02*
X140904048Y-79114538D01*
X140904048Y-79114538D02*
X140999286Y-79066919D01*
X140999286Y-79066919D02*
X141237381Y-79066919D01*
X141237381Y-79066919D02*
X141332619Y-79114538D01*
X141332619Y-79114538D02*
X141380238Y-79162157D01*
X141380238Y-79162157D02*
X141427857Y-79257395D01*
X141427857Y-79257395D02*
X141427857Y-79352633D01*
X141427857Y-79352633D02*
X141380238Y-79495490D01*
X141380238Y-79495490D02*
X140808810Y-80066919D01*
X140808810Y-80066919D02*
X141427857Y-80066919D01*
X45286428Y-142569819D02*
X44810238Y-142569819D01*
X44810238Y-142569819D02*
X44762619Y-143046009D01*
X44762619Y-143046009D02*
X44810238Y-142998390D01*
X44810238Y-142998390D02*
X44905476Y-142950771D01*
X44905476Y-142950771D02*
X45143571Y-142950771D01*
X45143571Y-142950771D02*
X45238809Y-142998390D01*
X45238809Y-142998390D02*
X45286428Y-143046009D01*
X45286428Y-143046009D02*
X45334047Y-143141247D01*
X45334047Y-143141247D02*
X45334047Y-143379342D01*
X45334047Y-143379342D02*
X45286428Y-143474580D01*
X45286428Y-143474580D02*
X45238809Y-143522200D01*
X45238809Y-143522200D02*
X45143571Y-143569819D01*
X45143571Y-143569819D02*
X44905476Y-143569819D01*
X44905476Y-143569819D02*
X44810238Y-143522200D01*
X44810238Y-143522200D02*
X44762619Y-143474580D01*
X45619762Y-142569819D02*
X45953095Y-143569819D01*
X45953095Y-143569819D02*
X46286428Y-142569819D01*
X46619762Y-143569819D02*
X46619762Y-142569819D01*
X47095952Y-143569819D02*
X47095952Y-142569819D01*
X47095952Y-142569819D02*
X47667380Y-143569819D01*
X47667380Y-143569819D02*
X47667380Y-142569819D01*
X48667380Y-143569819D02*
X48095952Y-143569819D01*
X48381666Y-143569819D02*
X48381666Y-142569819D01*
X48381666Y-142569819D02*
X48286428Y-142712676D01*
X48286428Y-142712676D02*
X48191190Y-142807914D01*
X48191190Y-142807914D02*
X48095952Y-142855533D01*
X68756904Y-149540885D02*
X68756904Y-149064695D01*
X69042619Y-149636123D02*
X68042619Y-149302790D01*
X68042619Y-149302790D02*
X69042619Y-148969457D01*
X69042619Y-148112314D02*
X69042619Y-148683742D01*
X69042619Y-148398028D02*
X68042619Y-148398028D01*
X68042619Y-148398028D02*
X68185476Y-148493266D01*
X68185476Y-148493266D02*
X68280714Y-148588504D01*
X68280714Y-148588504D02*
X68328333Y-148683742D01*
X141555476Y-157728419D02*
X141555476Y-158442704D01*
X141555476Y-158442704D02*
X141507857Y-158585561D01*
X141507857Y-158585561D02*
X141412619Y-158680800D01*
X141412619Y-158680800D02*
X141269762Y-158728419D01*
X141269762Y-158728419D02*
X141174524Y-158728419D01*
X142555476Y-158728419D02*
X141984048Y-158728419D01*
X142269762Y-158728419D02*
X142269762Y-157728419D01*
X142269762Y-157728419D02*
X142174524Y-157871276D01*
X142174524Y-157871276D02*
X142079286Y-157966514D01*
X142079286Y-157966514D02*
X141984048Y-158014133D01*
X143412619Y-157728419D02*
X143222143Y-157728419D01*
X143222143Y-157728419D02*
X143126905Y-157776038D01*
X143126905Y-157776038D02*
X143079286Y-157823657D01*
X143079286Y-157823657D02*
X142984048Y-157966514D01*
X142984048Y-157966514D02*
X142936429Y-158156990D01*
X142936429Y-158156990D02*
X142936429Y-158537942D01*
X142936429Y-158537942D02*
X142984048Y-158633180D01*
X142984048Y-158633180D02*
X143031667Y-158680800D01*
X143031667Y-158680800D02*
X143126905Y-158728419D01*
X143126905Y-158728419D02*
X143317381Y-158728419D01*
X143317381Y-158728419D02*
X143412619Y-158680800D01*
X143412619Y-158680800D02*
X143460238Y-158633180D01*
X143460238Y-158633180D02*
X143507857Y-158537942D01*
X143507857Y-158537942D02*
X143507857Y-158299847D01*
X143507857Y-158299847D02*
X143460238Y-158204609D01*
X143460238Y-158204609D02*
X143412619Y-158156990D01*
X143412619Y-158156990D02*
X143317381Y-158109371D01*
X143317381Y-158109371D02*
X143126905Y-158109371D01*
X143126905Y-158109371D02*
X143031667Y-158156990D01*
X143031667Y-158156990D02*
X142984048Y-158204609D01*
X142984048Y-158204609D02*
X142936429Y-158299847D01*
X139475476Y-59278419D02*
X139475476Y-59992704D01*
X139475476Y-59992704D02*
X139427857Y-60135561D01*
X139427857Y-60135561D02*
X139332619Y-60230800D01*
X139332619Y-60230800D02*
X139189762Y-60278419D01*
X139189762Y-60278419D02*
X139094524Y-60278419D01*
X139904048Y-59373657D02*
X139951667Y-59326038D01*
X139951667Y-59326038D02*
X140046905Y-59278419D01*
X140046905Y-59278419D02*
X140285000Y-59278419D01*
X140285000Y-59278419D02*
X140380238Y-59326038D01*
X140380238Y-59326038D02*
X140427857Y-59373657D01*
X140427857Y-59373657D02*
X140475476Y-59468895D01*
X140475476Y-59468895D02*
X140475476Y-59564133D01*
X140475476Y-59564133D02*
X140427857Y-59706990D01*
X140427857Y-59706990D02*
X139856429Y-60278419D01*
X139856429Y-60278419D02*
X140475476Y-60278419D01*
X141046905Y-59706990D02*
X140951667Y-59659371D01*
X140951667Y-59659371D02*
X140904048Y-59611752D01*
X140904048Y-59611752D02*
X140856429Y-59516514D01*
X140856429Y-59516514D02*
X140856429Y-59468895D01*
X140856429Y-59468895D02*
X140904048Y-59373657D01*
X140904048Y-59373657D02*
X140951667Y-59326038D01*
X140951667Y-59326038D02*
X141046905Y-59278419D01*
X141046905Y-59278419D02*
X141237381Y-59278419D01*
X141237381Y-59278419D02*
X141332619Y-59326038D01*
X141332619Y-59326038D02*
X141380238Y-59373657D01*
X141380238Y-59373657D02*
X141427857Y-59468895D01*
X141427857Y-59468895D02*
X141427857Y-59516514D01*
X141427857Y-59516514D02*
X141380238Y-59611752D01*
X141380238Y-59611752D02*
X141332619Y-59659371D01*
X141332619Y-59659371D02*
X141237381Y-59706990D01*
X141237381Y-59706990D02*
X141046905Y-59706990D01*
X141046905Y-59706990D02*
X140951667Y-59754609D01*
X140951667Y-59754609D02*
X140904048Y-59802228D01*
X140904048Y-59802228D02*
X140856429Y-59897466D01*
X140856429Y-59897466D02*
X140856429Y-60087942D01*
X140856429Y-60087942D02*
X140904048Y-60183180D01*
X140904048Y-60183180D02*
X140951667Y-60230800D01*
X140951667Y-60230800D02*
X141046905Y-60278419D01*
X141046905Y-60278419D02*
X141237381Y-60278419D01*
X141237381Y-60278419D02*
X141332619Y-60230800D01*
X141332619Y-60230800D02*
X141380238Y-60183180D01*
X141380238Y-60183180D02*
X141427857Y-60087942D01*
X141427857Y-60087942D02*
X141427857Y-59897466D01*
X141427857Y-59897466D02*
X141380238Y-59802228D01*
X141380238Y-59802228D02*
X141332619Y-59754609D01*
X141332619Y-59754609D02*
X141237381Y-59706990D01*
X139475476Y-84014119D02*
X139475476Y-84728404D01*
X139475476Y-84728404D02*
X139427857Y-84871261D01*
X139427857Y-84871261D02*
X139332619Y-84966500D01*
X139332619Y-84966500D02*
X139189762Y-85014119D01*
X139189762Y-85014119D02*
X139094524Y-85014119D01*
X139856429Y-84014119D02*
X140475476Y-84014119D01*
X140475476Y-84014119D02*
X140142143Y-84395071D01*
X140142143Y-84395071D02*
X140285000Y-84395071D01*
X140285000Y-84395071D02*
X140380238Y-84442690D01*
X140380238Y-84442690D02*
X140427857Y-84490309D01*
X140427857Y-84490309D02*
X140475476Y-84585547D01*
X140475476Y-84585547D02*
X140475476Y-84823642D01*
X140475476Y-84823642D02*
X140427857Y-84918880D01*
X140427857Y-84918880D02*
X140380238Y-84966500D01*
X140380238Y-84966500D02*
X140285000Y-85014119D01*
X140285000Y-85014119D02*
X139999286Y-85014119D01*
X139999286Y-85014119D02*
X139904048Y-84966500D01*
X139904048Y-84966500D02*
X139856429Y-84918880D01*
X140808810Y-84014119D02*
X141427857Y-84014119D01*
X141427857Y-84014119D02*
X141094524Y-84395071D01*
X141094524Y-84395071D02*
X141237381Y-84395071D01*
X141237381Y-84395071D02*
X141332619Y-84442690D01*
X141332619Y-84442690D02*
X141380238Y-84490309D01*
X141380238Y-84490309D02*
X141427857Y-84585547D01*
X141427857Y-84585547D02*
X141427857Y-84823642D01*
X141427857Y-84823642D02*
X141380238Y-84918880D01*
X141380238Y-84918880D02*
X141332619Y-84966500D01*
X141332619Y-84966500D02*
X141237381Y-85014119D01*
X141237381Y-85014119D02*
X140951667Y-85014119D01*
X140951667Y-85014119D02*
X140856429Y-84966500D01*
X140856429Y-84966500D02*
X140808810Y-84918880D01*
X141555476Y-132014119D02*
X141555476Y-132728404D01*
X141555476Y-132728404D02*
X141507857Y-132871261D01*
X141507857Y-132871261D02*
X141412619Y-132966500D01*
X141412619Y-132966500D02*
X141269762Y-133014119D01*
X141269762Y-133014119D02*
X141174524Y-133014119D01*
X142555476Y-133014119D02*
X141984048Y-133014119D01*
X142269762Y-133014119D02*
X142269762Y-132014119D01*
X142269762Y-132014119D02*
X142174524Y-132156976D01*
X142174524Y-132156976D02*
X142079286Y-132252214D01*
X142079286Y-132252214D02*
X141984048Y-132299833D01*
X143174524Y-132014119D02*
X143269762Y-132014119D01*
X143269762Y-132014119D02*
X143365000Y-132061738D01*
X143365000Y-132061738D02*
X143412619Y-132109357D01*
X143412619Y-132109357D02*
X143460238Y-132204595D01*
X143460238Y-132204595D02*
X143507857Y-132395071D01*
X143507857Y-132395071D02*
X143507857Y-132633166D01*
X143507857Y-132633166D02*
X143460238Y-132823642D01*
X143460238Y-132823642D02*
X143412619Y-132918880D01*
X143412619Y-132918880D02*
X143365000Y-132966500D01*
X143365000Y-132966500D02*
X143269762Y-133014119D01*
X143269762Y-133014119D02*
X143174524Y-133014119D01*
X143174524Y-133014119D02*
X143079286Y-132966500D01*
X143079286Y-132966500D02*
X143031667Y-132918880D01*
X143031667Y-132918880D02*
X142984048Y-132823642D01*
X142984048Y-132823642D02*
X142936429Y-132633166D01*
X142936429Y-132633166D02*
X142936429Y-132395071D01*
X142936429Y-132395071D02*
X142984048Y-132204595D01*
X142984048Y-132204595D02*
X143031667Y-132109357D01*
X143031667Y-132109357D02*
X143079286Y-132061738D01*
X143079286Y-132061738D02*
X143174524Y-132014119D01*
X142031666Y-123442719D02*
X142031666Y-124157004D01*
X142031666Y-124157004D02*
X141984047Y-124299861D01*
X141984047Y-124299861D02*
X141888809Y-124395100D01*
X141888809Y-124395100D02*
X141745952Y-124442719D01*
X141745952Y-124442719D02*
X141650714Y-124442719D01*
X142650714Y-123871290D02*
X142555476Y-123823671D01*
X142555476Y-123823671D02*
X142507857Y-123776052D01*
X142507857Y-123776052D02*
X142460238Y-123680814D01*
X142460238Y-123680814D02*
X142460238Y-123633195D01*
X142460238Y-123633195D02*
X142507857Y-123537957D01*
X142507857Y-123537957D02*
X142555476Y-123490338D01*
X142555476Y-123490338D02*
X142650714Y-123442719D01*
X142650714Y-123442719D02*
X142841190Y-123442719D01*
X142841190Y-123442719D02*
X142936428Y-123490338D01*
X142936428Y-123490338D02*
X142984047Y-123537957D01*
X142984047Y-123537957D02*
X143031666Y-123633195D01*
X143031666Y-123633195D02*
X143031666Y-123680814D01*
X143031666Y-123680814D02*
X142984047Y-123776052D01*
X142984047Y-123776052D02*
X142936428Y-123823671D01*
X142936428Y-123823671D02*
X142841190Y-123871290D01*
X142841190Y-123871290D02*
X142650714Y-123871290D01*
X142650714Y-123871290D02*
X142555476Y-123918909D01*
X142555476Y-123918909D02*
X142507857Y-123966528D01*
X142507857Y-123966528D02*
X142460238Y-124061766D01*
X142460238Y-124061766D02*
X142460238Y-124252242D01*
X142460238Y-124252242D02*
X142507857Y-124347480D01*
X142507857Y-124347480D02*
X142555476Y-124395100D01*
X142555476Y-124395100D02*
X142650714Y-124442719D01*
X142650714Y-124442719D02*
X142841190Y-124442719D01*
X142841190Y-124442719D02*
X142936428Y-124395100D01*
X142936428Y-124395100D02*
X142984047Y-124347480D01*
X142984047Y-124347480D02*
X143031666Y-124252242D01*
X143031666Y-124252242D02*
X143031666Y-124061766D01*
X143031666Y-124061766D02*
X142984047Y-123966528D01*
X142984047Y-123966528D02*
X142936428Y-123918909D01*
X142936428Y-123918909D02*
X142841190Y-123871290D01*
X139475476Y-69172719D02*
X139475476Y-69887004D01*
X139475476Y-69887004D02*
X139427857Y-70029861D01*
X139427857Y-70029861D02*
X139332619Y-70125100D01*
X139332619Y-70125100D02*
X139189762Y-70172719D01*
X139189762Y-70172719D02*
X139094524Y-70172719D01*
X139856429Y-69172719D02*
X140475476Y-69172719D01*
X140475476Y-69172719D02*
X140142143Y-69553671D01*
X140142143Y-69553671D02*
X140285000Y-69553671D01*
X140285000Y-69553671D02*
X140380238Y-69601290D01*
X140380238Y-69601290D02*
X140427857Y-69648909D01*
X140427857Y-69648909D02*
X140475476Y-69744147D01*
X140475476Y-69744147D02*
X140475476Y-69982242D01*
X140475476Y-69982242D02*
X140427857Y-70077480D01*
X140427857Y-70077480D02*
X140380238Y-70125100D01*
X140380238Y-70125100D02*
X140285000Y-70172719D01*
X140285000Y-70172719D02*
X139999286Y-70172719D01*
X139999286Y-70172719D02*
X139904048Y-70125100D01*
X139904048Y-70125100D02*
X139856429Y-70077480D01*
X141094524Y-69172719D02*
X141189762Y-69172719D01*
X141189762Y-69172719D02*
X141285000Y-69220338D01*
X141285000Y-69220338D02*
X141332619Y-69267957D01*
X141332619Y-69267957D02*
X141380238Y-69363195D01*
X141380238Y-69363195D02*
X141427857Y-69553671D01*
X141427857Y-69553671D02*
X141427857Y-69791766D01*
X141427857Y-69791766D02*
X141380238Y-69982242D01*
X141380238Y-69982242D02*
X141332619Y-70077480D01*
X141332619Y-70077480D02*
X141285000Y-70125100D01*
X141285000Y-70125100D02*
X141189762Y-70172719D01*
X141189762Y-70172719D02*
X141094524Y-70172719D01*
X141094524Y-70172719D02*
X140999286Y-70125100D01*
X140999286Y-70125100D02*
X140951667Y-70077480D01*
X140951667Y-70077480D02*
X140904048Y-69982242D01*
X140904048Y-69982242D02*
X140856429Y-69791766D01*
X140856429Y-69791766D02*
X140856429Y-69553671D01*
X140856429Y-69553671D02*
X140904048Y-69363195D01*
X140904048Y-69363195D02*
X140951667Y-69267957D01*
X140951667Y-69267957D02*
X140999286Y-69220338D01*
X140999286Y-69220338D02*
X141094524Y-69172719D01*
X141555476Y-136299819D02*
X141555476Y-137014104D01*
X141555476Y-137014104D02*
X141507857Y-137156961D01*
X141507857Y-137156961D02*
X141412619Y-137252200D01*
X141412619Y-137252200D02*
X141269762Y-137299819D01*
X141269762Y-137299819D02*
X141174524Y-137299819D01*
X142555476Y-137299819D02*
X141984048Y-137299819D01*
X142269762Y-137299819D02*
X142269762Y-136299819D01*
X142269762Y-136299819D02*
X142174524Y-136442676D01*
X142174524Y-136442676D02*
X142079286Y-136537914D01*
X142079286Y-136537914D02*
X141984048Y-136585533D01*
X143507857Y-137299819D02*
X142936429Y-137299819D01*
X143222143Y-137299819D02*
X143222143Y-136299819D01*
X143222143Y-136299819D02*
X143126905Y-136442676D01*
X143126905Y-136442676D02*
X143031667Y-136537914D01*
X143031667Y-136537914D02*
X142936429Y-136585533D01*
X139475476Y-49384119D02*
X139475476Y-50098404D01*
X139475476Y-50098404D02*
X139427857Y-50241261D01*
X139427857Y-50241261D02*
X139332619Y-50336500D01*
X139332619Y-50336500D02*
X139189762Y-50384119D01*
X139189762Y-50384119D02*
X139094524Y-50384119D01*
X139904048Y-49479357D02*
X139951667Y-49431738D01*
X139951667Y-49431738D02*
X140046905Y-49384119D01*
X140046905Y-49384119D02*
X140285000Y-49384119D01*
X140285000Y-49384119D02*
X140380238Y-49431738D01*
X140380238Y-49431738D02*
X140427857Y-49479357D01*
X140427857Y-49479357D02*
X140475476Y-49574595D01*
X140475476Y-49574595D02*
X140475476Y-49669833D01*
X140475476Y-49669833D02*
X140427857Y-49812690D01*
X140427857Y-49812690D02*
X139856429Y-50384119D01*
X139856429Y-50384119D02*
X140475476Y-50384119D01*
X141332619Y-49384119D02*
X141142143Y-49384119D01*
X141142143Y-49384119D02*
X141046905Y-49431738D01*
X141046905Y-49431738D02*
X140999286Y-49479357D01*
X140999286Y-49479357D02*
X140904048Y-49622214D01*
X140904048Y-49622214D02*
X140856429Y-49812690D01*
X140856429Y-49812690D02*
X140856429Y-50193642D01*
X140856429Y-50193642D02*
X140904048Y-50288880D01*
X140904048Y-50288880D02*
X140951667Y-50336500D01*
X140951667Y-50336500D02*
X141046905Y-50384119D01*
X141046905Y-50384119D02*
X141237381Y-50384119D01*
X141237381Y-50384119D02*
X141332619Y-50336500D01*
X141332619Y-50336500D02*
X141380238Y-50288880D01*
X141380238Y-50288880D02*
X141427857Y-50193642D01*
X141427857Y-50193642D02*
X141427857Y-49955547D01*
X141427857Y-49955547D02*
X141380238Y-49860309D01*
X141380238Y-49860309D02*
X141332619Y-49812690D01*
X141332619Y-49812690D02*
X141237381Y-49765071D01*
X141237381Y-49765071D02*
X141046905Y-49765071D01*
X141046905Y-49765071D02*
X140951667Y-49812690D01*
X140951667Y-49812690D02*
X140904048Y-49860309D01*
X140904048Y-49860309D02*
X140856429Y-49955547D01*
X139475476Y-34542719D02*
X139475476Y-35257004D01*
X139475476Y-35257004D02*
X139427857Y-35399861D01*
X139427857Y-35399861D02*
X139332619Y-35495100D01*
X139332619Y-35495100D02*
X139189762Y-35542719D01*
X139189762Y-35542719D02*
X139094524Y-35542719D01*
X139904048Y-34637957D02*
X139951667Y-34590338D01*
X139951667Y-34590338D02*
X140046905Y-34542719D01*
X140046905Y-34542719D02*
X140285000Y-34542719D01*
X140285000Y-34542719D02*
X140380238Y-34590338D01*
X140380238Y-34590338D02*
X140427857Y-34637957D01*
X140427857Y-34637957D02*
X140475476Y-34733195D01*
X140475476Y-34733195D02*
X140475476Y-34828433D01*
X140475476Y-34828433D02*
X140427857Y-34971290D01*
X140427857Y-34971290D02*
X139856429Y-35542719D01*
X139856429Y-35542719D02*
X140475476Y-35542719D01*
X140808810Y-34542719D02*
X141427857Y-34542719D01*
X141427857Y-34542719D02*
X141094524Y-34923671D01*
X141094524Y-34923671D02*
X141237381Y-34923671D01*
X141237381Y-34923671D02*
X141332619Y-34971290D01*
X141332619Y-34971290D02*
X141380238Y-35018909D01*
X141380238Y-35018909D02*
X141427857Y-35114147D01*
X141427857Y-35114147D02*
X141427857Y-35352242D01*
X141427857Y-35352242D02*
X141380238Y-35447480D01*
X141380238Y-35447480D02*
X141332619Y-35495100D01*
X141332619Y-35495100D02*
X141237381Y-35542719D01*
X141237381Y-35542719D02*
X140951667Y-35542719D01*
X140951667Y-35542719D02*
X140856429Y-35495100D01*
X140856429Y-35495100D02*
X140808810Y-35447480D01*
X142031666Y-110585519D02*
X142031666Y-111299804D01*
X142031666Y-111299804D02*
X141984047Y-111442661D01*
X141984047Y-111442661D02*
X141888809Y-111537900D01*
X141888809Y-111537900D02*
X141745952Y-111585519D01*
X141745952Y-111585519D02*
X141650714Y-111585519D01*
X142984047Y-110585519D02*
X142507857Y-110585519D01*
X142507857Y-110585519D02*
X142460238Y-111061709D01*
X142460238Y-111061709D02*
X142507857Y-111014090D01*
X142507857Y-111014090D02*
X142603095Y-110966471D01*
X142603095Y-110966471D02*
X142841190Y-110966471D01*
X142841190Y-110966471D02*
X142936428Y-111014090D01*
X142936428Y-111014090D02*
X142984047Y-111061709D01*
X142984047Y-111061709D02*
X143031666Y-111156947D01*
X143031666Y-111156947D02*
X143031666Y-111395042D01*
X143031666Y-111395042D02*
X142984047Y-111490280D01*
X142984047Y-111490280D02*
X142936428Y-111537900D01*
X142936428Y-111537900D02*
X142841190Y-111585519D01*
X142841190Y-111585519D02*
X142603095Y-111585519D01*
X142603095Y-111585519D02*
X142507857Y-111537900D01*
X142507857Y-111537900D02*
X142460238Y-111490280D01*
X141555476Y-149156919D02*
X141555476Y-149871204D01*
X141555476Y-149871204D02*
X141507857Y-150014061D01*
X141507857Y-150014061D02*
X141412619Y-150109300D01*
X141412619Y-150109300D02*
X141269762Y-150156919D01*
X141269762Y-150156919D02*
X141174524Y-150156919D01*
X142555476Y-150156919D02*
X141984048Y-150156919D01*
X142269762Y-150156919D02*
X142269762Y-149156919D01*
X142269762Y-149156919D02*
X142174524Y-149299776D01*
X142174524Y-149299776D02*
X142079286Y-149395014D01*
X142079286Y-149395014D02*
X141984048Y-149442633D01*
X143412619Y-149490252D02*
X143412619Y-150156919D01*
X143174524Y-149109300D02*
X142936429Y-149823585D01*
X142936429Y-149823585D02*
X143555476Y-149823585D01*
X139475476Y-54331219D02*
X139475476Y-55045504D01*
X139475476Y-55045504D02*
X139427857Y-55188361D01*
X139427857Y-55188361D02*
X139332619Y-55283600D01*
X139332619Y-55283600D02*
X139189762Y-55331219D01*
X139189762Y-55331219D02*
X139094524Y-55331219D01*
X139904048Y-54426457D02*
X139951667Y-54378838D01*
X139951667Y-54378838D02*
X140046905Y-54331219D01*
X140046905Y-54331219D02*
X140285000Y-54331219D01*
X140285000Y-54331219D02*
X140380238Y-54378838D01*
X140380238Y-54378838D02*
X140427857Y-54426457D01*
X140427857Y-54426457D02*
X140475476Y-54521695D01*
X140475476Y-54521695D02*
X140475476Y-54616933D01*
X140475476Y-54616933D02*
X140427857Y-54759790D01*
X140427857Y-54759790D02*
X139856429Y-55331219D01*
X139856429Y-55331219D02*
X140475476Y-55331219D01*
X140808810Y-54331219D02*
X141475476Y-54331219D01*
X141475476Y-54331219D02*
X141046905Y-55331219D01*
X52682619Y-162299819D02*
X53015952Y-163299819D01*
X53015952Y-163299819D02*
X53349285Y-162299819D01*
X53873095Y-162299819D02*
X54063571Y-162299819D01*
X54063571Y-162299819D02*
X54158809Y-162347438D01*
X54158809Y-162347438D02*
X54254047Y-162442676D01*
X54254047Y-162442676D02*
X54301666Y-162633152D01*
X54301666Y-162633152D02*
X54301666Y-162966485D01*
X54301666Y-162966485D02*
X54254047Y-163156961D01*
X54254047Y-163156961D02*
X54158809Y-163252200D01*
X54158809Y-163252200D02*
X54063571Y-163299819D01*
X54063571Y-163299819D02*
X53873095Y-163299819D01*
X53873095Y-163299819D02*
X53777857Y-163252200D01*
X53777857Y-163252200D02*
X53682619Y-163156961D01*
X53682619Y-163156961D02*
X53635000Y-162966485D01*
X53635000Y-162966485D02*
X53635000Y-162633152D01*
X53635000Y-162633152D02*
X53682619Y-162442676D01*
X53682619Y-162442676D02*
X53777857Y-162347438D01*
X53777857Y-162347438D02*
X53873095Y-162299819D01*
X55206428Y-163299819D02*
X54730238Y-163299819D01*
X54730238Y-163299819D02*
X54730238Y-162299819D01*
X55396905Y-162299819D02*
X55968333Y-162299819D01*
X55682619Y-163299819D02*
X55682619Y-162299819D01*
X56254048Y-163014104D02*
X56730238Y-163014104D01*
X56158810Y-163299819D02*
X56492143Y-162299819D01*
X56492143Y-162299819D02*
X56825476Y-163299819D01*
X57682619Y-162347438D02*
X57587381Y-162299819D01*
X57587381Y-162299819D02*
X57444524Y-162299819D01*
X57444524Y-162299819D02*
X57301667Y-162347438D01*
X57301667Y-162347438D02*
X57206429Y-162442676D01*
X57206429Y-162442676D02*
X57158810Y-162537914D01*
X57158810Y-162537914D02*
X57111191Y-162728390D01*
X57111191Y-162728390D02*
X57111191Y-162871247D01*
X57111191Y-162871247D02*
X57158810Y-163061723D01*
X57158810Y-163061723D02*
X57206429Y-163156961D01*
X57206429Y-163156961D02*
X57301667Y-163252200D01*
X57301667Y-163252200D02*
X57444524Y-163299819D01*
X57444524Y-163299819D02*
X57539762Y-163299819D01*
X57539762Y-163299819D02*
X57682619Y-163252200D01*
X57682619Y-163252200D02*
X57730238Y-163204580D01*
X57730238Y-163204580D02*
X57730238Y-162871247D01*
X57730238Y-162871247D02*
X57539762Y-162871247D01*
X58158810Y-162776009D02*
X58492143Y-162776009D01*
X58635000Y-163299819D02*
X58158810Y-163299819D01*
X58158810Y-163299819D02*
X58158810Y-162299819D01*
X58158810Y-162299819D02*
X58635000Y-162299819D01*
X59015953Y-163252200D02*
X59158810Y-163299819D01*
X59158810Y-163299819D02*
X59396905Y-163299819D01*
X59396905Y-163299819D02*
X59492143Y-163252200D01*
X59492143Y-163252200D02*
X59539762Y-163204580D01*
X59539762Y-163204580D02*
X59587381Y-163109342D01*
X59587381Y-163109342D02*
X59587381Y-163014104D01*
X59587381Y-163014104D02*
X59539762Y-162918866D01*
X59539762Y-162918866D02*
X59492143Y-162871247D01*
X59492143Y-162871247D02*
X59396905Y-162823628D01*
X59396905Y-162823628D02*
X59206429Y-162776009D01*
X59206429Y-162776009D02*
X59111191Y-162728390D01*
X59111191Y-162728390D02*
X59063572Y-162680771D01*
X59063572Y-162680771D02*
X59015953Y-162585533D01*
X59015953Y-162585533D02*
X59015953Y-162490295D01*
X59015953Y-162490295D02*
X59063572Y-162395057D01*
X59063572Y-162395057D02*
X59111191Y-162347438D01*
X59111191Y-162347438D02*
X59206429Y-162299819D01*
X59206429Y-162299819D02*
X59444524Y-162299819D01*
X59444524Y-162299819D02*
X59587381Y-162347438D01*
X60015953Y-162776009D02*
X60349286Y-162776009D01*
X60492143Y-163299819D02*
X60015953Y-163299819D01*
X60015953Y-163299819D02*
X60015953Y-162299819D01*
X60015953Y-162299819D02*
X60492143Y-162299819D01*
X60920715Y-163299819D02*
X60920715Y-162299819D01*
X60920715Y-162299819D02*
X61492143Y-163299819D01*
X61492143Y-163299819D02*
X61492143Y-162299819D01*
X61920715Y-163252200D02*
X62063572Y-163299819D01*
X62063572Y-163299819D02*
X62301667Y-163299819D01*
X62301667Y-163299819D02*
X62396905Y-163252200D01*
X62396905Y-163252200D02*
X62444524Y-163204580D01*
X62444524Y-163204580D02*
X62492143Y-163109342D01*
X62492143Y-163109342D02*
X62492143Y-163014104D01*
X62492143Y-163014104D02*
X62444524Y-162918866D01*
X62444524Y-162918866D02*
X62396905Y-162871247D01*
X62396905Y-162871247D02*
X62301667Y-162823628D01*
X62301667Y-162823628D02*
X62111191Y-162776009D01*
X62111191Y-162776009D02*
X62015953Y-162728390D01*
X62015953Y-162728390D02*
X61968334Y-162680771D01*
X61968334Y-162680771D02*
X61920715Y-162585533D01*
X61920715Y-162585533D02*
X61920715Y-162490295D01*
X61920715Y-162490295D02*
X61968334Y-162395057D01*
X61968334Y-162395057D02*
X62015953Y-162347438D01*
X62015953Y-162347438D02*
X62111191Y-162299819D01*
X62111191Y-162299819D02*
X62349286Y-162299819D01*
X62349286Y-162299819D02*
X62492143Y-162347438D01*
X63111191Y-162299819D02*
X63301667Y-162299819D01*
X63301667Y-162299819D02*
X63396905Y-162347438D01*
X63396905Y-162347438D02*
X63492143Y-162442676D01*
X63492143Y-162442676D02*
X63539762Y-162633152D01*
X63539762Y-162633152D02*
X63539762Y-162966485D01*
X63539762Y-162966485D02*
X63492143Y-163156961D01*
X63492143Y-163156961D02*
X63396905Y-163252200D01*
X63396905Y-163252200D02*
X63301667Y-163299819D01*
X63301667Y-163299819D02*
X63111191Y-163299819D01*
X63111191Y-163299819D02*
X63015953Y-163252200D01*
X63015953Y-163252200D02*
X62920715Y-163156961D01*
X62920715Y-163156961D02*
X62873096Y-162966485D01*
X62873096Y-162966485D02*
X62873096Y-162633152D01*
X62873096Y-162633152D02*
X62920715Y-162442676D01*
X62920715Y-162442676D02*
X63015953Y-162347438D01*
X63015953Y-162347438D02*
X63111191Y-162299819D01*
X64539762Y-163299819D02*
X64206429Y-162823628D01*
X63968334Y-163299819D02*
X63968334Y-162299819D01*
X63968334Y-162299819D02*
X64349286Y-162299819D01*
X64349286Y-162299819D02*
X64444524Y-162347438D01*
X64444524Y-162347438D02*
X64492143Y-162395057D01*
X64492143Y-162395057D02*
X64539762Y-162490295D01*
X64539762Y-162490295D02*
X64539762Y-162633152D01*
X64539762Y-162633152D02*
X64492143Y-162728390D01*
X64492143Y-162728390D02*
X64444524Y-162776009D01*
X64444524Y-162776009D02*
X64349286Y-162823628D01*
X64349286Y-162823628D02*
X63968334Y-162823628D01*
X65492143Y-163299819D02*
X64920715Y-163299819D01*
X65206429Y-163299819D02*
X65206429Y-162299819D01*
X65206429Y-162299819D02*
X65111191Y-162442676D01*
X65111191Y-162442676D02*
X65015953Y-162537914D01*
X65015953Y-162537914D02*
X64920715Y-162585533D01*
X142031666Y-127728419D02*
X142031666Y-128442704D01*
X142031666Y-128442704D02*
X141984047Y-128585561D01*
X141984047Y-128585561D02*
X141888809Y-128680800D01*
X141888809Y-128680800D02*
X141745952Y-128728419D01*
X141745952Y-128728419D02*
X141650714Y-128728419D01*
X142555476Y-128728419D02*
X142745952Y-128728419D01*
X142745952Y-128728419D02*
X142841190Y-128680800D01*
X142841190Y-128680800D02*
X142888809Y-128633180D01*
X142888809Y-128633180D02*
X142984047Y-128490323D01*
X142984047Y-128490323D02*
X143031666Y-128299847D01*
X143031666Y-128299847D02*
X143031666Y-127918895D01*
X143031666Y-127918895D02*
X142984047Y-127823657D01*
X142984047Y-127823657D02*
X142936428Y-127776038D01*
X142936428Y-127776038D02*
X142841190Y-127728419D01*
X142841190Y-127728419D02*
X142650714Y-127728419D01*
X142650714Y-127728419D02*
X142555476Y-127776038D01*
X142555476Y-127776038D02*
X142507857Y-127823657D01*
X142507857Y-127823657D02*
X142460238Y-127918895D01*
X142460238Y-127918895D02*
X142460238Y-128156990D01*
X142460238Y-128156990D02*
X142507857Y-128252228D01*
X142507857Y-128252228D02*
X142555476Y-128299847D01*
X142555476Y-128299847D02*
X142650714Y-128347466D01*
X142650714Y-128347466D02*
X142841190Y-128347466D01*
X142841190Y-128347466D02*
X142936428Y-128299847D01*
X142936428Y-128299847D02*
X142984047Y-128252228D01*
X142984047Y-128252228D02*
X143031666Y-128156990D01*
X142031666Y-119156919D02*
X142031666Y-119871204D01*
X142031666Y-119871204D02*
X141984047Y-120014061D01*
X141984047Y-120014061D02*
X141888809Y-120109300D01*
X141888809Y-120109300D02*
X141745952Y-120156919D01*
X141745952Y-120156919D02*
X141650714Y-120156919D01*
X142412619Y-119156919D02*
X143079285Y-119156919D01*
X143079285Y-119156919D02*
X142650714Y-120156919D01*
X141555476Y-166299819D02*
X141555476Y-167014104D01*
X141555476Y-167014104D02*
X141507857Y-167156961D01*
X141507857Y-167156961D02*
X141412619Y-167252200D01*
X141412619Y-167252200D02*
X141269762Y-167299819D01*
X141269762Y-167299819D02*
X141174524Y-167299819D01*
X142555476Y-167299819D02*
X141984048Y-167299819D01*
X142269762Y-167299819D02*
X142269762Y-166299819D01*
X142269762Y-166299819D02*
X142174524Y-166442676D01*
X142174524Y-166442676D02*
X142079286Y-166537914D01*
X142079286Y-166537914D02*
X141984048Y-166585533D01*
X143126905Y-166728390D02*
X143031667Y-166680771D01*
X143031667Y-166680771D02*
X142984048Y-166633152D01*
X142984048Y-166633152D02*
X142936429Y-166537914D01*
X142936429Y-166537914D02*
X142936429Y-166490295D01*
X142936429Y-166490295D02*
X142984048Y-166395057D01*
X142984048Y-166395057D02*
X143031667Y-166347438D01*
X143031667Y-166347438D02*
X143126905Y-166299819D01*
X143126905Y-166299819D02*
X143317381Y-166299819D01*
X143317381Y-166299819D02*
X143412619Y-166347438D01*
X143412619Y-166347438D02*
X143460238Y-166395057D01*
X143460238Y-166395057D02*
X143507857Y-166490295D01*
X143507857Y-166490295D02*
X143507857Y-166537914D01*
X143507857Y-166537914D02*
X143460238Y-166633152D01*
X143460238Y-166633152D02*
X143412619Y-166680771D01*
X143412619Y-166680771D02*
X143317381Y-166728390D01*
X143317381Y-166728390D02*
X143126905Y-166728390D01*
X143126905Y-166728390D02*
X143031667Y-166776009D01*
X143031667Y-166776009D02*
X142984048Y-166823628D01*
X142984048Y-166823628D02*
X142936429Y-166918866D01*
X142936429Y-166918866D02*
X142936429Y-167109342D01*
X142936429Y-167109342D02*
X142984048Y-167204580D01*
X142984048Y-167204580D02*
X143031667Y-167252200D01*
X143031667Y-167252200D02*
X143126905Y-167299819D01*
X143126905Y-167299819D02*
X143317381Y-167299819D01*
X143317381Y-167299819D02*
X143412619Y-167252200D01*
X143412619Y-167252200D02*
X143460238Y-167204580D01*
X143460238Y-167204580D02*
X143507857Y-167109342D01*
X143507857Y-167109342D02*
X143507857Y-166918866D01*
X143507857Y-166918866D02*
X143460238Y-166823628D01*
X143460238Y-166823628D02*
X143412619Y-166776009D01*
X143412619Y-166776009D02*
X143317381Y-166728390D01*
X142031666Y-114871219D02*
X142031666Y-115585504D01*
X142031666Y-115585504D02*
X141984047Y-115728361D01*
X141984047Y-115728361D02*
X141888809Y-115823600D01*
X141888809Y-115823600D02*
X141745952Y-115871219D01*
X141745952Y-115871219D02*
X141650714Y-115871219D01*
X142936428Y-114871219D02*
X142745952Y-114871219D01*
X142745952Y-114871219D02*
X142650714Y-114918838D01*
X142650714Y-114918838D02*
X142603095Y-114966457D01*
X142603095Y-114966457D02*
X142507857Y-115109314D01*
X142507857Y-115109314D02*
X142460238Y-115299790D01*
X142460238Y-115299790D02*
X142460238Y-115680742D01*
X142460238Y-115680742D02*
X142507857Y-115775980D01*
X142507857Y-115775980D02*
X142555476Y-115823600D01*
X142555476Y-115823600D02*
X142650714Y-115871219D01*
X142650714Y-115871219D02*
X142841190Y-115871219D01*
X142841190Y-115871219D02*
X142936428Y-115823600D01*
X142936428Y-115823600D02*
X142984047Y-115775980D01*
X142984047Y-115775980D02*
X143031666Y-115680742D01*
X143031666Y-115680742D02*
X143031666Y-115442647D01*
X143031666Y-115442647D02*
X142984047Y-115347409D01*
X142984047Y-115347409D02*
X142936428Y-115299790D01*
X142936428Y-115299790D02*
X142841190Y-115252171D01*
X142841190Y-115252171D02*
X142650714Y-115252171D01*
X142650714Y-115252171D02*
X142555476Y-115299790D01*
X142555476Y-115299790D02*
X142507857Y-115347409D01*
X142507857Y-115347409D02*
X142460238Y-115442647D01*
X51584819Y-35482143D02*
X51108628Y-35815476D01*
X51584819Y-36053571D02*
X50584819Y-36053571D01*
X50584819Y-36053571D02*
X50584819Y-35672619D01*
X50584819Y-35672619D02*
X50632438Y-35577381D01*
X50632438Y-35577381D02*
X50680057Y-35529762D01*
X50680057Y-35529762D02*
X50775295Y-35482143D01*
X50775295Y-35482143D02*
X50918152Y-35482143D01*
X50918152Y-35482143D02*
X51013390Y-35529762D01*
X51013390Y-35529762D02*
X51061009Y-35577381D01*
X51061009Y-35577381D02*
X51108628Y-35672619D01*
X51108628Y-35672619D02*
X51108628Y-36053571D01*
X51061009Y-35053571D02*
X51061009Y-34720238D01*
X51584819Y-34577381D02*
X51584819Y-35053571D01*
X51584819Y-35053571D02*
X50584819Y-35053571D01*
X50584819Y-35053571D02*
X50584819Y-34577381D01*
X51584819Y-33672619D02*
X51584819Y-34148809D01*
X51584819Y-34148809D02*
X50584819Y-34148809D01*
X51299104Y-33386904D02*
X51299104Y-32910714D01*
X51584819Y-33482142D02*
X50584819Y-33148809D01*
X50584819Y-33148809D02*
X51584819Y-32815476D01*
X51108628Y-32291666D02*
X51584819Y-32291666D01*
X50584819Y-32624999D02*
X51108628Y-32291666D01*
X51108628Y-32291666D02*
X50584819Y-31958333D01*
X51584819Y-31624999D02*
X50584819Y-31624999D01*
X50584819Y-31624999D02*
X51299104Y-31291666D01*
X51299104Y-31291666D02*
X50584819Y-30958333D01*
X50584819Y-30958333D02*
X51584819Y-30958333D01*
X50584819Y-30291666D02*
X50584819Y-30101190D01*
X50584819Y-30101190D02*
X50632438Y-30005952D01*
X50632438Y-30005952D02*
X50727676Y-29910714D01*
X50727676Y-29910714D02*
X50918152Y-29863095D01*
X50918152Y-29863095D02*
X51251485Y-29863095D01*
X51251485Y-29863095D02*
X51441961Y-29910714D01*
X51441961Y-29910714D02*
X51537200Y-30005952D01*
X51537200Y-30005952D02*
X51584819Y-30101190D01*
X51584819Y-30101190D02*
X51584819Y-30291666D01*
X51584819Y-30291666D02*
X51537200Y-30386904D01*
X51537200Y-30386904D02*
X51441961Y-30482142D01*
X51441961Y-30482142D02*
X51251485Y-30529761D01*
X51251485Y-30529761D02*
X50918152Y-30529761D01*
X50918152Y-30529761D02*
X50727676Y-30482142D01*
X50727676Y-30482142D02*
X50632438Y-30386904D01*
X50632438Y-30386904D02*
X50584819Y-30291666D01*
X51584819Y-29434523D02*
X50584819Y-29434523D01*
X50584819Y-29434523D02*
X50584819Y-29196428D01*
X50584819Y-29196428D02*
X50632438Y-29053571D01*
X50632438Y-29053571D02*
X50727676Y-28958333D01*
X50727676Y-28958333D02*
X50822914Y-28910714D01*
X50822914Y-28910714D02*
X51013390Y-28863095D01*
X51013390Y-28863095D02*
X51156247Y-28863095D01*
X51156247Y-28863095D02*
X51346723Y-28910714D01*
X51346723Y-28910714D02*
X51441961Y-28958333D01*
X51441961Y-28958333D02*
X51537200Y-29053571D01*
X51537200Y-29053571D02*
X51584819Y-29196428D01*
X51584819Y-29196428D02*
X51584819Y-29434523D01*
X50584819Y-28434523D02*
X51394342Y-28434523D01*
X51394342Y-28434523D02*
X51489580Y-28386904D01*
X51489580Y-28386904D02*
X51537200Y-28339285D01*
X51537200Y-28339285D02*
X51584819Y-28244047D01*
X51584819Y-28244047D02*
X51584819Y-28053571D01*
X51584819Y-28053571D02*
X51537200Y-27958333D01*
X51537200Y-27958333D02*
X51489580Y-27910714D01*
X51489580Y-27910714D02*
X51394342Y-27863095D01*
X51394342Y-27863095D02*
X50584819Y-27863095D01*
X51584819Y-26910714D02*
X51584819Y-27386904D01*
X51584819Y-27386904D02*
X50584819Y-27386904D01*
X51061009Y-26577380D02*
X51061009Y-26244047D01*
X51584819Y-26101190D02*
X51584819Y-26577380D01*
X51584819Y-26577380D02*
X50584819Y-26577380D01*
X50584819Y-26577380D02*
X50584819Y-26101190D01*
X51584819Y-25148809D02*
X51584819Y-25720237D01*
X51584819Y-25434523D02*
X50584819Y-25434523D01*
X50584819Y-25434523D02*
X50727676Y-25529761D01*
X50727676Y-25529761D02*
X50822914Y-25624999D01*
X50822914Y-25624999D02*
X50870533Y-25720237D01*
X141555476Y-144871219D02*
X141555476Y-145585504D01*
X141555476Y-145585504D02*
X141507857Y-145728361D01*
X141507857Y-145728361D02*
X141412619Y-145823600D01*
X141412619Y-145823600D02*
X141269762Y-145871219D01*
X141269762Y-145871219D02*
X141174524Y-145871219D01*
X142555476Y-145871219D02*
X141984048Y-145871219D01*
X142269762Y-145871219D02*
X142269762Y-144871219D01*
X142269762Y-144871219D02*
X142174524Y-145014076D01*
X142174524Y-145014076D02*
X142079286Y-145109314D01*
X142079286Y-145109314D02*
X141984048Y-145156933D01*
X142888810Y-144871219D02*
X143507857Y-144871219D01*
X143507857Y-144871219D02*
X143174524Y-145252171D01*
X143174524Y-145252171D02*
X143317381Y-145252171D01*
X143317381Y-145252171D02*
X143412619Y-145299790D01*
X143412619Y-145299790D02*
X143460238Y-145347409D01*
X143460238Y-145347409D02*
X143507857Y-145442647D01*
X143507857Y-145442647D02*
X143507857Y-145680742D01*
X143507857Y-145680742D02*
X143460238Y-145775980D01*
X143460238Y-145775980D02*
X143412619Y-145823600D01*
X143412619Y-145823600D02*
X143317381Y-145871219D01*
X143317381Y-145871219D02*
X143031667Y-145871219D01*
X143031667Y-145871219D02*
X142936429Y-145823600D01*
X142936429Y-145823600D02*
X142888810Y-145775980D01*
X142031666Y-106299819D02*
X142031666Y-107014104D01*
X142031666Y-107014104D02*
X141984047Y-107156961D01*
X141984047Y-107156961D02*
X141888809Y-107252200D01*
X141888809Y-107252200D02*
X141745952Y-107299819D01*
X141745952Y-107299819D02*
X141650714Y-107299819D01*
X142936428Y-106633152D02*
X142936428Y-107299819D01*
X142698333Y-106252200D02*
X142460238Y-106966485D01*
X142460238Y-106966485D02*
X143079285Y-106966485D01*
D12*
%TO.C,J22*%
X138110000Y-34565700D02*
X138110000Y-32025700D01*
X148270000Y-32025700D02*
X138110000Y-32025700D01*
X148270000Y-32025700D02*
X148270000Y-34565700D01*
X148270000Y-34565700D02*
X138110000Y-34565700D01*
X149020000Y-33295700D02*
G75*
G02*
X148820000Y-33295700I-100000J0D01*
G01*
X148820000Y-33295700D02*
G75*
G02*
X149020000Y-33295700I100000J0D01*
G01*
%TO.C,GPRS/GSMMODULE1*%
X47255000Y-62030000D02*
X49745000Y-62030000D01*
X47255000Y-62835000D02*
X47255000Y-62030000D01*
X47255000Y-65375000D02*
X47255000Y-63765000D01*
X47255000Y-67915000D02*
X47255000Y-66305000D01*
X47255000Y-70455000D02*
X47255000Y-68845000D01*
X47255000Y-72995000D02*
X47255000Y-71385000D01*
X47255000Y-75535000D02*
X47255000Y-73925000D01*
X47255000Y-78075000D02*
X47255000Y-76465000D01*
X47255000Y-80615000D02*
X47255000Y-79005000D01*
X47255000Y-82350000D02*
X47255000Y-81545000D01*
X49745000Y-62030000D02*
X49745000Y-82350000D01*
X49745000Y-82350000D02*
X47255000Y-82350000D01*
X48600000Y-83000000D02*
G75*
G02*
X48400000Y-83000000I-100000J0D01*
G01*
X48400000Y-83000000D02*
G75*
G02*
X48600000Y-83000000I100000J0D01*
G01*
%TO.C,J29*%
X138110000Y-69195700D02*
X138110000Y-66655700D01*
X148270000Y-66655700D02*
X138110000Y-66655700D01*
X148270000Y-66655700D02*
X148270000Y-69195700D01*
X148270000Y-69195700D02*
X138110000Y-69195700D01*
X149020000Y-67925700D02*
G75*
G02*
X148820000Y-67925700I-100000J0D01*
G01*
X148820000Y-67925700D02*
G75*
G02*
X149020000Y-67925700I100000J0D01*
G01*
%TO.C,J12*%
X140190000Y-145555700D02*
X140190000Y-143015700D01*
X147810000Y-143015700D02*
X140190000Y-143015700D01*
X147810000Y-143015700D02*
X147810000Y-145555700D01*
X147810000Y-145555700D02*
X140190000Y-145555700D01*
X139640000Y-144285700D02*
G75*
G02*
X139440000Y-144285700I-100000J0D01*
G01*
X139440000Y-144285700D02*
G75*
G02*
X139640000Y-144285700I100000J0D01*
G01*
%TO.C,J24*%
X138110000Y-44460000D02*
X138110000Y-41920000D01*
X148270000Y-41920000D02*
X138110000Y-41920000D01*
X148270000Y-41920000D02*
X148270000Y-44460000D01*
X148270000Y-44460000D02*
X138110000Y-44460000D01*
X149020000Y-43190000D02*
G75*
G02*
X148820000Y-43190000I-100000J0D01*
G01*
X148820000Y-43190000D02*
G75*
G02*
X149020000Y-43190000I100000J0D01*
G01*
%TO.C,J34*%
X138110000Y-93931400D02*
X138110000Y-91391400D01*
X148270000Y-91391400D02*
X138110000Y-91391400D01*
X148270000Y-91391400D02*
X148270000Y-93931400D01*
X148270000Y-93931400D02*
X138110000Y-93931400D01*
X149020000Y-92661400D02*
G75*
G02*
X148820000Y-92661400I-100000J0D01*
G01*
X148820000Y-92661400D02*
G75*
G02*
X149020000Y-92661400I100000J0D01*
G01*
%TO.C,CURRENTSENSOR1*%
X40920000Y-167270000D02*
X40920000Y-164730000D01*
X48540000Y-164730000D02*
X40920000Y-164730000D01*
X48540000Y-164730000D02*
X48540000Y-167270000D01*
X48540000Y-167270000D02*
X40920000Y-167270000D01*
X40370000Y-166000000D02*
G75*
G02*
X40170000Y-166000000I-100000J0D01*
G01*
X40170000Y-166000000D02*
G75*
G02*
X40370000Y-166000000I100000J0D01*
G01*
%TO.C,J25*%
X138110000Y-49407100D02*
X138110000Y-46867100D01*
X148270000Y-46867100D02*
X138110000Y-46867100D01*
X148270000Y-46867100D02*
X148270000Y-49407100D01*
X148270000Y-49407100D02*
X138110000Y-49407100D01*
X149020000Y-48137100D02*
G75*
G02*
X148820000Y-48137100I-100000J0D01*
G01*
X148820000Y-48137100D02*
G75*
G02*
X149020000Y-48137100I100000J0D01*
G01*
%TO.C,12VOUT1*%
X44420000Y-119760000D02*
X44420000Y-122240000D01*
X44420000Y-122240000D02*
X49500000Y-122240000D01*
X49500000Y-119760000D02*
X44420000Y-119760000D01*
X49500000Y-122240000D02*
X49500000Y-119760000D01*
X50160000Y-121000000D02*
G75*
G02*
X49960000Y-121000000I-100000J0D01*
G01*
X49960000Y-121000000D02*
G75*
G02*
X50160000Y-121000000I100000J0D01*
G01*
%TO.C,J35*%
X138110000Y-98878600D02*
X138110000Y-96338600D01*
X148270000Y-96338600D02*
X138110000Y-96338600D01*
X148270000Y-96338600D02*
X148270000Y-98878600D01*
X148270000Y-98878600D02*
X138110000Y-98878600D01*
X149020000Y-97608600D02*
G75*
G02*
X148820000Y-97608600I-100000J0D01*
G01*
X148820000Y-97608600D02*
G75*
G02*
X149020000Y-97608600I100000J0D01*
G01*
%TO.C,J21*%
X138110000Y-29618600D02*
X138110000Y-27078600D01*
X148270000Y-27078600D02*
X138110000Y-27078600D01*
X148270000Y-27078600D02*
X148270000Y-29618600D01*
X148270000Y-29618600D02*
X138110000Y-29618600D01*
X149020000Y-28348600D02*
G75*
G02*
X148820000Y-28348600I-100000J0D01*
G01*
X148820000Y-28348600D02*
G75*
G02*
X149020000Y-28348600I100000J0D01*
G01*
%TO.C,J17*%
X140190000Y-166984300D02*
X140190000Y-164444300D01*
X147810000Y-164444300D02*
X140190000Y-164444300D01*
X147810000Y-164444300D02*
X147810000Y-166984300D01*
X147810000Y-166984300D02*
X140190000Y-166984300D01*
X139640000Y-165714300D02*
G75*
G02*
X139440000Y-165714300I-100000J0D01*
G01*
X139440000Y-165714300D02*
G75*
G02*
X139640000Y-165714300I100000J0D01*
G01*
%TO.C,12VIN1*%
X43960000Y-132260000D02*
X43960000Y-134740000D01*
X43960000Y-134740000D02*
X49040000Y-134740000D01*
X49040000Y-132260000D02*
X43960000Y-132260000D01*
X49040000Y-134740000D02*
X49040000Y-132260000D01*
X49700000Y-133500000D02*
G75*
G02*
X49500000Y-133500000I-100000J0D01*
G01*
X49500000Y-133500000D02*
G75*
G02*
X49700000Y-133500000I100000J0D01*
G01*
%TO.C,J31*%
X138110000Y-79090000D02*
X138110000Y-76550000D01*
X148270000Y-76550000D02*
X138110000Y-76550000D01*
X148270000Y-76550000D02*
X148270000Y-79090000D01*
X148270000Y-79090000D02*
X138110000Y-79090000D01*
X149020000Y-77820000D02*
G75*
G02*
X148820000Y-77820000I-100000J0D01*
G01*
X148820000Y-77820000D02*
G75*
G02*
X149020000Y-77820000I100000J0D01*
G01*
%TO.C,J15*%
X140190000Y-158412900D02*
X140190000Y-155872900D01*
X147810000Y-155872900D02*
X140190000Y-155872900D01*
X147810000Y-155872900D02*
X147810000Y-158412900D01*
X147810000Y-158412900D02*
X140190000Y-158412900D01*
X139640000Y-157142900D02*
G75*
G02*
X139440000Y-157142900I-100000J0D01*
G01*
X139440000Y-157142900D02*
G75*
G02*
X139640000Y-157142900I100000J0D01*
G01*
%TO.C,J32*%
X138110000Y-84037100D02*
X138110000Y-81497100D01*
X148270000Y-81497100D02*
X138110000Y-81497100D01*
X148270000Y-81497100D02*
X148270000Y-84037100D01*
X148270000Y-84037100D02*
X138110000Y-84037100D01*
X149020000Y-82767100D02*
G75*
G02*
X148820000Y-82767100I-100000J0D01*
G01*
X148820000Y-82767100D02*
G75*
G02*
X149020000Y-82767100I100000J0D01*
G01*
%TO.C,5VIN1*%
X44000000Y-144260000D02*
X44000000Y-146740000D01*
X44000000Y-146740000D02*
X49080000Y-146740000D01*
X49080000Y-144260000D02*
X44000000Y-144260000D01*
X49080000Y-146740000D02*
X49080000Y-144260000D01*
X49740000Y-145500000D02*
G75*
G02*
X49540000Y-145500000I-100000J0D01*
G01*
X49540000Y-145500000D02*
G75*
G02*
X49740000Y-145500000I100000J0D01*
G01*
D13*
%TO.C,A1*%
X70472800Y-47865600D02*
X71996800Y-46341600D01*
X70472800Y-144401600D02*
X70472800Y-47865600D01*
X71996800Y-46341600D02*
X83426800Y-46341600D01*
X83426800Y-46341600D02*
X85966800Y-43801600D01*
X85966800Y-43801600D02*
X118732800Y-43801600D01*
X118732800Y-43801600D02*
X121272800Y-46341600D01*
X121272800Y-46341600D02*
X122812800Y-46341600D01*
X122812800Y-145401600D02*
X71472800Y-145401600D01*
X123812800Y-47341600D02*
X123812800Y-144401600D01*
X71472800Y-145401600D02*
G75*
G02*
X70472800Y-144401600I-1J999999D01*
G01*
X122812800Y-46341600D02*
G75*
G02*
X123812800Y-47341600I0J-1000000D01*
G01*
X123812800Y-144401600D02*
G75*
G02*
X122812800Y-145401600I-999999J-1D01*
G01*
D12*
%TO.C,J16*%
X140190000Y-162698600D02*
X140190000Y-160158600D01*
X147810000Y-160158600D02*
X140190000Y-160158600D01*
X147810000Y-160158600D02*
X147810000Y-162698600D01*
X147810000Y-162698600D02*
X140190000Y-162698600D01*
X139640000Y-161428600D02*
G75*
G02*
X139440000Y-161428600I-100000J0D01*
G01*
X139440000Y-161428600D02*
G75*
G02*
X139640000Y-161428600I100000J0D01*
G01*
%TO.C,J28*%
X138110000Y-64248600D02*
X138110000Y-61708600D01*
X148270000Y-61708600D02*
X138110000Y-61708600D01*
X148270000Y-61708600D02*
X148270000Y-64248600D01*
X148270000Y-64248600D02*
X138110000Y-64248600D01*
X149020000Y-62978600D02*
G75*
G02*
X148820000Y-62978600I-100000J0D01*
G01*
X148820000Y-62978600D02*
G75*
G02*
X149020000Y-62978600I100000J0D01*
G01*
%TO.C,J33*%
X138110000Y-88984300D02*
X138110000Y-86444300D01*
X148270000Y-86444300D02*
X138110000Y-86444300D01*
X148270000Y-86444300D02*
X148270000Y-88984300D01*
X148270000Y-88984300D02*
X138110000Y-88984300D01*
X149020000Y-87714300D02*
G75*
G02*
X148820000Y-87714300I-100000J0D01*
G01*
X148820000Y-87714300D02*
G75*
G02*
X149020000Y-87714300I100000J0D01*
G01*
%TO.C,J10*%
X140190000Y-136984300D02*
X140190000Y-134444300D01*
X147810000Y-134444300D02*
X140190000Y-134444300D01*
X147810000Y-134444300D02*
X147810000Y-136984300D01*
X147810000Y-136984300D02*
X140190000Y-136984300D01*
X139640000Y-135714300D02*
G75*
G02*
X139440000Y-135714300I-100000J0D01*
G01*
X139440000Y-135714300D02*
G75*
G02*
X139640000Y-135714300I100000J0D01*
G01*
%TO.C,J8*%
X140190000Y-128412900D02*
X140190000Y-125872900D01*
X147810000Y-125872900D02*
X140190000Y-125872900D01*
X147810000Y-125872900D02*
X147810000Y-128412900D01*
X147810000Y-128412900D02*
X140190000Y-128412900D01*
X139640000Y-127142900D02*
G75*
G02*
X139440000Y-127142900I-100000J0D01*
G01*
X139440000Y-127142900D02*
G75*
G02*
X139640000Y-127142900I100000J0D01*
G01*
%TO.C,J30*%
X138110000Y-74142900D02*
X138110000Y-71602900D01*
X148270000Y-71602900D02*
X138110000Y-71602900D01*
X148270000Y-71602900D02*
X148270000Y-74142900D01*
X148270000Y-74142900D02*
X138110000Y-74142900D01*
X149020000Y-72872900D02*
G75*
G02*
X148820000Y-72872900I-100000J0D01*
G01*
X148820000Y-72872900D02*
G75*
G02*
X149020000Y-72872900I100000J0D01*
G01*
%TO.C,J11*%
X140190000Y-141270000D02*
X140190000Y-138730000D01*
X147810000Y-138730000D02*
X140190000Y-138730000D01*
X147810000Y-138730000D02*
X147810000Y-141270000D01*
X147810000Y-141270000D02*
X140190000Y-141270000D01*
X139640000Y-140000000D02*
G75*
G02*
X139440000Y-140000000I-100000J0D01*
G01*
X139440000Y-140000000D02*
G75*
G02*
X139640000Y-140000000I100000J0D01*
G01*
%TO.C,J26*%
X138110000Y-54354300D02*
X138110000Y-51814300D01*
X148270000Y-51814300D02*
X138110000Y-51814300D01*
X148270000Y-51814300D02*
X148270000Y-54354300D01*
X148270000Y-54354300D02*
X138110000Y-54354300D01*
X149020000Y-53084300D02*
G75*
G02*
X148820000Y-53084300I-100000J0D01*
G01*
X148820000Y-53084300D02*
G75*
G02*
X149020000Y-53084300I100000J0D01*
G01*
%TO.C,J23*%
X138110000Y-39512900D02*
X138110000Y-36972900D01*
X148270000Y-36972900D02*
X138110000Y-36972900D01*
X148270000Y-36972900D02*
X148270000Y-39512900D01*
X148270000Y-39512900D02*
X138110000Y-39512900D01*
X149020000Y-38242900D02*
G75*
G02*
X148820000Y-38242900I-100000J0D01*
G01*
X148820000Y-38242900D02*
G75*
G02*
X149020000Y-38242900I100000J0D01*
G01*
%TO.C,J5*%
X140190000Y-115555700D02*
X140190000Y-113015700D01*
X147810000Y-113015700D02*
X140190000Y-113015700D01*
X147810000Y-113015700D02*
X147810000Y-115555700D01*
X147810000Y-115555700D02*
X140190000Y-115555700D01*
X139640000Y-114285700D02*
G75*
G02*
X139440000Y-114285700I-100000J0D01*
G01*
X139440000Y-114285700D02*
G75*
G02*
X139640000Y-114285700I100000J0D01*
G01*
%TO.C,J14*%
X140190000Y-154127100D02*
X140190000Y-151587100D01*
X147810000Y-151587100D02*
X140190000Y-151587100D01*
X147810000Y-151587100D02*
X147810000Y-154127100D01*
X147810000Y-154127100D02*
X140190000Y-154127100D01*
X139640000Y-152857100D02*
G75*
G02*
X139440000Y-152857100I-100000J0D01*
G01*
X139440000Y-152857100D02*
G75*
G02*
X139640000Y-152857100I100000J0D01*
G01*
%TO.C,J27*%
X138110000Y-59301400D02*
X138110000Y-56761400D01*
X148270000Y-56761400D02*
X138110000Y-56761400D01*
X148270000Y-56761400D02*
X148270000Y-59301400D01*
X148270000Y-59301400D02*
X138110000Y-59301400D01*
X149020000Y-58031400D02*
G75*
G02*
X148820000Y-58031400I-100000J0D01*
G01*
X148820000Y-58031400D02*
G75*
G02*
X149020000Y-58031400I100000J0D01*
G01*
%TO.C,VOLTAGESENSOR1*%
X56960000Y-167270000D02*
X56960000Y-164730000D01*
X64580000Y-164730000D02*
X56960000Y-164730000D01*
X64580000Y-164730000D02*
X64580000Y-167270000D01*
X64580000Y-167270000D02*
X56960000Y-167270000D01*
X56410000Y-166000000D02*
G75*
G02*
X56210000Y-166000000I-100000J0D01*
G01*
X56210000Y-166000000D02*
G75*
G02*
X56410000Y-166000000I100000J0D01*
G01*
%TO.C,J9*%
X140190000Y-132698600D02*
X140190000Y-130158600D01*
X147810000Y-130158600D02*
X140190000Y-130158600D01*
X147810000Y-130158600D02*
X147810000Y-132698600D01*
X147810000Y-132698600D02*
X140190000Y-132698600D01*
X139640000Y-131428600D02*
G75*
G02*
X139440000Y-131428600I-100000J0D01*
G01*
X139440000Y-131428600D02*
G75*
G02*
X139640000Y-131428600I100000J0D01*
G01*
%TO.C,J7*%
X140190000Y-124127100D02*
X140190000Y-121587100D01*
X147810000Y-121587100D02*
X140190000Y-121587100D01*
X147810000Y-121587100D02*
X147810000Y-124127100D01*
X147810000Y-124127100D02*
X140190000Y-124127100D01*
X139640000Y-122857100D02*
G75*
G02*
X139440000Y-122857100I-100000J0D01*
G01*
X139440000Y-122857100D02*
G75*
G02*
X139640000Y-122857100I100000J0D01*
G01*
%TO.C,J18*%
X140190000Y-171270000D02*
X140190000Y-168730000D01*
X147810000Y-168730000D02*
X140190000Y-168730000D01*
X147810000Y-168730000D02*
X147810000Y-171270000D01*
X147810000Y-171270000D02*
X140190000Y-171270000D01*
X139640000Y-170000000D02*
G75*
G02*
X139440000Y-170000000I-100000J0D01*
G01*
X139440000Y-170000000D02*
G75*
G02*
X139640000Y-170000000I100000J0D01*
G01*
%TO.C,J6*%
X140190000Y-119841400D02*
X140190000Y-117301400D01*
X147810000Y-117301400D02*
X140190000Y-117301400D01*
X147810000Y-117301400D02*
X147810000Y-119841400D01*
X147810000Y-119841400D02*
X140190000Y-119841400D01*
X139640000Y-118571400D02*
G75*
G02*
X139440000Y-118571400I-100000J0D01*
G01*
X139440000Y-118571400D02*
G75*
G02*
X139640000Y-118571400I100000J0D01*
G01*
%TO.C,RELAYMODULE1*%
X46755000Y-28450000D02*
X49245000Y-28450000D01*
X46755000Y-29255000D02*
X46755000Y-28450000D01*
X46755000Y-31795000D02*
X46755000Y-30185000D01*
X46755000Y-34335000D02*
X46755000Y-32725000D01*
X46755000Y-36875000D02*
X46755000Y-35265000D01*
X46755000Y-39415000D02*
X46755000Y-37805000D01*
X46755000Y-41955000D02*
X46755000Y-40345000D01*
X46755000Y-44495000D02*
X46755000Y-42885000D01*
X46755000Y-47035000D02*
X46755000Y-45425000D01*
X46755000Y-48770000D02*
X46755000Y-47965000D01*
X49245000Y-28450000D02*
X49245000Y-48770000D01*
X49245000Y-48770000D02*
X46755000Y-48770000D01*
X48100000Y-49420000D02*
G75*
G02*
X47900000Y-49420000I-100000J0D01*
G01*
X47900000Y-49420000D02*
G75*
G02*
X48100000Y-49420000I100000J0D01*
G01*
%TO.C,J13*%
X140190000Y-149841400D02*
X140190000Y-147301400D01*
X147810000Y-147301400D02*
X140190000Y-147301400D01*
X147810000Y-147301400D02*
X147810000Y-149841400D01*
X147810000Y-149841400D02*
X140190000Y-149841400D01*
X139640000Y-148571400D02*
G75*
G02*
X139440000Y-148571400I-100000J0D01*
G01*
X139440000Y-148571400D02*
G75*
G02*
X139640000Y-148571400I100000J0D01*
G01*
%TO.C,J4*%
X140190000Y-111270000D02*
X140190000Y-108730000D01*
X147810000Y-108730000D02*
X140190000Y-108730000D01*
X147810000Y-108730000D02*
X147810000Y-111270000D01*
X147810000Y-111270000D02*
X140190000Y-111270000D01*
X139640000Y-110000000D02*
G75*
G02*
X139440000Y-110000000I-100000J0D01*
G01*
X139440000Y-110000000D02*
G75*
G02*
X139640000Y-110000000I100000J0D01*
G01*
%TD*%
M02*
