G04*
G04 #@! TF.GenerationSoftware,Altium Limited,CircuitMaker, ()*
G04*
G04 Layer_Color=15138737*
%FSLAX25Y25*%
%MOIN*%
G70*
G04*
G04 #@! TF.SameCoordinates,C26F3102-9BEA-4C27-960F-8064AF7766A3*
G04*
G04*
G04 #@! TF.FilePolarity,Positive*
G04*
G01*
G75*
%ADD33C,0.00394*%
%ADD34C,0.00197*%
D33*
X477240Y469240D02*
Y471760D01*
Y469240D02*
X479760D01*
Y471760D01*
X477240D02*
X479760D01*
X477240Y459240D02*
Y461760D01*
X479760Y459240D02*
Y461760D01*
X477240D02*
X479760D01*
X471492Y385500D02*
X485508D01*
X477240Y311760D02*
X479760D01*
Y309240D02*
Y311760D01*
X477240Y309240D02*
X479760D01*
X477240D02*
Y311760D01*
Y321760D02*
X479760D01*
Y319240D02*
Y321760D01*
X477240Y319240D02*
X479760D01*
X477240D02*
Y321760D01*
Y331760D02*
X479760D01*
Y329240D02*
Y331760D01*
X477240Y329240D02*
X479760D01*
X477240D02*
Y331760D01*
Y341760D02*
X479760D01*
Y339240D02*
Y341760D01*
X477240Y339240D02*
X479760D01*
X477240D02*
Y341760D01*
Y381760D02*
X479760D01*
Y379240D02*
Y381760D01*
X477240Y379240D02*
X479760D01*
X477240D02*
Y381760D01*
Y371760D02*
X479760D01*
Y369240D02*
Y371760D01*
X477240Y369240D02*
X479760D01*
X477240D02*
Y371760D01*
Y359240D02*
Y361760D01*
Y359240D02*
X479760D01*
Y361760D01*
X477240D02*
X479760D01*
X477240Y351760D02*
X479760D01*
Y349240D02*
Y351760D01*
X477240Y349240D02*
X479760D01*
X477240D02*
Y351760D01*
X471492Y305500D02*
Y385500D01*
X477240Y439240D02*
Y441760D01*
Y439240D02*
X479760D01*
Y441760D01*
X477240D02*
X479760D01*
X477240Y451760D02*
X479760D01*
Y449240D02*
Y451760D01*
X477240Y449240D02*
X479760D01*
X477240D02*
Y451760D01*
Y429240D02*
Y431760D01*
Y429240D02*
X479760D01*
Y431760D01*
X477240D02*
X479760D01*
X477240Y419240D02*
Y421760D01*
Y419240D02*
X479760D01*
Y421760D01*
X477240D02*
X479760D01*
X477240Y409240D02*
Y411760D01*
Y409240D02*
X479760D01*
Y411760D01*
X477240D02*
X479760D01*
X477240Y399240D02*
Y401760D01*
Y399240D02*
X479760D01*
Y401760D01*
X477240D02*
X479760D01*
X281492Y455500D02*
X295508D01*
X287240Y381760D02*
X289760D01*
Y379240D02*
Y381760D01*
X287240Y379240D02*
X289760D01*
X287240D02*
Y381760D01*
Y391760D02*
X289760D01*
Y389240D02*
Y391760D01*
X287240Y389240D02*
X289760D01*
X287240D02*
Y391760D01*
Y401760D02*
X289760D01*
Y399240D02*
Y401760D01*
X287240Y399240D02*
X289760D01*
X287240D02*
Y401760D01*
Y411760D02*
X289760D01*
Y409240D02*
Y411760D01*
X287240Y409240D02*
X289760D01*
X287240D02*
Y411760D01*
Y451760D02*
X289760D01*
Y449240D02*
Y451760D01*
X287240Y449240D02*
X289760D01*
X287240D02*
Y451760D01*
Y441760D02*
X289760D01*
Y439240D02*
Y441760D01*
X287240Y439240D02*
X289760D01*
X287240D02*
Y441760D01*
Y429240D02*
Y431760D01*
Y429240D02*
X289760D01*
Y431760D01*
X287240D02*
X289760D01*
X287240Y421760D02*
X289760D01*
Y419240D02*
Y421760D01*
X287240Y419240D02*
X289760D01*
X287240D02*
Y421760D01*
X295508Y375500D02*
Y455500D01*
X281492Y375500D02*
X295508D01*
X281492D02*
Y455500D01*
X287240Y275760D02*
X289760D01*
Y273240D02*
Y275760D01*
X287240Y273240D02*
X289760D01*
X287240D02*
Y275760D01*
Y285760D02*
X289760D01*
Y283240D02*
Y285760D01*
X287240Y283240D02*
X289760D01*
X287240D02*
Y285760D01*
Y295760D02*
X289760D01*
Y293240D02*
Y295760D01*
X287240Y293240D02*
X289760D01*
X287240D02*
Y295760D01*
Y305760D02*
X289760D01*
Y303240D02*
Y305760D01*
X287240Y303240D02*
X289760D01*
X287240D02*
Y305760D01*
Y365760D02*
X289760D01*
Y363240D02*
Y365760D01*
X287240Y363240D02*
X289760D01*
X287240D02*
Y365760D01*
Y355760D02*
X289760D01*
Y353240D02*
Y355760D01*
X287240Y353240D02*
X289760D01*
X287240D02*
Y355760D01*
Y345760D02*
X289760D01*
Y343240D02*
Y345760D01*
X287240Y343240D02*
X289760D01*
X287240D02*
Y345760D01*
Y335760D02*
X289760D01*
Y333240D02*
Y335760D01*
X287240Y333240D02*
X289760D01*
X287240D02*
Y335760D01*
Y323240D02*
Y325760D01*
Y323240D02*
X289760D01*
Y325760D01*
X287240D02*
X289760D01*
X287240Y315760D02*
X289760D01*
Y313240D02*
Y315760D01*
X287240Y313240D02*
X289760D01*
X287240D02*
Y315760D01*
X281492Y369500D02*
X295508D01*
Y269500D02*
Y369500D01*
X281492Y269500D02*
X295508D01*
X281492D02*
Y369500D01*
X585383Y263238D02*
X591367D01*
X588008Y334738D02*
X593992D01*
X588508Y395738D02*
X594492D01*
X629258Y263238D02*
X635242D01*
X631008Y334738D02*
X636992D01*
X629508Y395738D02*
X635492D01*
X717008Y263238D02*
X722992D01*
X717008Y334738D02*
X722992D01*
X711508Y395738D02*
X717492D01*
X541508Y263238D02*
X547492D01*
X545008Y334738D02*
X550992D01*
X547508Y395738D02*
X553492D01*
X673133Y263238D02*
X679117D01*
X674008Y334738D02*
X679992D01*
X670508Y395738D02*
X676492D01*
D34*
X561000Y174000D02*
Y204000D01*
X551000Y174000D02*
Y204000D01*
Y174000D02*
X561000D01*
X547500Y435000D02*
X557500D01*
X547500D02*
Y465000D01*
X557500Y435000D02*
Y465000D01*
X547500Y503000D02*
X557500D01*
X547500D02*
Y533000D01*
X557500Y503000D02*
Y533000D01*
X547500Y568500D02*
X557500D01*
X547500D02*
Y598500D01*
X557500Y568500D02*
Y598500D01*
X587375Y435000D02*
X597375D01*
X587375D02*
Y465000D01*
X597375Y435000D02*
Y465000D01*
X587375Y503000D02*
X597375D01*
X587375D02*
Y533000D01*
X597375Y503000D02*
Y533000D01*
X587375Y568500D02*
X597375D01*
X587375D02*
Y598500D01*
X597375Y568500D02*
Y598500D01*
X627250Y435000D02*
X637250D01*
X627250D02*
Y465000D01*
X637250Y435000D02*
Y465000D01*
X627250Y503000D02*
X637250D01*
X627250D02*
Y533000D01*
X637250Y503000D02*
Y533000D01*
X627250Y568500D02*
X637250D01*
X627250D02*
Y598500D01*
X637250Y568500D02*
Y598500D01*
X707000Y435000D02*
X717000D01*
X707000D02*
Y465000D01*
X717000Y435000D02*
Y465000D01*
X707000Y503000D02*
X717000D01*
X707000D02*
Y533000D01*
X717000Y503000D02*
Y533000D01*
X707000Y568500D02*
X717000D01*
X707000D02*
Y598500D01*
X717000Y568500D02*
Y598500D01*
X680500Y171500D02*
Y201500D01*
X670500Y171500D02*
Y201500D01*
Y171500D02*
X680500D01*
X667125Y435000D02*
X677125D01*
X667125D02*
Y465000D01*
X677125Y435000D02*
Y465000D01*
X667125Y503000D02*
X677125D01*
X667125D02*
Y533000D01*
X677125Y503000D02*
Y533000D01*
X667125Y568500D02*
X677125D01*
X667125D02*
Y598500D01*
X677125Y568500D02*
Y598500D01*
M02*
