G04*
G04 #@! TF.GenerationSoftware,Altium Limited,CircuitMaker, ()*
G04*
G04 Layer_Physical_Order=2*
G04 Layer_Color=11436288*
%FSLAX25Y25*%
%MOIN*%
G70*
G04*
G04 #@! TF.SameCoordinates,C26F3102-9BEA-4C27-960F-8064AF7766A3*
G04*
G04*
G04 #@! TF.FilePolarity,Positive*
G04*
G01*
G75*
%ADD23C,0.03000*%
%ADD24C,0.05905*%
%ADD25R,0.05905X0.05905*%
%ADD26R,0.05905X0.05905*%
%ADD27C,0.07000*%
%ADD28C,0.11811*%
%ADD29R,0.07087X0.07087*%
%ADD30C,0.07087*%
%ADD31C,0.07874*%
%ADD32C,0.05000*%
D23*
X381900Y243950D02*
X544500D01*
X205900Y241600D02*
X381900Y243950D01*
X197000Y250500D02*
X205900Y241600D01*
X524550Y350500D02*
X550500Y376450D01*
X478500Y350500D02*
X524550D01*
X232100Y344900D02*
X241000Y336000D01*
X186400Y344900D02*
X232100D01*
X178500Y337000D02*
X186400Y344900D01*
X543700Y420500D02*
X590400D01*
X539700Y416500D02*
X543700Y420500D01*
X539700Y394100D02*
Y416500D01*
X534500Y388900D02*
X539700Y394100D01*
X489006Y388900D02*
X534500D01*
X487406Y390500D02*
X489006Y388900D01*
X288500Y390500D02*
X487406D01*
X678200Y412500D02*
X682200Y416500D01*
X546000Y412500D02*
X678200D01*
X544000Y410500D02*
X546000Y412500D01*
X544000Y390400D02*
Y410500D01*
X538500Y384900D02*
X544000Y390400D01*
X485053Y384900D02*
X538500D01*
X484000Y385953D02*
X485053Y384900D01*
X293953Y385953D02*
X484000D01*
X288500Y380500D02*
X293953Y385953D01*
X348500Y304500D02*
X726500D01*
X288500Y364500D02*
X348500Y304500D01*
X562500Y286900D02*
X571400Y295800D01*
X545000Y286900D02*
X562500D01*
X542900Y289000D02*
X545000Y286900D01*
X334000Y289000D02*
X542900D01*
X288500Y334500D02*
X334000Y289000D01*
X288500Y324500D02*
X328000Y285000D01*
X541000D01*
X543100Y282900D01*
X600700D01*
X614800Y297000D01*
X712000Y518000D02*
X718100Y524100D01*
Y548500D01*
X712500Y554100D02*
X718100Y548500D01*
X555841Y554100D02*
X712500D01*
X514341Y595600D02*
X555841Y554100D01*
X287100Y595600D02*
X514341D01*
X283000Y591500D02*
X287100Y595600D01*
X348500Y580500D02*
X355500Y587500D01*
X461000D01*
X473000Y575500D01*
Y486500D02*
Y575500D01*
Y486500D02*
X474453Y485047D01*
X517453D01*
X552500Y450000D01*
X552100Y542400D02*
X639600D01*
X503000Y591500D02*
X552100Y542400D01*
X339500Y591500D02*
X503000D01*
X328500Y580500D02*
X339500Y591500D01*
X547100Y430200D02*
X666000D01*
X496253Y481047D02*
X547100Y430200D01*
X469047Y481047D02*
X496253D01*
X387459Y562635D02*
X469047Y481047D01*
X288108Y562635D02*
X387459D01*
X283000Y567743D02*
X288108Y562635D01*
X283000Y567743D02*
Y584500D01*
X284453Y585953D01*
X313047D01*
X318500Y580500D01*
X681400Y605000D02*
X690000Y596400D01*
X333000Y605000D02*
X681400D01*
X140500Y427929D02*
X183071Y470500D01*
X288500D01*
Y480500D02*
X294000Y475000D01*
Y464500D02*
Y475000D01*
X247360Y417860D02*
X294000Y464500D01*
X140500Y417860D02*
X247360D01*
X158500Y337000D02*
X167400Y328100D01*
X213100D01*
X221000Y336000D01*
X438000Y400500D02*
X478500D01*
X292500Y546000D02*
X438000Y400500D01*
X179996Y546000D02*
X292500D01*
X140500Y506504D02*
X179996Y546000D01*
X433800Y410500D02*
X478500D01*
X294300Y550000D02*
X433800Y410500D01*
X163853Y550000D02*
X294300D01*
X140500Y526647D02*
X163853Y550000D01*
X140500Y546787D02*
X147713Y554000D01*
X295957D01*
X375457Y474500D01*
X424500D01*
X478500Y420500D01*
X430500Y478500D02*
X478500Y430500D01*
X379114Y478500D02*
X430500D01*
X299614Y558000D02*
X379114Y478500D01*
X149429Y558000D02*
X299614D01*
X140500Y566929D02*
X149429Y558000D01*
X681700Y534300D02*
X685000Y531000D01*
X494700Y534300D02*
X681700D01*
X478500Y550500D02*
X494700Y534300D01*
X288500Y284500D02*
X292000Y281000D01*
X537000D01*
X544500Y273500D01*
X340000Y293000D02*
X556900D01*
X288500Y344500D02*
X340000Y293000D01*
X692080Y528000D02*
X712000D01*
X690000Y525920D02*
X692080Y528000D01*
X682080Y525920D02*
X690000D01*
X680000Y528000D02*
X682080Y525920D01*
X672125Y528000D02*
X680000D01*
X697135Y593500D02*
X712000D01*
X694979Y591344D02*
X697135Y593500D01*
X687135Y591344D02*
X694979D01*
X684979Y593500D02*
X687135Y591344D01*
X672125Y593500D02*
X684979D01*
X294000Y395000D02*
X526600D01*
X288500Y400500D02*
X294000Y395000D01*
X478500Y360500D02*
X524700D01*
X550500Y386300D01*
X241000Y336000D02*
X275000Y370000D01*
X469000D01*
X478500Y360500D01*
X288500Y274500D02*
X295200D01*
X297100Y272600D01*
X535550D01*
X544500Y263650D01*
Y243950D02*
X588375D01*
X676125D02*
X720000D01*
X588375D02*
X632250D01*
X676125D01*
X672125Y440000D02*
X712000D01*
X632250D02*
X672125D01*
X552500D02*
X592375D01*
X632250D01*
X673500Y376450D02*
X714500D01*
X632500D02*
X673500D01*
X550500D02*
X591500D01*
X632500D01*
X677000Y315450D02*
X720000D01*
X634000D02*
X677000D01*
X591000D02*
X634000D01*
X548000D02*
X591000D01*
X552500Y573500D02*
X592375D01*
X672125D02*
X712000D01*
X592375D02*
X632250D01*
X672125D01*
X592375Y508000D02*
X632250D01*
X552500D02*
X592375D01*
X632250D02*
X672125D01*
X712000D01*
X592375Y460000D02*
X632250D01*
X552500D02*
X592375D01*
X632250D02*
X672125D01*
X712000D01*
X552500Y593500D02*
X592375D01*
X632250D01*
X672125D01*
X592375Y528000D02*
X632250D01*
X552500D02*
X592375D01*
X632250D02*
X672125D01*
X673500Y386300D02*
X714500D01*
X632500D02*
X673500D01*
X591500D02*
X632500D01*
X550500D02*
X591500D01*
X676125Y253800D02*
X720000D01*
X632250D02*
X676125D01*
X544500D02*
X588375D01*
X632250D01*
X548000Y325300D02*
X591000D01*
X677000D02*
X720000D01*
X591000D02*
X634000D01*
X677000D01*
X550500Y396150D02*
X591500D01*
X673500D02*
X714500D01*
X591500D02*
X632500D01*
X673500D01*
X676125Y263650D02*
X720000D01*
X632250D02*
X676125D01*
X588375D02*
X632250D01*
X544500D02*
X588375D01*
X677000Y335150D02*
X720000D01*
X634000D02*
X677000D01*
X548000D02*
X591000D01*
X634000D01*
X550500Y406000D02*
X591500D01*
X673500D02*
X714500D01*
X591500D02*
X632500D01*
X673500D01*
X676125Y273500D02*
X720000D01*
X632250D02*
X676125D01*
X588375D02*
X632250D01*
X544500D02*
X588375D01*
X677000Y345000D02*
X720000D01*
X634000D02*
X677000D01*
X548000D02*
X591000D01*
X634000D01*
D24*
X288500Y570500D02*
D03*
X298500D02*
D03*
X308500D02*
D03*
X288500Y580500D02*
D03*
X298500D02*
D03*
X308500D02*
D03*
X318500Y570500D02*
D03*
X328500D02*
D03*
X338500D02*
D03*
X348500D02*
D03*
X358500D02*
D03*
X368500D02*
D03*
X378500D02*
D03*
X318500Y580500D02*
D03*
X328500D02*
D03*
X338500D02*
D03*
X348500D02*
D03*
X358500D02*
D03*
X368500D02*
D03*
X378500D02*
D03*
X448500D02*
D03*
X438500D02*
D03*
X428500D02*
D03*
X418500D02*
D03*
X408500D02*
D03*
X398500D02*
D03*
X388500D02*
D03*
X448500Y570500D02*
D03*
X438500D02*
D03*
X428500D02*
D03*
X418500D02*
D03*
X408500D02*
D03*
X398500D02*
D03*
X388500D02*
D03*
X288500Y540500D02*
D03*
Y530500D02*
D03*
Y520500D02*
D03*
Y510500D02*
D03*
Y500500D02*
D03*
Y490500D02*
D03*
Y480500D02*
D03*
X478500Y500500D02*
D03*
Y510500D02*
D03*
Y520500D02*
D03*
Y530500D02*
D03*
Y540500D02*
D03*
Y550500D02*
D03*
Y560500D02*
D03*
Y470500D02*
D03*
Y460500D02*
D03*
Y380500D02*
D03*
Y370500D02*
D03*
Y320500D02*
D03*
Y330500D02*
D03*
Y340500D02*
D03*
Y350500D02*
D03*
Y360500D02*
D03*
Y450500D02*
D03*
Y440500D02*
D03*
Y430500D02*
D03*
Y420500D02*
D03*
Y410500D02*
D03*
X288500Y450500D02*
D03*
Y440500D02*
D03*
Y390500D02*
D03*
Y400500D02*
D03*
Y410500D02*
D03*
Y420500D02*
D03*
Y430500D02*
D03*
Y364500D02*
D03*
Y354500D02*
D03*
Y344500D02*
D03*
Y334500D02*
D03*
Y284500D02*
D03*
Y294500D02*
D03*
Y304500D02*
D03*
Y314500D02*
D03*
Y324500D02*
D03*
D25*
X458500Y580500D02*
D03*
Y570500D02*
D03*
D26*
X288500Y470500D02*
D03*
X478500Y490500D02*
D03*
Y310500D02*
D03*
Y400500D02*
D03*
X288500Y380500D02*
D03*
Y274500D02*
D03*
D27*
X140500Y417860D02*
D03*
Y407789D02*
D03*
Y397717D02*
D03*
Y387646D02*
D03*
Y458142D02*
D03*
Y448071D02*
D03*
Y438000D02*
D03*
Y427929D02*
D03*
Y546787D02*
D03*
Y556858D02*
D03*
Y566929D02*
D03*
Y577000D02*
D03*
Y506504D02*
D03*
Y516575D02*
D03*
Y526647D02*
D03*
Y536718D02*
D03*
D28*
X217000Y250500D02*
D03*
X197000D02*
D03*
X178500Y337000D02*
D03*
X158500D02*
D03*
X241000Y336000D02*
D03*
X221000D02*
D03*
D29*
X556000Y179000D02*
D03*
X552500Y440000D02*
D03*
Y508000D02*
D03*
Y573500D02*
D03*
X592375Y440000D02*
D03*
Y508000D02*
D03*
Y573500D02*
D03*
X632250Y440000D02*
D03*
Y508000D02*
D03*
Y573500D02*
D03*
X712000Y440000D02*
D03*
Y508000D02*
D03*
Y573500D02*
D03*
X675500Y176500D02*
D03*
X672125Y440000D02*
D03*
Y508000D02*
D03*
Y573500D02*
D03*
D30*
X556000Y189000D02*
D03*
Y199000D02*
D03*
X552500Y460000D02*
D03*
Y450000D02*
D03*
Y528000D02*
D03*
Y518000D02*
D03*
Y593500D02*
D03*
Y583500D02*
D03*
X592375Y460000D02*
D03*
Y450000D02*
D03*
Y528000D02*
D03*
Y518000D02*
D03*
Y593500D02*
D03*
Y583500D02*
D03*
X632250Y460000D02*
D03*
Y450000D02*
D03*
Y528000D02*
D03*
Y518000D02*
D03*
Y593500D02*
D03*
Y583500D02*
D03*
X712000Y460000D02*
D03*
Y450000D02*
D03*
Y528000D02*
D03*
Y518000D02*
D03*
Y593500D02*
D03*
Y583500D02*
D03*
X675500Y186500D02*
D03*
Y196500D02*
D03*
X672125Y460000D02*
D03*
Y450000D02*
D03*
Y528000D02*
D03*
Y518000D02*
D03*
Y593500D02*
D03*
Y583500D02*
D03*
D31*
X588375Y273500D02*
D03*
Y263650D02*
D03*
Y253800D02*
D03*
Y243950D02*
D03*
X591000Y345000D02*
D03*
Y335150D02*
D03*
Y325300D02*
D03*
Y315450D02*
D03*
X591500Y406000D02*
D03*
Y396150D02*
D03*
Y386300D02*
D03*
Y376450D02*
D03*
X632250Y273500D02*
D03*
Y263650D02*
D03*
Y253800D02*
D03*
Y243950D02*
D03*
X634000Y345000D02*
D03*
Y335150D02*
D03*
Y325300D02*
D03*
Y315450D02*
D03*
X632500Y406000D02*
D03*
Y396150D02*
D03*
Y386300D02*
D03*
Y376450D02*
D03*
X720000Y273500D02*
D03*
Y263650D02*
D03*
Y253800D02*
D03*
Y243950D02*
D03*
Y345000D02*
D03*
Y335150D02*
D03*
Y325300D02*
D03*
Y315450D02*
D03*
X714500Y406000D02*
D03*
Y396150D02*
D03*
Y386300D02*
D03*
Y376450D02*
D03*
X544500Y273500D02*
D03*
Y263650D02*
D03*
Y253800D02*
D03*
Y243950D02*
D03*
X548000Y345000D02*
D03*
Y335150D02*
D03*
Y325300D02*
D03*
Y315450D02*
D03*
X550500Y406000D02*
D03*
Y396150D02*
D03*
Y386300D02*
D03*
Y376450D02*
D03*
X676125Y273500D02*
D03*
Y263650D02*
D03*
Y253800D02*
D03*
Y243950D02*
D03*
X677000Y345000D02*
D03*
Y335150D02*
D03*
Y325300D02*
D03*
Y315450D02*
D03*
X673500Y406000D02*
D03*
Y396150D02*
D03*
Y386300D02*
D03*
Y376450D02*
D03*
D32*
X590400Y420500D02*
D03*
X682200Y416500D02*
D03*
X726500Y304500D02*
D03*
X571400Y295800D02*
D03*
X614800Y297000D02*
D03*
X283000Y591500D02*
D03*
X639600Y542400D02*
D03*
X666000Y430200D02*
D03*
X690000Y596400D02*
D03*
X333000Y605000D02*
D03*
X685000Y531000D02*
D03*
X556900Y293000D02*
D03*
X526600Y395000D02*
D03*
M02*
