G04*
G04 #@! TF.GenerationSoftware,Altium Limited,CircuitMaker, ()*
G04*
G04 Layer_Color=15314666*
%FSLAX25Y25*%
%MOIN*%
G70*
G04*
G04 #@! TF.SameCoordinates,C26F3102-9BEA-4C27-960F-8064AF7766A3*
G04*
G04*
G04 #@! TF.FilePolarity,Positive*
G04*
G01*
G75*
%ADD33C,0.00394*%
%ADD34C,0.00197*%
D33*
X476532Y355500D02*
X480469D01*
X478500Y353531D02*
Y357468D01*
X286532Y425500D02*
X290469D01*
X288500Y423531D02*
Y427468D01*
X286532Y319500D02*
X290469D01*
X288500Y317531D02*
Y321468D01*
D34*
X471098Y305106D02*
Y385500D01*
X281000Y455500D02*
X295902D01*
Y375106D02*
Y455500D01*
X281098Y375106D02*
X295902D01*
X281098D02*
Y455500D01*
Y369894D02*
X295902D01*
Y269106D02*
Y369894D01*
X281098Y269106D02*
X295902D01*
X281098D02*
Y369894D01*
X550000Y173000D02*
X562000D01*
X550000D02*
Y204900D01*
X562000Y173000D02*
Y204900D01*
X550020Y204906D02*
X562020D01*
X546520Y465906D02*
X558520D01*
X558500Y434000D02*
Y465900D01*
X546500Y434000D02*
Y465900D01*
Y434000D02*
X558500D01*
X546520Y533906D02*
X558520D01*
X558500Y502000D02*
Y533900D01*
X546500Y502000D02*
Y533900D01*
Y502000D02*
X558500D01*
X546520Y599406D02*
X558520D01*
X558500Y567500D02*
Y599400D01*
X546500Y567500D02*
Y599400D01*
Y567500D02*
X558500D01*
X585225Y283352D02*
X620277D01*
X585225Y234140D02*
X620277D01*
X620265Y234144D02*
Y283356D01*
X585225Y234144D02*
Y283356D01*
X587850Y354852D02*
X622902D01*
X587850Y305640D02*
X622902D01*
X622890Y305644D02*
Y354856D01*
X587850Y305644D02*
Y354856D01*
X588350Y415852D02*
X623402D01*
X588350Y366640D02*
X623402D01*
X623390Y366644D02*
Y415856D01*
X588350Y366644D02*
Y415856D01*
X586395Y465906D02*
X598395D01*
X598375Y434000D02*
Y465900D01*
X586375Y434000D02*
Y465900D01*
Y434000D02*
X598375D01*
X586395Y533906D02*
X598395D01*
X598375Y502000D02*
Y533900D01*
X586375Y502000D02*
Y533900D01*
Y502000D02*
X598375D01*
X586395Y599406D02*
X598395D01*
X598375Y567500D02*
Y599400D01*
X586375Y567500D02*
Y599400D01*
Y567500D02*
X598375D01*
X629100Y283352D02*
X664152D01*
X629100Y234140D02*
X664152D01*
X664140Y234144D02*
Y283356D01*
X629100Y234144D02*
Y283356D01*
X630850Y354852D02*
X665902D01*
X630850Y305640D02*
X665902D01*
X665890Y305644D02*
Y354856D01*
X630850Y305644D02*
Y354856D01*
X629350Y415852D02*
X664402D01*
X629350Y366640D02*
X664402D01*
X664390Y366644D02*
Y415856D01*
X629350Y366644D02*
Y415856D01*
X626270Y465906D02*
X638270D01*
X638250Y434000D02*
Y465900D01*
X626250Y434000D02*
Y465900D01*
Y434000D02*
X638250D01*
X626270Y533906D02*
X638270D01*
X638250Y502000D02*
Y533900D01*
X626250Y502000D02*
Y533900D01*
Y502000D02*
X638250D01*
X626270Y599406D02*
X638270D01*
X638250Y567500D02*
Y599400D01*
X626250Y567500D02*
Y599400D01*
Y567500D02*
X638250D01*
X716850Y283352D02*
X751902D01*
X716850Y234140D02*
X751902D01*
X751890Y234144D02*
Y283356D01*
X716850Y234144D02*
Y283356D01*
Y354852D02*
X751902D01*
X716850Y305640D02*
X751902D01*
X751890Y305644D02*
Y354856D01*
X716850Y305644D02*
Y354856D01*
X711350Y415852D02*
X746402D01*
X711350Y366640D02*
X746402D01*
X746390Y366644D02*
Y415856D01*
X711350Y366644D02*
Y415856D01*
X706020Y465906D02*
X718020D01*
X718000Y434000D02*
Y465900D01*
X706000Y434000D02*
Y465900D01*
Y434000D02*
X718000D01*
X706020Y533906D02*
X718020D01*
X718000Y502000D02*
Y533900D01*
X706000Y502000D02*
Y533900D01*
Y502000D02*
X718000D01*
X706020Y599406D02*
X718020D01*
X718000Y567500D02*
Y599400D01*
X706000Y567500D02*
Y599400D01*
Y567500D02*
X718000D01*
X669500Y170500D02*
X681500D01*
X669500D02*
Y202400D01*
X681500Y170500D02*
Y202400D01*
X669520Y202406D02*
X681520D01*
X541350Y283352D02*
X576402D01*
X541350Y234140D02*
X576402D01*
X576390Y234144D02*
Y283356D01*
X541350Y234144D02*
Y283356D01*
X544850Y354852D02*
X579902D01*
X544850Y305640D02*
X579902D01*
X579890Y305644D02*
Y354856D01*
X544850Y305644D02*
Y354856D01*
X547350Y415852D02*
X582402D01*
X547350Y366640D02*
X582402D01*
X582390Y366644D02*
Y415856D01*
X547350Y366644D02*
Y415856D01*
X672975Y283352D02*
X708027D01*
X672975Y234140D02*
X708027D01*
X708015Y234144D02*
Y283356D01*
X672975Y234144D02*
Y283356D01*
X673850Y354852D02*
X708902D01*
X673850Y305640D02*
X708902D01*
X708890Y305644D02*
Y354856D01*
X673850Y305644D02*
Y354856D01*
X670350Y415852D02*
X705402D01*
X670350Y366640D02*
X705402D01*
X705390Y366644D02*
Y415856D01*
X670350Y366644D02*
Y415856D01*
X666145Y465906D02*
X678145D01*
X678125Y434000D02*
Y465900D01*
X666125Y434000D02*
Y465900D01*
Y434000D02*
X678125D01*
X666145Y533906D02*
X678145D01*
X678125Y502000D02*
Y533900D01*
X666125Y502000D02*
Y533900D01*
Y502000D02*
X678125D01*
X666145Y599406D02*
X678145D01*
X678125Y567500D02*
Y599400D01*
X666125Y567500D02*
Y599400D01*
Y567500D02*
X678125D01*
M02*
