%TF.GenerationSoftware,KiCad,Pcbnew,9.0.3*%
%TF.CreationDate,2025-08-21T13:11:43+03:00*%
%TF.ProjectId,Solar Cooling Project,536f6c61-7220-4436-9f6f-6c696e672050,rev?*%
%TF.SameCoordinates,Original*%
%TF.FileFunction,Drillmap*%
%TF.FilePolarity,Positive*%
%FSLAX45Y45*%
G04 Gerber Fmt 4.5, Leading zero omitted, Abs format (unit mm)*
G04 Created by KiCad (PCBNEW 9.0.3) date 2025-08-21 13:11:43*
%MOMM*%
%LPD*%
G01*
G04 APERTURE LIST*
%ADD10C,0.200000*%
%ADD11C,0.320000*%
G04 APERTURE END LIST*
D10*
X1700000Y-18750000D02*
X1700000Y-1450000D01*
X1950000Y-18750000D02*
X1700000Y-18750000D01*
X18300000Y-18750000D02*
X1950000Y-18750000D01*
X1700000Y-1450000D02*
X18300000Y-1450000D01*
X18300000Y-1450000D02*
X18300000Y-18750000D01*
D11*
X7140000Y-5360600D02*
X7460000Y-5680600D01*
X7460000Y-5360600D02*
X7140000Y-5680600D01*
X7140000Y-12853600D02*
X7460000Y-13173600D01*
X7460000Y-12853600D02*
X7140000Y-13173600D01*
X8664000Y-7773600D02*
X8984000Y-8093600D01*
X8984000Y-7773600D02*
X8664000Y-8093600D01*
X11458000Y-7773600D02*
X11778000Y-8093600D01*
X11778000Y-7773600D02*
X11458000Y-8093600D01*
X11966000Y-4725600D02*
X12286000Y-5045600D01*
X12286000Y-4725600D02*
X11966000Y-5045600D01*
X11966000Y-12980600D02*
X12286000Y-13300600D01*
X12286000Y-12980600D02*
X11966000Y-13300600D01*
D10*
X1950777Y-19071484D02*
X1950777Y-18871484D01*
X1950777Y-18871484D02*
X1998396Y-18871484D01*
X1998396Y-18871484D02*
X2026967Y-18881008D01*
X2026967Y-18881008D02*
X2046015Y-18900055D01*
X2046015Y-18900055D02*
X2055539Y-18919103D01*
X2055539Y-18919103D02*
X2065062Y-18957198D01*
X2065062Y-18957198D02*
X2065062Y-18985770D01*
X2065062Y-18985770D02*
X2055539Y-19023865D01*
X2055539Y-19023865D02*
X2046015Y-19042912D01*
X2046015Y-19042912D02*
X2026967Y-19061960D01*
X2026967Y-19061960D02*
X1998396Y-19071484D01*
X1998396Y-19071484D02*
X1950777Y-19071484D01*
X2150777Y-19071484D02*
X2150777Y-18938150D01*
X2150777Y-18976246D02*
X2160301Y-18957198D01*
X2160301Y-18957198D02*
X2169824Y-18947674D01*
X2169824Y-18947674D02*
X2188872Y-18938150D01*
X2188872Y-18938150D02*
X2207920Y-18938150D01*
X2274586Y-19071484D02*
X2274586Y-18938150D01*
X2274586Y-18871484D02*
X2265063Y-18881008D01*
X2265063Y-18881008D02*
X2274586Y-18890531D01*
X2274586Y-18890531D02*
X2284110Y-18881008D01*
X2284110Y-18881008D02*
X2274586Y-18871484D01*
X2274586Y-18871484D02*
X2274586Y-18890531D01*
X2398396Y-19071484D02*
X2379348Y-19061960D01*
X2379348Y-19061960D02*
X2369824Y-19042912D01*
X2369824Y-19042912D02*
X2369824Y-18871484D01*
X2503158Y-19071484D02*
X2484110Y-19061960D01*
X2484110Y-19061960D02*
X2474586Y-19042912D01*
X2474586Y-19042912D02*
X2474586Y-18871484D01*
X2731729Y-19071484D02*
X2731729Y-18871484D01*
X2731729Y-18871484D02*
X2798396Y-19014341D01*
X2798396Y-19014341D02*
X2865062Y-18871484D01*
X2865062Y-18871484D02*
X2865062Y-19071484D01*
X3046015Y-19071484D02*
X3046015Y-18966722D01*
X3046015Y-18966722D02*
X3036491Y-18947674D01*
X3036491Y-18947674D02*
X3017443Y-18938150D01*
X3017443Y-18938150D02*
X2979348Y-18938150D01*
X2979348Y-18938150D02*
X2960301Y-18947674D01*
X3046015Y-19061960D02*
X3026967Y-19071484D01*
X3026967Y-19071484D02*
X2979348Y-19071484D01*
X2979348Y-19071484D02*
X2960301Y-19061960D01*
X2960301Y-19061960D02*
X2950777Y-19042912D01*
X2950777Y-19042912D02*
X2950777Y-19023865D01*
X2950777Y-19023865D02*
X2960301Y-19004817D01*
X2960301Y-19004817D02*
X2979348Y-18995293D01*
X2979348Y-18995293D02*
X3026967Y-18995293D01*
X3026967Y-18995293D02*
X3046015Y-18985770D01*
X3141253Y-18938150D02*
X3141253Y-19138150D01*
X3141253Y-18947674D02*
X3160301Y-18938150D01*
X3160301Y-18938150D02*
X3198396Y-18938150D01*
X3198396Y-18938150D02*
X3217443Y-18947674D01*
X3217443Y-18947674D02*
X3226967Y-18957198D01*
X3226967Y-18957198D02*
X3236491Y-18976246D01*
X3236491Y-18976246D02*
X3236491Y-19033389D01*
X3236491Y-19033389D02*
X3226967Y-19052436D01*
X3226967Y-19052436D02*
X3217443Y-19061960D01*
X3217443Y-19061960D02*
X3198396Y-19071484D01*
X3198396Y-19071484D02*
X3160301Y-19071484D01*
X3160301Y-19071484D02*
X3141253Y-19061960D01*
X3322205Y-19052436D02*
X3331729Y-19061960D01*
X3331729Y-19061960D02*
X3322205Y-19071484D01*
X3322205Y-19071484D02*
X3312682Y-19061960D01*
X3312682Y-19061960D02*
X3322205Y-19052436D01*
X3322205Y-19052436D02*
X3322205Y-19071484D01*
X3322205Y-18947674D02*
X3331729Y-18957198D01*
X3331729Y-18957198D02*
X3322205Y-18966722D01*
X3322205Y-18966722D02*
X3312682Y-18957198D01*
X3312682Y-18957198D02*
X3322205Y-18947674D01*
X3322205Y-18947674D02*
X3322205Y-18966722D01*
X1490000Y-19300000D02*
X1690000Y-19500000D01*
X1690000Y-19300000D02*
X1490000Y-19500000D01*
X1931729Y-19291484D02*
X2055539Y-19291484D01*
X2055539Y-19291484D02*
X1988872Y-19367674D01*
X1988872Y-19367674D02*
X2017443Y-19367674D01*
X2017443Y-19367674D02*
X2036491Y-19377198D01*
X2036491Y-19377198D02*
X2046015Y-19386722D01*
X2046015Y-19386722D02*
X2055539Y-19405770D01*
X2055539Y-19405770D02*
X2055539Y-19453389D01*
X2055539Y-19453389D02*
X2046015Y-19472436D01*
X2046015Y-19472436D02*
X2036491Y-19481960D01*
X2036491Y-19481960D02*
X2017443Y-19491484D01*
X2017443Y-19491484D02*
X1960301Y-19491484D01*
X1960301Y-19491484D02*
X1941253Y-19481960D01*
X1941253Y-19481960D02*
X1931729Y-19472436D01*
X2141253Y-19472436D02*
X2150777Y-19481960D01*
X2150777Y-19481960D02*
X2141253Y-19491484D01*
X2141253Y-19491484D02*
X2131729Y-19481960D01*
X2131729Y-19481960D02*
X2141253Y-19472436D01*
X2141253Y-19472436D02*
X2141253Y-19491484D01*
X2226967Y-19310531D02*
X2236491Y-19301008D01*
X2236491Y-19301008D02*
X2255539Y-19291484D01*
X2255539Y-19291484D02*
X2303158Y-19291484D01*
X2303158Y-19291484D02*
X2322205Y-19301008D01*
X2322205Y-19301008D02*
X2331729Y-19310531D01*
X2331729Y-19310531D02*
X2341253Y-19329579D01*
X2341253Y-19329579D02*
X2341253Y-19348627D01*
X2341253Y-19348627D02*
X2331729Y-19377198D01*
X2331729Y-19377198D02*
X2217444Y-19491484D01*
X2217444Y-19491484D02*
X2341253Y-19491484D01*
X2465063Y-19291484D02*
X2484110Y-19291484D01*
X2484110Y-19291484D02*
X2503158Y-19301008D01*
X2503158Y-19301008D02*
X2512682Y-19310531D01*
X2512682Y-19310531D02*
X2522205Y-19329579D01*
X2522205Y-19329579D02*
X2531729Y-19367674D01*
X2531729Y-19367674D02*
X2531729Y-19415293D01*
X2531729Y-19415293D02*
X2522205Y-19453389D01*
X2522205Y-19453389D02*
X2512682Y-19472436D01*
X2512682Y-19472436D02*
X2503158Y-19481960D01*
X2503158Y-19481960D02*
X2484110Y-19491484D01*
X2484110Y-19491484D02*
X2465063Y-19491484D01*
X2465063Y-19491484D02*
X2446015Y-19481960D01*
X2446015Y-19481960D02*
X2436491Y-19472436D01*
X2436491Y-19472436D02*
X2426967Y-19453389D01*
X2426967Y-19453389D02*
X2417444Y-19415293D01*
X2417444Y-19415293D02*
X2417444Y-19367674D01*
X2417444Y-19367674D02*
X2426967Y-19329579D01*
X2426967Y-19329579D02*
X2436491Y-19310531D01*
X2436491Y-19310531D02*
X2446015Y-19301008D01*
X2446015Y-19301008D02*
X2465063Y-19291484D01*
X2655539Y-19291484D02*
X2674586Y-19291484D01*
X2674586Y-19291484D02*
X2693634Y-19301008D01*
X2693634Y-19301008D02*
X2703158Y-19310531D01*
X2703158Y-19310531D02*
X2712682Y-19329579D01*
X2712682Y-19329579D02*
X2722205Y-19367674D01*
X2722205Y-19367674D02*
X2722205Y-19415293D01*
X2722205Y-19415293D02*
X2712682Y-19453389D01*
X2712682Y-19453389D02*
X2703158Y-19472436D01*
X2703158Y-19472436D02*
X2693634Y-19481960D01*
X2693634Y-19481960D02*
X2674586Y-19491484D01*
X2674586Y-19491484D02*
X2655539Y-19491484D01*
X2655539Y-19491484D02*
X2636491Y-19481960D01*
X2636491Y-19481960D02*
X2626967Y-19472436D01*
X2626967Y-19472436D02*
X2617444Y-19453389D01*
X2617444Y-19453389D02*
X2607920Y-19415293D01*
X2607920Y-19415293D02*
X2607920Y-19367674D01*
X2607920Y-19367674D02*
X2617444Y-19329579D01*
X2617444Y-19329579D02*
X2626967Y-19310531D01*
X2626967Y-19310531D02*
X2636491Y-19301008D01*
X2636491Y-19301008D02*
X2655539Y-19291484D01*
X2807920Y-19491484D02*
X2807920Y-19358150D01*
X2807920Y-19377198D02*
X2817443Y-19367674D01*
X2817443Y-19367674D02*
X2836491Y-19358150D01*
X2836491Y-19358150D02*
X2865063Y-19358150D01*
X2865063Y-19358150D02*
X2884110Y-19367674D01*
X2884110Y-19367674D02*
X2893634Y-19386722D01*
X2893634Y-19386722D02*
X2893634Y-19491484D01*
X2893634Y-19386722D02*
X2903158Y-19367674D01*
X2903158Y-19367674D02*
X2922205Y-19358150D01*
X2922205Y-19358150D02*
X2950777Y-19358150D01*
X2950777Y-19358150D02*
X2969824Y-19367674D01*
X2969824Y-19367674D02*
X2979348Y-19386722D01*
X2979348Y-19386722D02*
X2979348Y-19491484D01*
X3074586Y-19491484D02*
X3074586Y-19358150D01*
X3074586Y-19377198D02*
X3084110Y-19367674D01*
X3084110Y-19367674D02*
X3103158Y-19358150D01*
X3103158Y-19358150D02*
X3131729Y-19358150D01*
X3131729Y-19358150D02*
X3150777Y-19367674D01*
X3150777Y-19367674D02*
X3160301Y-19386722D01*
X3160301Y-19386722D02*
X3160301Y-19491484D01*
X3160301Y-19386722D02*
X3169824Y-19367674D01*
X3169824Y-19367674D02*
X3188872Y-19358150D01*
X3188872Y-19358150D02*
X3217443Y-19358150D01*
X3217443Y-19358150D02*
X3236491Y-19367674D01*
X3236491Y-19367674D02*
X3246015Y-19386722D01*
X3246015Y-19386722D02*
X3246015Y-19491484D01*
X3636491Y-19281960D02*
X3465063Y-19539103D01*
X3893634Y-19291484D02*
X3912682Y-19291484D01*
X3912682Y-19291484D02*
X3931729Y-19301008D01*
X3931729Y-19301008D02*
X3941253Y-19310531D01*
X3941253Y-19310531D02*
X3950777Y-19329579D01*
X3950777Y-19329579D02*
X3960301Y-19367674D01*
X3960301Y-19367674D02*
X3960301Y-19415293D01*
X3960301Y-19415293D02*
X3950777Y-19453389D01*
X3950777Y-19453389D02*
X3941253Y-19472436D01*
X3941253Y-19472436D02*
X3931729Y-19481960D01*
X3931729Y-19481960D02*
X3912682Y-19491484D01*
X3912682Y-19491484D02*
X3893634Y-19491484D01*
X3893634Y-19491484D02*
X3874586Y-19481960D01*
X3874586Y-19481960D02*
X3865063Y-19472436D01*
X3865063Y-19472436D02*
X3855539Y-19453389D01*
X3855539Y-19453389D02*
X3846015Y-19415293D01*
X3846015Y-19415293D02*
X3846015Y-19367674D01*
X3846015Y-19367674D02*
X3855539Y-19329579D01*
X3855539Y-19329579D02*
X3865063Y-19310531D01*
X3865063Y-19310531D02*
X3874586Y-19301008D01*
X3874586Y-19301008D02*
X3893634Y-19291484D01*
X4046015Y-19472436D02*
X4055539Y-19481960D01*
X4055539Y-19481960D02*
X4046015Y-19491484D01*
X4046015Y-19491484D02*
X4036491Y-19481960D01*
X4036491Y-19481960D02*
X4046015Y-19472436D01*
X4046015Y-19472436D02*
X4046015Y-19491484D01*
X4246015Y-19491484D02*
X4131729Y-19491484D01*
X4188872Y-19491484D02*
X4188872Y-19291484D01*
X4188872Y-19291484D02*
X4169825Y-19320055D01*
X4169825Y-19320055D02*
X4150777Y-19339103D01*
X4150777Y-19339103D02*
X4131729Y-19348627D01*
X4322206Y-19310531D02*
X4331729Y-19301008D01*
X4331729Y-19301008D02*
X4350777Y-19291484D01*
X4350777Y-19291484D02*
X4398396Y-19291484D01*
X4398396Y-19291484D02*
X4417444Y-19301008D01*
X4417444Y-19301008D02*
X4426968Y-19310531D01*
X4426968Y-19310531D02*
X4436491Y-19329579D01*
X4436491Y-19329579D02*
X4436491Y-19348627D01*
X4436491Y-19348627D02*
X4426968Y-19377198D01*
X4426968Y-19377198D02*
X4312682Y-19491484D01*
X4312682Y-19491484D02*
X4436491Y-19491484D01*
X4607920Y-19291484D02*
X4569825Y-19291484D01*
X4569825Y-19291484D02*
X4550777Y-19301008D01*
X4550777Y-19301008D02*
X4541253Y-19310531D01*
X4541253Y-19310531D02*
X4522206Y-19339103D01*
X4522206Y-19339103D02*
X4512682Y-19377198D01*
X4512682Y-19377198D02*
X4512682Y-19453389D01*
X4512682Y-19453389D02*
X4522206Y-19472436D01*
X4522206Y-19472436D02*
X4531729Y-19481960D01*
X4531729Y-19481960D02*
X4550777Y-19491484D01*
X4550777Y-19491484D02*
X4588872Y-19491484D01*
X4588872Y-19491484D02*
X4607920Y-19481960D01*
X4607920Y-19481960D02*
X4617444Y-19472436D01*
X4617444Y-19472436D02*
X4626968Y-19453389D01*
X4626968Y-19453389D02*
X4626968Y-19405770D01*
X4626968Y-19405770D02*
X4617444Y-19386722D01*
X4617444Y-19386722D02*
X4607920Y-19377198D01*
X4607920Y-19377198D02*
X4588872Y-19367674D01*
X4588872Y-19367674D02*
X4550777Y-19367674D01*
X4550777Y-19367674D02*
X4531729Y-19377198D01*
X4531729Y-19377198D02*
X4522206Y-19386722D01*
X4522206Y-19386722D02*
X4512682Y-19405770D01*
X4750777Y-19291484D02*
X4769825Y-19291484D01*
X4769825Y-19291484D02*
X4788872Y-19301008D01*
X4788872Y-19301008D02*
X4798396Y-19310531D01*
X4798396Y-19310531D02*
X4807920Y-19329579D01*
X4807920Y-19329579D02*
X4817444Y-19367674D01*
X4817444Y-19367674D02*
X4817444Y-19415293D01*
X4817444Y-19415293D02*
X4807920Y-19453389D01*
X4807920Y-19453389D02*
X4798396Y-19472436D01*
X4798396Y-19472436D02*
X4788872Y-19481960D01*
X4788872Y-19481960D02*
X4769825Y-19491484D01*
X4769825Y-19491484D02*
X4750777Y-19491484D01*
X4750777Y-19491484D02*
X4731729Y-19481960D01*
X4731729Y-19481960D02*
X4722206Y-19472436D01*
X4722206Y-19472436D02*
X4712682Y-19453389D01*
X4712682Y-19453389D02*
X4703158Y-19415293D01*
X4703158Y-19415293D02*
X4703158Y-19367674D01*
X4703158Y-19367674D02*
X4712682Y-19329579D01*
X4712682Y-19329579D02*
X4722206Y-19310531D01*
X4722206Y-19310531D02*
X4731729Y-19301008D01*
X4731729Y-19301008D02*
X4750777Y-19291484D01*
X4893634Y-19291484D02*
X4893634Y-19329579D01*
X4969825Y-19291484D02*
X4969825Y-19329579D01*
X5265063Y-19567674D02*
X5255539Y-19558150D01*
X5255539Y-19558150D02*
X5236491Y-19529579D01*
X5236491Y-19529579D02*
X5226968Y-19510531D01*
X5226968Y-19510531D02*
X5217444Y-19481960D01*
X5217444Y-19481960D02*
X5207920Y-19434341D01*
X5207920Y-19434341D02*
X5207920Y-19396246D01*
X5207920Y-19396246D02*
X5217444Y-19348627D01*
X5217444Y-19348627D02*
X5226968Y-19320055D01*
X5226968Y-19320055D02*
X5236491Y-19301008D01*
X5236491Y-19301008D02*
X5255539Y-19272436D01*
X5255539Y-19272436D02*
X5265063Y-19262912D01*
X5426968Y-19291484D02*
X5388872Y-19291484D01*
X5388872Y-19291484D02*
X5369825Y-19301008D01*
X5369825Y-19301008D02*
X5360301Y-19310531D01*
X5360301Y-19310531D02*
X5341253Y-19339103D01*
X5341253Y-19339103D02*
X5331730Y-19377198D01*
X5331730Y-19377198D02*
X5331730Y-19453389D01*
X5331730Y-19453389D02*
X5341253Y-19472436D01*
X5341253Y-19472436D02*
X5350777Y-19481960D01*
X5350777Y-19481960D02*
X5369825Y-19491484D01*
X5369825Y-19491484D02*
X5407920Y-19491484D01*
X5407920Y-19491484D02*
X5426968Y-19481960D01*
X5426968Y-19481960D02*
X5436491Y-19472436D01*
X5436491Y-19472436D02*
X5446015Y-19453389D01*
X5446015Y-19453389D02*
X5446015Y-19405770D01*
X5446015Y-19405770D02*
X5436491Y-19386722D01*
X5436491Y-19386722D02*
X5426968Y-19377198D01*
X5426968Y-19377198D02*
X5407920Y-19367674D01*
X5407920Y-19367674D02*
X5369825Y-19367674D01*
X5369825Y-19367674D02*
X5350777Y-19377198D01*
X5350777Y-19377198D02*
X5341253Y-19386722D01*
X5341253Y-19386722D02*
X5331730Y-19405770D01*
X5684110Y-19491484D02*
X5684110Y-19291484D01*
X5769825Y-19491484D02*
X5769825Y-19386722D01*
X5769825Y-19386722D02*
X5760301Y-19367674D01*
X5760301Y-19367674D02*
X5741253Y-19358150D01*
X5741253Y-19358150D02*
X5712682Y-19358150D01*
X5712682Y-19358150D02*
X5693634Y-19367674D01*
X5693634Y-19367674D02*
X5684110Y-19377198D01*
X5893634Y-19491484D02*
X5874587Y-19481960D01*
X5874587Y-19481960D02*
X5865063Y-19472436D01*
X5865063Y-19472436D02*
X5855539Y-19453389D01*
X5855539Y-19453389D02*
X5855539Y-19396246D01*
X5855539Y-19396246D02*
X5865063Y-19377198D01*
X5865063Y-19377198D02*
X5874587Y-19367674D01*
X5874587Y-19367674D02*
X5893634Y-19358150D01*
X5893634Y-19358150D02*
X5922206Y-19358150D01*
X5922206Y-19358150D02*
X5941253Y-19367674D01*
X5941253Y-19367674D02*
X5950777Y-19377198D01*
X5950777Y-19377198D02*
X5960301Y-19396246D01*
X5960301Y-19396246D02*
X5960301Y-19453389D01*
X5960301Y-19453389D02*
X5950777Y-19472436D01*
X5950777Y-19472436D02*
X5941253Y-19481960D01*
X5941253Y-19481960D02*
X5922206Y-19491484D01*
X5922206Y-19491484D02*
X5893634Y-19491484D01*
X6074587Y-19491484D02*
X6055539Y-19481960D01*
X6055539Y-19481960D02*
X6046015Y-19462912D01*
X6046015Y-19462912D02*
X6046015Y-19291484D01*
X6226968Y-19481960D02*
X6207920Y-19491484D01*
X6207920Y-19491484D02*
X6169825Y-19491484D01*
X6169825Y-19491484D02*
X6150777Y-19481960D01*
X6150777Y-19481960D02*
X6141253Y-19462912D01*
X6141253Y-19462912D02*
X6141253Y-19386722D01*
X6141253Y-19386722D02*
X6150777Y-19367674D01*
X6150777Y-19367674D02*
X6169825Y-19358150D01*
X6169825Y-19358150D02*
X6207920Y-19358150D01*
X6207920Y-19358150D02*
X6226968Y-19367674D01*
X6226968Y-19367674D02*
X6236491Y-19386722D01*
X6236491Y-19386722D02*
X6236491Y-19405770D01*
X6236491Y-19405770D02*
X6141253Y-19424817D01*
X6312682Y-19481960D02*
X6331730Y-19491484D01*
X6331730Y-19491484D02*
X6369825Y-19491484D01*
X6369825Y-19491484D02*
X6388872Y-19481960D01*
X6388872Y-19481960D02*
X6398396Y-19462912D01*
X6398396Y-19462912D02*
X6398396Y-19453389D01*
X6398396Y-19453389D02*
X6388872Y-19434341D01*
X6388872Y-19434341D02*
X6369825Y-19424817D01*
X6369825Y-19424817D02*
X6341253Y-19424817D01*
X6341253Y-19424817D02*
X6322206Y-19415293D01*
X6322206Y-19415293D02*
X6312682Y-19396246D01*
X6312682Y-19396246D02*
X6312682Y-19386722D01*
X6312682Y-19386722D02*
X6322206Y-19367674D01*
X6322206Y-19367674D02*
X6341253Y-19358150D01*
X6341253Y-19358150D02*
X6369825Y-19358150D01*
X6369825Y-19358150D02*
X6388872Y-19367674D01*
X6465063Y-19567674D02*
X6474587Y-19558150D01*
X6474587Y-19558150D02*
X6493634Y-19529579D01*
X6493634Y-19529579D02*
X6503158Y-19510531D01*
X6503158Y-19510531D02*
X6512682Y-19481960D01*
X6512682Y-19481960D02*
X6522206Y-19434341D01*
X6522206Y-19434341D02*
X6522206Y-19396246D01*
X6522206Y-19396246D02*
X6512682Y-19348627D01*
X6512682Y-19348627D02*
X6503158Y-19320055D01*
X6503158Y-19320055D02*
X6493634Y-19301008D01*
X6493634Y-19301008D02*
X6474587Y-19272436D01*
X6474587Y-19272436D02*
X6465063Y-19262912D01*
X6826968Y-19567674D02*
X6817444Y-19558150D01*
X6817444Y-19558150D02*
X6798396Y-19529579D01*
X6798396Y-19529579D02*
X6788872Y-19510531D01*
X6788872Y-19510531D02*
X6779349Y-19481960D01*
X6779349Y-19481960D02*
X6769825Y-19434341D01*
X6769825Y-19434341D02*
X6769825Y-19396246D01*
X6769825Y-19396246D02*
X6779349Y-19348627D01*
X6779349Y-19348627D02*
X6788872Y-19320055D01*
X6788872Y-19320055D02*
X6798396Y-19301008D01*
X6798396Y-19301008D02*
X6817444Y-19272436D01*
X6817444Y-19272436D02*
X6826968Y-19262912D01*
X6903158Y-19358150D02*
X6903158Y-19491484D01*
X6903158Y-19377198D02*
X6912682Y-19367674D01*
X6912682Y-19367674D02*
X6931730Y-19358150D01*
X6931730Y-19358150D02*
X6960301Y-19358150D01*
X6960301Y-19358150D02*
X6979349Y-19367674D01*
X6979349Y-19367674D02*
X6988872Y-19386722D01*
X6988872Y-19386722D02*
X6988872Y-19491484D01*
X7112682Y-19491484D02*
X7093634Y-19481960D01*
X7093634Y-19481960D02*
X7084111Y-19472436D01*
X7084111Y-19472436D02*
X7074587Y-19453389D01*
X7074587Y-19453389D02*
X7074587Y-19396246D01*
X7074587Y-19396246D02*
X7084111Y-19377198D01*
X7084111Y-19377198D02*
X7093634Y-19367674D01*
X7093634Y-19367674D02*
X7112682Y-19358150D01*
X7112682Y-19358150D02*
X7141253Y-19358150D01*
X7141253Y-19358150D02*
X7160301Y-19367674D01*
X7160301Y-19367674D02*
X7169825Y-19377198D01*
X7169825Y-19377198D02*
X7179349Y-19396246D01*
X7179349Y-19396246D02*
X7179349Y-19453389D01*
X7179349Y-19453389D02*
X7169825Y-19472436D01*
X7169825Y-19472436D02*
X7160301Y-19481960D01*
X7160301Y-19481960D02*
X7141253Y-19491484D01*
X7141253Y-19491484D02*
X7112682Y-19491484D01*
X7236492Y-19358150D02*
X7312682Y-19358150D01*
X7265063Y-19291484D02*
X7265063Y-19462912D01*
X7265063Y-19462912D02*
X7274587Y-19481960D01*
X7274587Y-19481960D02*
X7293634Y-19491484D01*
X7293634Y-19491484D02*
X7312682Y-19491484D01*
X7531730Y-19358150D02*
X7531730Y-19558150D01*
X7531730Y-19367674D02*
X7550777Y-19358150D01*
X7550777Y-19358150D02*
X7588873Y-19358150D01*
X7588873Y-19358150D02*
X7607920Y-19367674D01*
X7607920Y-19367674D02*
X7617444Y-19377198D01*
X7617444Y-19377198D02*
X7626968Y-19396246D01*
X7626968Y-19396246D02*
X7626968Y-19453389D01*
X7626968Y-19453389D02*
X7617444Y-19472436D01*
X7617444Y-19472436D02*
X7607920Y-19481960D01*
X7607920Y-19481960D02*
X7588873Y-19491484D01*
X7588873Y-19491484D02*
X7550777Y-19491484D01*
X7550777Y-19491484D02*
X7531730Y-19481960D01*
X7741253Y-19491484D02*
X7722206Y-19481960D01*
X7722206Y-19481960D02*
X7712682Y-19462912D01*
X7712682Y-19462912D02*
X7712682Y-19291484D01*
X7903158Y-19491484D02*
X7903158Y-19386722D01*
X7903158Y-19386722D02*
X7893634Y-19367674D01*
X7893634Y-19367674D02*
X7874587Y-19358150D01*
X7874587Y-19358150D02*
X7836492Y-19358150D01*
X7836492Y-19358150D02*
X7817444Y-19367674D01*
X7903158Y-19481960D02*
X7884111Y-19491484D01*
X7884111Y-19491484D02*
X7836492Y-19491484D01*
X7836492Y-19491484D02*
X7817444Y-19481960D01*
X7817444Y-19481960D02*
X7807920Y-19462912D01*
X7807920Y-19462912D02*
X7807920Y-19443865D01*
X7807920Y-19443865D02*
X7817444Y-19424817D01*
X7817444Y-19424817D02*
X7836492Y-19415293D01*
X7836492Y-19415293D02*
X7884111Y-19415293D01*
X7884111Y-19415293D02*
X7903158Y-19405770D01*
X7969825Y-19358150D02*
X8046015Y-19358150D01*
X7998396Y-19291484D02*
X7998396Y-19462912D01*
X7998396Y-19462912D02*
X8007920Y-19481960D01*
X8007920Y-19481960D02*
X8026968Y-19491484D01*
X8026968Y-19491484D02*
X8046015Y-19491484D01*
X8188873Y-19481960D02*
X8169825Y-19491484D01*
X8169825Y-19491484D02*
X8131730Y-19491484D01*
X8131730Y-19491484D02*
X8112682Y-19481960D01*
X8112682Y-19481960D02*
X8103158Y-19462912D01*
X8103158Y-19462912D02*
X8103158Y-19386722D01*
X8103158Y-19386722D02*
X8112682Y-19367674D01*
X8112682Y-19367674D02*
X8131730Y-19358150D01*
X8131730Y-19358150D02*
X8169825Y-19358150D01*
X8169825Y-19358150D02*
X8188873Y-19367674D01*
X8188873Y-19367674D02*
X8198396Y-19386722D01*
X8198396Y-19386722D02*
X8198396Y-19405770D01*
X8198396Y-19405770D02*
X8103158Y-19424817D01*
X8369825Y-19491484D02*
X8369825Y-19291484D01*
X8369825Y-19481960D02*
X8350777Y-19491484D01*
X8350777Y-19491484D02*
X8312682Y-19491484D01*
X8312682Y-19491484D02*
X8293634Y-19481960D01*
X8293634Y-19481960D02*
X8284111Y-19472436D01*
X8284111Y-19472436D02*
X8274587Y-19453389D01*
X8274587Y-19453389D02*
X8274587Y-19396246D01*
X8274587Y-19396246D02*
X8284111Y-19377198D01*
X8284111Y-19377198D02*
X8293634Y-19367674D01*
X8293634Y-19367674D02*
X8312682Y-19358150D01*
X8312682Y-19358150D02*
X8350777Y-19358150D01*
X8350777Y-19358150D02*
X8369825Y-19367674D01*
X8446016Y-19567674D02*
X8455539Y-19558150D01*
X8455539Y-19558150D02*
X8474587Y-19529579D01*
X8474587Y-19529579D02*
X8484111Y-19510531D01*
X8484111Y-19510531D02*
X8493635Y-19481960D01*
X8493635Y-19481960D02*
X8503158Y-19434341D01*
X8503158Y-19434341D02*
X8503158Y-19396246D01*
X8503158Y-19396246D02*
X8493635Y-19348627D01*
X8493635Y-19348627D02*
X8484111Y-19320055D01*
X8484111Y-19320055D02*
X8474587Y-19301008D01*
X8474587Y-19301008D02*
X8455539Y-19272436D01*
X8455539Y-19272436D02*
X8446016Y-19262912D01*
M02*
