M48
; DRILL file {KiCad 9.0.3} date 2025-08-21T13:11:43+0300
; FORMAT={-:-/ absolute / metric / decimal}
; #@! TF.CreationDate,2025-08-21T13:11:43+03:00
; #@! TF.GenerationSoftware,Kicad,Pcbnew,9.0.3
; #@! TF.FileFunction,Plated,1,2,PTH
FMAT,2
METRIC
; #@! TA.AperFunction,Plated,PTH,ViaDrill
T1C0.300
; #@! TA.AperFunction,Plated,PTH,ComponentDrill
T2C0.813
; #@! TA.AperFunction,Plated,PTH,ComponentDrill
T3C0.850
; #@! TA.AperFunction,Plated,PTH,ComponentDrill
T4C1.020
; #@! TA.AperFunction,Plated,PTH,ViaDrill
T5C3.000
%
G90
G05
T1
X48.698Y-166.322
X51.095Y-81.586
X53.999Y-81.586
X56.967Y-60.682
X68.838Y-63.668
X77.742Y-168.319
X79.905Y-153.257
X80.71Y-159.23
X82.614Y-113.349
X86.646Y-165.203
X89.614Y-147.285
X112.417Y-50.954
X116.492Y-47.71
X119.293Y-45.632
X133.367Y-123.394
X134.21Y-51.645
X134.975Y-111.86
X143.189Y-103.482
X143.629Y-102.476
T2
X42.19Y-166.0
X44.73Y-166.0
X47.27Y-166.0
X58.23Y-166.0
X60.77Y-166.0
X63.31Y-166.0
X141.46Y-110.0
X141.46Y-114.286
X141.46Y-118.571
X141.46Y-122.857
X141.46Y-127.143
X141.46Y-131.429
X141.46Y-135.714
X141.46Y-140.0
X141.46Y-144.286
X141.46Y-148.571
X141.46Y-152.857
X141.46Y-157.143
X141.46Y-161.429
X141.46Y-165.714
X141.46Y-170.0
X144.0Y-110.0
X144.0Y-114.286
X144.0Y-118.571
X144.0Y-122.857
X144.0Y-127.143
X144.0Y-131.429
X144.0Y-135.714
X144.0Y-140.0
X144.0Y-144.286
X144.0Y-148.571
X144.0Y-152.857
X144.0Y-157.143
X144.0Y-161.429
X144.0Y-165.714
X144.0Y-170.0
X146.54Y-110.0
X146.54Y-114.286
X146.54Y-118.571
X146.54Y-122.857
X146.54Y-127.143
X146.54Y-131.429
X146.54Y-135.714
X146.54Y-140.0
X146.54Y-144.286
X146.54Y-148.571
X146.54Y-152.857
X146.54Y-157.143
X146.54Y-161.429
X146.54Y-165.714
X146.54Y-170.0
T3
X73.0Y-48.856
X73.0Y-51.396
X73.0Y-59.016
X73.0Y-61.556
X73.0Y-64.096
X73.0Y-66.636
X73.0Y-69.176
X73.0Y-71.716
X73.0Y-74.256
X73.0Y-76.796
X73.0Y-81.876
X73.0Y-84.416
X73.0Y-86.956
X73.0Y-89.496
X73.0Y-92.036
X73.0Y-94.576
X73.0Y-97.116
X73.0Y-99.656
X73.0Y-103.72
X73.0Y-106.26
X73.0Y-108.8
X73.0Y-111.34
X73.0Y-113.88
X73.0Y-116.42
X73.0Y-118.96
X73.0Y-121.5
X73.0Y-124.04
X73.0Y-126.58
X75.54Y-48.856
X75.54Y-51.396
X78.08Y-48.856
X78.08Y-51.396
X80.62Y-48.856
X80.62Y-51.396
X83.16Y-48.856
X83.16Y-51.396
X85.7Y-48.856
X85.7Y-51.396
X88.24Y-48.856
X88.24Y-51.396
X90.78Y-48.856
X90.78Y-51.396
X93.32Y-48.856
X93.32Y-51.396
X95.86Y-48.856
X95.86Y-51.396
X98.4Y-48.856
X98.4Y-51.396
X100.94Y-48.856
X100.94Y-51.396
X103.48Y-48.856
X103.48Y-51.396
X106.02Y-48.856
X106.02Y-51.396
X108.56Y-48.856
X108.56Y-51.396
X111.1Y-48.856
X111.1Y-51.396
X113.64Y-48.856
X113.64Y-51.396
X116.18Y-48.856
X116.18Y-51.396
X121.26Y-53.936
X121.26Y-56.476
X121.26Y-59.016
X121.26Y-61.556
X121.26Y-64.096
X121.26Y-66.636
X121.26Y-69.176
X121.26Y-71.716
X121.26Y-76.796
X121.26Y-79.336
X121.26Y-81.876
X121.26Y-84.416
X121.26Y-86.956
X121.26Y-89.496
X121.26Y-92.036
X121.26Y-94.576
X121.26Y-99.656
X121.26Y-102.196
X121.26Y-104.736
X121.26Y-107.276
X121.26Y-109.816
X121.26Y-112.356
X121.26Y-114.896
X121.26Y-117.436
T4
X45.23Y-133.5
X45.27Y-145.5
X45.69Y-121.0
X47.77Y-133.5
X47.81Y-145.5
X48.0Y-29.72
X48.0Y-32.26
X48.0Y-34.8
X48.0Y-37.34
X48.0Y-39.88
X48.0Y-42.42
X48.0Y-44.96
X48.0Y-47.5
X48.23Y-121.0
X48.5Y-63.3
X48.5Y-65.84
X48.5Y-68.38
X48.5Y-70.92
X48.5Y-73.46
X48.5Y-76.0
X48.5Y-78.54
X48.5Y-81.08
X139.38Y-28.349
X139.38Y-33.296
X139.38Y-38.243
X139.38Y-43.19
X139.38Y-48.137
X139.38Y-53.084
X139.38Y-58.031
X139.38Y-62.979
X139.38Y-67.926
X139.38Y-72.873
X139.38Y-77.82
X139.38Y-82.767
X139.38Y-87.714
X139.38Y-92.661
X139.38Y-97.609
X141.92Y-28.349
X141.92Y-33.296
X141.92Y-38.243
X141.92Y-43.19
X141.92Y-48.137
X141.92Y-53.084
X141.92Y-58.031
X141.92Y-62.979
X141.92Y-67.926
X141.92Y-72.873
X141.92Y-77.82
X141.92Y-82.767
X141.92Y-87.714
X141.92Y-92.661
X141.92Y-97.609
X144.46Y-28.349
X144.46Y-33.296
X144.46Y-38.243
X144.46Y-43.19
X144.46Y-48.137
X144.46Y-53.084
X144.46Y-58.031
X144.46Y-62.979
X144.46Y-67.926
X144.46Y-72.873
X144.46Y-77.82
X144.46Y-82.767
X144.46Y-87.714
X144.46Y-92.661
X144.46Y-97.609
X147.0Y-28.349
X147.0Y-33.296
X147.0Y-38.243
X147.0Y-43.19
X147.0Y-48.137
X147.0Y-53.084
X147.0Y-58.031
X147.0Y-62.979
X147.0Y-67.926
X147.0Y-72.873
X147.0Y-77.82
X147.0Y-82.767
X147.0Y-87.714
X147.0Y-92.661
X147.0Y-97.609
T5
X24.5Y-19.5
X24.5Y-181.0
X177.0Y-19.5
X177.0Y-181.0
M30
