M48
;Layer_Color=6321
;FILE_FORMAT=2:5
INCH,LZ
;TYPE=PLATED
T1F00S00C0.02800
T2F00S00C0.03780
T3F00S00C0.03937
T4F00S00C0.04724
T5F00S00C0.05600
T6F00S00C0.05906
%
T01
X07265Y03045
X06148Y0297
X05714Y02958
X05569Y0293
X05266Y0395
X05904Y04205
X0666Y04302
X06822Y04165
X0685Y0531
X06396Y05424
X069Y05964
X0333Y0605
X0283Y05915
T02
X04785Y03105
X02885Y03045
Y02945
Y02845
Y02745
Y03145
Y03245
Y03345
Y03445
Y03545
Y03645
Y03805
Y03905
Y04005
Y04105
Y04205
Y04305
Y04405
Y04505
X04785
Y04605
Y04405
Y04305
Y04205
Y04105
Y04005
Y03805
Y03705
Y03605
Y03505
Y03405
Y03305
Y03205
Y04705
Y04905
Y05005
Y05105
Y05205
Y05305
Y05405
Y05505
Y05605
X04585Y05705
Y05805
X04485
X04385
X04285
X04185
X04085
X03985
X03885
X03785
Y05705
X03685
X03585
X03485
X03385
X03285
X03185
Y05805
X03285
X03385
X03485
X03585
X03685
X03885Y05705
X03985
X04085
X04185
X04285
X04385
X04485
X03085
X02985
X02885
Y05805
X02985
X03085
X02885Y05405
Y05305
Y05205
Y05105
Y05005
Y04905
Y04805
Y04705
T03
X06755Y01765
Y01865
Y01965
X0556Y0199
Y0189
Y0179
X05525Y044
Y045
Y046
X0592375
Y045
Y044
X063225
Y045
Y046
X0672125
Y045
Y044
X0712
Y045
Y046
Y0508
Y0518
Y0528
X0672125
Y0518
Y0508
X063225
Y0518
Y0528
Y05735
Y05835
Y05935
X0672125
Y05835
Y05735
X0712
Y05835
Y05935
X0592375
Y05835
Y05735
X05525
Y05835
Y05935
Y0528
Y0518
Y0508
X0592375
Y0518
Y0528
T04
X063225Y024395
Y02538
Y026365
Y02735
X0676125
Y026365
Y02538
Y024395
X072
Y02538
Y026365
Y02735
X0588375
Y026365
Y02538
Y024395
X05445
Y02538
Y026365
Y02735
X0548Y031545
Y03253
Y033515
Y0345
X05505Y037645
Y03863
Y039615
Y0406
X05915
Y039615
Y03863
Y037645
X0591Y0345
Y033515
Y03253
Y031545
X0634
Y03253
Y033515
Y0345
X06325Y037645
Y03863
Y039615
Y0406
X06735
Y039615
Y03863
Y037645
X0677Y0345
Y033515
Y03253
Y031545
X072
Y03253
Y033515
Y0345
X07145Y037645
Y03863
Y039615
Y0406
T05
X01405Y0387646
Y0397717
Y0407789
Y041786
Y0427929
Y0438
Y0448071
Y0458142
Y0506504
Y0516575
Y0526647
Y0536718
Y0546787
Y0556858
Y0566929
Y0577
T06
X0197Y02505
X0217
X0221Y0336
X0241
X01785Y0337
X01585
M30
